<?xml version="1.0" encoding="UTF-8"?>
<svg width="225" height="150" version="1.1" viewBox="0 0 234 156" xmlns="http://www.w3.org/2000/svg" xmlns:xlink="http://www.w3.org/1999/xlink">
 <defs>
  <g id="s" transform="translate(3.9443) scale(.625)" fill="#fff">
   <g id="f">
    <g id="t">
     <path id="o" transform="rotate(18,1,0)" d="M1,0H0V0.5z"/>
     <use transform="scale(1,-1)" xlink:href="#o"/>
    </g>
    <use transform="rotate(72)" xlink:href="#t"/>
   </g>
   <use transform="rotate(-72)" xlink:href="#t"/>
   <use transform="rotate(144)" xlink:href="#f"/>
  </g>
  <clipPath id="c">
   <path d="m0 16v-16l26 3-6 5 6 5z"/>
  </clipPath>
 </defs>
 <g transform="scale(9 9.75)" clip-path="url(#c)" fill="#fff" stroke="#c1133d">
  <path d="m26 3-26-3v16l26-3" stroke-width="4"/>
  <path d="m0 8h26" stroke-width="2"/>
 </g>
 <path d="m0 0v156l144-78z" fill="#001c5a"/>
 <g transform="translate(0,6) scale(9)">
  <g transform="translate(4.9443 8)">
   <circle r="3" fill="#fff"/>
   <circle r="2" fill="#c1133d"/>
   <use x="4" xlink:href="#s"/>
   <g id="b">
    <use xlink:href="#s"/>
    <use transform="rotate(-9.6502)" x="2" xlink:href="#s"/>
    <use transform="rotate(9.6502)" x="2" xlink:href="#s"/>
   </g>
   <g id="a">
    <use transform="rotate(63.435)" xlink:href="#s"/>
    <use transform="rotate(92.576)" xlink:href="#s"/>
    <use transform="rotate(121.72)" xlink:href="#b"/>
    <use transform="rotate(150.86)" xlink:href="#s"/>
   </g>
   <use transform="rotate(180)" xlink:href="#s"/>
   <use transform="scale(1,-1)" xlink:href="#a"/>
  </g>
 </g>
</svg>
