<?xml version="1.0" encoding="UTF-8" standalone="no"?>
<svg
   xmlns:dc="http://purl.org/dc/elements/1.1/"
   xmlns:cc="http://creativecommons.org/ns#"
   xmlns:rdf="http://www.w3.org/1999/02/22-rdf-syntax-ns#"
   xmlns:svg="http://www.w3.org/2000/svg"
   xmlns="http://www.w3.org/2000/svg"
   xmlns:xlink="http://www.w3.org/1999/xlink"
   xmlns:sodipodi="http://sodipodi.sourceforge.net/DTD/sodipodi-0.dtd"
   xmlns:inkscape="http://www.inkscape.org/namespaces/inkscape"
   height="150"
   width="225"
   version="1.1"
   id="svg46"
   sodipodi:docname="Rhode Island.svg"
   inkscape:version="0.92.3 (2405546, 2018-03-11)">
  <metadata
     id="metadata52">
    <rdf:RDF>
      <cc:Work
         rdf:about="">
        <dc:format>image/svg+xml</dc:format>
        <dc:type
           rdf:resource="http://purl.org/dc/dcmitype/StillImage" />
        <dc:title></dc:title>
      </cc:Work>
    </rdf:RDF>
  </metadata>
  <defs
     id="defs50" />
  <sodipodi:namedview
     pagecolor="#ffffff"
     bordercolor="#666666"
     borderopacity="1"
     objecttolerance="10"
     gridtolerance="10"
     guidetolerance="10"
     inkscape:pageopacity="0"
     inkscape:pageshadow="2"
     inkscape:window-width="1920"
     inkscape:window-height="1015"
     id="namedview48"
     showgrid="false"
     inkscape:zoom="0.74920635"
     inkscape:cx="347.61169"
     inkscape:cy="215.0037"
     inkscape:window-x="0"
     inkscape:window-y="0"
     inkscape:window-maximized="1"
     inkscape:current-layer="svg46" />
  <g
     id="g156"
     transform="translate(27.15517,-455)">
    <path
       id="path8"
       d="m -27.15517,455 h 225 v 150 h -225 z"
       inkscape:connector-curvature="0"
       style="fill:#ffffff;stroke-width:0.29692784" />
    <g
       transform="matrix(0.25862069,0,0,0.25862069,0,448.53448)"
       id="g16"
       style="fill:#fec500;stroke-width:1.5">
      <path
         id="path10"
         d="m 325.78,210.52 c 0,0 -1.06,118.22 -1.06,126.82 0,8.6 0,20.42 -9.5,18.27 -9.48,-2.15 -21.09,-2.15 -37.97,-13.97 -16.87,-11.82 -16.87,-13.97 -16.87,-13.97 l 15.82,-5.38 c 0,0 -15.82,-3.22 -26.37,-10.74 -10.55,-7.53 -18.99,-13.98 -18.99,-13.98 0,0 -1.05,16.13 4.22,27.95 5.28,11.82 15.82,22.57 15.82,22.57 v -13.97 c 0,0 14.77,13.97 20.05,17.2 5.27,3.22 26.37,11.82 34.8,17.2 8.44,5.36 25.32,20.41 25.32,20.41 0,0 14.77,-17.2 25.32,-21.5 10.55,-4.3 24.26,-10.74 30.59,-15.04 6.33,-4.3 23.2,-20.42 23.2,-20.42 v 18.27 c 0,0 11.6,-13.97 14.77,-23.65 3.17,-9.67 4.22,-26.87 4.22,-26.87 0,0 -8.44,6.45 -15.82,9.68 -7.39,3.22 -28.48,11.82 -28.48,11.82 l 16.87,4.3 c 0,0 -27.42,21.5 -36.91,25.8 -9.5,4.3 -29.54,6.44 -29.54,-4.3 0,-10.74 1.06,-136.5 1.06,-136.5 z m 1.05,-39.77 h 7.38 v 32.24 h -7.38 z"
         inkscape:connector-curvature="0"
         style="stroke:#fec500" />
      <path
         id="path12"
         d="m 274.1,203 c 0,0 29.53,-6.45 56.95,-6.45 27.42,0 55.9,6.44 55.9,6.44 v 11.83 c 0,0 -37.97,5.37 -60.12,5.37 -22.15,0 -53.8,-6.45 -53.8,-6.45 z"
         inkscape:connector-curvature="0"
         style="stroke:#ffffff" />
      <path
         id="path14"
         d="m 341.6,197.62 c 0,7.12 -4.96,12.9 -11.08,12.9 -6.11,0 -11.07,-5.78 -11.07,-12.9 0,-7.12 4.96,-12.9 11.07,-12.9 6.12,0 11.08,5.78 11.08,12.9 z m 5.27,-0.54 c 0,9.8 -7.55,17.74 -16.87,17.74 -9.32,0 -16.88,-7.94 -16.88,-17.74 0,-9.8 7.56,-17.73 16.88,-17.73 9.32,0 16.87,7.94 16.87,17.73 z"
         inkscape:connector-curvature="0"
         style="fill-rule:evenodd;stroke:#ffffff" />
    </g>
    <g
       transform="matrix(0.25862069,0,0,0.25862069,0,448.53448)"
       id="g22"
       style="fill:#003271;stroke:#ffffff;stroke-linejoin:round">
      <path
         id="path18"
         d="m 427.63,403.37 c 0,0 -14.01,12.8 -27.72,14.62 -13.71,1.83 -35.3,8.27 -35.3,8.27 0,0 -0.57,19.72 0.1,21.43 0.67,1.71 1.1,2.16 3.07,2.23 6.39,0.23 21.95,0.25 38.88,-3.69 22.13,-5.15 43.84,-18.47 43.84,-18.47 -5.06,-2.08 -17.3,-3.91 -25.2,-5.87 z m -41.03,30.45 c 1.5,4 -22.18,7.7 -21.89,13.87 M 232.37,403.37 c 0,0 14.01,12.8 27.72,14.62 13.71,1.83 35.3,8.27 35.3,8.27 0,0 0.57,19.72 -0.1,21.43 -0.67,1.71 -1.1,2.16 -3.07,2.23 -6.39,0.23 -21.95,0.25 -38.88,-3.69 -22.13,-5.15 -43.84,-18.47 -43.84,-18.47 5.06,-2.08 17.3,-3.91 25.2,-5.87 z m 41.03,30.45 c -1.5,4 22.18,7.7 21.89,13.87"
         inkscape:connector-curvature="0" />
      <path
         id="path20"
         d="m 277.26,432.99 c -2.44,-0.76 -3.86,0.83 -3.86,0.83 v -34.16 c 0,0 1.48,-1.34 4.06,-0.21 9.1,3.97 32.56,12.02 52.54,12.02 19.98,0 43.44,-8.05 52.54,-12.02 2.58,-1.13 4.06,0.2 4.06,0.2 v 34.17 c 0,0 -1.42,-1.6 -3.86,-0.83 -9.7,3.01 -35.06,10.5 -52.74,10.5 -17.68,0 -43.04,-7.49 -52.74,-10.49 z"
         inkscape:connector-curvature="0" />
    </g>
    <g
       id="g40"
       transform="matrix(0.25862069,0,0,0.25862069,85.344828,530)"
       style="fill:#fec500">
      <path
         id="a"
         d="m 0,-245 10.58,25.44 27.46,2.2 -20.92,17.92 6.4,26.8 L 0,-187 l -23.51,14.36 6.4,-26.8 -20.93,-17.92 27.46,-2.2 z"
         inkscape:connector-curvature="0" />
      <g
         id="b">
        <use
           id="use25"
           xlink:href="#a"
           transform="rotate(27.7)"
           x="0"
           y="0"
           width="100%"
           height="100%" />
        <use
           id="use27"
           xlink:href="#a"
           transform="rotate(55.38)"
           x="0"
           y="0"
           width="100%"
           height="100%" />
        <use
           id="use29"
           xlink:href="#a"
           transform="rotate(83.08)"
           x="0"
           y="0"
           width="100%"
           height="100%" />
        <use
           id="use31"
           xlink:href="#a"
           transform="rotate(110.77)"
           x="0"
           y="0"
           width="100%"
           height="100%" />
        <use
           id="use33"
           xlink:href="#a"
           transform="rotate(138.46)"
           x="0"
           y="0"
           width="100%"
           height="100%" />
        <use
           id="use35"
           xlink:href="#a"
           transform="rotate(166.15)"
           x="0"
           y="0"
           width="100%"
           height="100%" />
      </g>
      <use
         id="use38"
         xlink:href="#b"
         transform="scale(-1,1)"
         x="0"
         y="0"
         width="100%"
         height="100%" />
    </g>
    <path
       id="path42"
       d="m 93.698276,558.10689 v -2.91207 l 2.1,-0.56896 2.102586,-0.56897 v 1.16897 l -1.370689,0.36983 -1.37069,0.37241 v 1.16897 l 1.034483,-0.27931 1.034482,-0.2819 v 1.16896 l -1.05,0.28449 -1.05,0.28448 v 1.14828 l 1.386207,-0.375 1.386207,-0.37759 v 1.17155 l -2.102586,0.56897 -2.102586,0.56896 v -2.91207 z m -4.060345,0.12931 c 0.496552,-0.16034 0.737069,-0.43448 0.649138,-0.74224 -0.08276,-0.29224 -0.532759,-0.41896 -1.32931,-0.37241 l -0.34138,0.0207 v 1.25431 l 0.434483,-0.0569 c 0.237931,-0.031 0.501724,-0.0776 0.584483,-0.10345 z m -2.423276,0.79656 v -2.91725 l 0.951724,-0.0827 c 1.174138,-0.10087 1.567242,-0.0983 2.089656,0.008 0.905172,0.18621 1.406896,0.67242 1.45862,1.41725 a 1.3939655,1.3939655 0 0 1 -0.525,1.22327 c -0.444827,0.38793 -1.068103,0.62586 -2.063793,0.78621 l -0.478448,0.0776 v 2.25776 l -0.716379,0.0724 -0.71638,0.0724 z m -4.727586,1.78189 c 0.181035,-0.0983 0.364655,-0.38793 0.447414,-0.70603 0.162931,-0.63621 0.121552,-1.7069 -0.09052,-2.22673 -0.204311,-0.50689 -0.646552,-0.68017 -1.039656,-0.40603 -0.336206,0.23276 -0.475862,0.75776 -0.444827,1.68103 0.03103,1.00087 0.212069,1.52587 0.584483,1.69138 a 0.62068966,0.62068966 0 0 0 0.543103,-0.0336 z m -0.711207,1.19483 a 2.1724138,2.1724138 0 0 1 -1.55431,-1.16897 c -0.261207,-0.52241 -0.346552,-0.96982 -0.346552,-1.8 0,-0.83534 0.08793,-1.29569 0.341379,-1.79741 0.382759,-0.75517 1.194828,-1.13793 2.239656,-1.04483 1.125,0.0983 1.77931,0.73966 1.986206,1.95259 0.06207,0.36207 0.06983,1.18965 0.01552,1.61379 -0.144828,1.14311 -0.615518,1.85949 -1.401724,2.1388 -0.377587,0.13189 -0.868966,0.17327 -1.280173,0.10344 z m -8.922414,-5.0431 v -2.91207 l 0.71638,0.17586 0.716379,0.17586 v 2.34052 l 0.868966,0.21465 0.866379,0.21207 v -2.33793 l 0.731896,0.18104 0.731897,0.17844 v 5.82414 l -0.731897,-0.18103 -0.731896,-0.17845 v -2.33793 l -0.866379,-0.21466 -0.868966,-0.21465 v 2.34052 l -0.716379,-0.17587 -0.71638,-0.17586 v -2.91207 z"
       inkscape:connector-curvature="0"
       style="fill:#fec500;stroke-width:0.25862068" />
  </g>
</svg>
