<?xml version="1.0" encoding="UTF-8"?>
<svg width="450" height="300" version="1.1" xmlns="http://www.w3.org/2000/svg" xmlns:xlink="http://www.w3.org/1999/xlink">
<rect width="450" height="300" rx="0" ry="0" fill="#fff" fill-rule="evenodd" stroke-width=".86603"/>
<rect id="a" y="120" width="450" height="60" rx="0" ry="0" fill="#c8102e" fill-rule="evenodd" stroke-width=".86603"/>
<use transform="matrix(0 .66667 -1 0 375 0)" width="600" height="300" xlink:href="#a"/>
<path d="m225 223.47-19.286-40.066-44.341 3.3309 25.055-36.735-25.055-36.735 44.341 3.3309 19.286-40.066 19.286 40.066 44.341-3.3309-25.055 36.735 25.055 36.735-44.341-3.3309z" fill="#fff" stroke="#161111"/>
<g transform="translate(-75 .00010437)">
<g fill-rule="evenodd" stroke="#000">
<path d="m322 91.631c1.9255-3.0124 0.77409-4.9577-2.1381-5.5589 0 0-9.2916 2.9784-19.327 3.3053-10.035 0.3269-21.958-2.5238-21.958-2.5238-2.1382 1.3417-1.6164 4.5256-0.5559 6.5133 0 0 10.505 3.4901 22.464 3.1474 7.596-0.21763 14.794-2.1559 18.832-3.4406 2.3194-0.73798 2.6831-1.4086 2.682-1.4428z" fill="#ebeae3" stroke-width=".32597"/>
<path d="m299.71 76.392c24.227 3.9935 23.362 5.125 23.362 5.125l6.323-18.903s0.66557-3.7273-1.0649-5.9902-6.5893-0.99838-6.5893-0.99838-0.66558-3.0617-2.7954-3.7938c-2.1299-0.73214-10.05 2.862-12.513 3.6607-2.4626 0.7987-3.7273 1.5974-7.1883 1.5308-3.461-0.06656-9.6509-3.1282-10.782-3.7273-1.1315-0.59902-2.7954-1.198-4.3263-1.1315-1.5308 0.06656-3.1282 0.46591-3.9269 1.5308-0.7987 1.0649-0.7987 2.3961-0.7987 2.3961s-1.2646-0.7987-3.2614-0.7987c-1.9967 0-3.1282 0.26623-4.0601 1.3312-0.9318 1.0649-2.1299 4.06-2.1299 4.06l2.263 5.125 0.13311 7.0552 4.7256 7.4545 22.63-3.9269z" fill="#b02320" stroke-width=".81493"/>
<path d="m322.3 87.072s1.2199 1.4545 1.173 1.9706-0.56302 0.98528-0.56302 0.98528 0.37536 0.37534 0.28151 0.93836c-0.0938 0.56302-0.84452 0.60994-0.84452 0.60994s0.14075 0.5161-0.32843 0.75069-2.3928 0.65685-2.3928 0.65685-9.3836-2.6743-19.424-2.6743c-10.04 0-21.864 3.2374-21.864 3.2374s-1.2199-0.42226-1.2668-1.2199c-0.0469-0.79761 0.14077-1.3606 0.14077-1.3606s-0.66788 0.06958-0.84453-0.5161c-0.24707-0.81917 0.0938-1.4545 0.0938-1.4545s-0.46516 0.14978 0.0469-0.93836c0.37534-0.79761 0.93837-1.0791 0.93837-1.0791s10.51-3.7534 22.474-3.8004c11.964-0.04692 22.38 3.8004 22.38 3.8942z" fill="#ebeae3" stroke-width=".32597"/>
</g>
<path d="m272.64 63.435s-0.40066-1.3622 0.48076-2.5641c0.88144-1.2019 2.484-1.1218 2.9648-0.88142 0.48079 0.24039 0.40066 0.8013 1.0417 0.96156 0.64103 0.16026 1.1218-0.32052 1.1218-0.32052" fill="none" stroke="#000" stroke-width=".71714"/>
<path d="m331.14 66.624-3.6389 7.5287-1.4304 0.25096s-0.87271-0.52426-3.3628-0.35134c-1.7818 0.12548-2.3088 0.5772-2.3088 0.5772l3.2374-7.5036s0.25233 1.6122 0.62739 2.5598c0.47682 1.2046 2.2837 2.3339 2.2837 2.3339s0.25039-1.4409-0.22585-3.1872c-0.52702-1.9324-1.7567-4.5423-1.7567-4.5423l6.5751 2.3339z" fill="#fedd00" fill-opacity=".94118" fill-rule="evenodd" stroke="#000" stroke-width=".74973"/>
<path d="m297.81 43.225h4.073v17.309h-4.073z" fill="#121116" stroke="#121116" stroke-linejoin="round" stroke-width=".73115"/>
<path d="m272.85 75.147 2.6157 5.5963s11.132-4.3389 24.271-4.2581c19.709 0.12166 25.305 4.0756 25.305 4.0756l2.9198-6.9346-2.1899 1.2774-2.2507 1.3991-2.5548 0.97328-3.1023-0.24332-2.7374-2.0074-1.3991-2.9198-2.3115 2.129-4.0756 0.91245-4.0148-1.0341-3.5281-4.4406s-2.6282 4.936-5.9613 5.2314c-4.8056 0.42581-7.6037-2.3115-7.6037-2.3115s-1.7865 4.0148-4.7447 4.7447c-4.6839 1.1558-8.577-2.1899-8.6378-2.1899z" fill="#fedd00" fill-rule="evenodd" stroke="#000" stroke-width=".61935"/>
<g stroke-width="2.243">
<path d="m317.78 41.028c3e-5 1.1759-0.93911 2.1298-2.0991 2.1321-1.16 0.0023-2.1029-0.94779-2.1074-2.1237-5e-3 -1.1759 0.93085-2.1335 2.0908-2.1405 1.16-7e-3 2.1065 0.93941 2.1156 2.1153" fill="#eee" stroke="#1e1e1e" stroke-linejoin="round" stroke-width=".73115"/>
<path d="m314.7 42.123s1.6999-0.02882 1.8728-0.7203c0.17287-0.69149-0.11525-1.5847-0.11525-1.5847s0.80673 0.89317 0.57624 1.5847c-0.2305 0.69149-0.45662 0.87022-1.0372 1.0084-0.3934 0.09363-0.97961-0.05762-1.2965-0.28812z" fill="#a3afb8" fill-rule="evenodd"/>
<path d="m312.67 43.418c3e-5 1.1759-0.93911 2.1298-2.0991 2.1321-1.16 0.0023-2.1029-0.94779-2.1074-2.1237-5e-3 -1.1759 0.93085-2.1335 2.0908-2.1405 1.16-7e-3 2.1065 0.93941 2.1156 2.1153" fill="#eee" stroke="#1e1e1e" stroke-linejoin="round" stroke-width=".73115"/>
<path d="m309.59 44.513s1.6999-0.02882 1.8728-0.7203c0.17287-0.69149-0.11525-1.5847-0.11525-1.5847s0.80673 0.89317 0.57624 1.5847c-0.2305 0.69149-0.45662 0.87022-1.0372 1.0084-0.3934 0.09363-0.97961-0.05762-1.2965-0.28812z" fill="#a3afb8" fill-rule="evenodd"/>
<path d="m323.71 39.628c3e-5 1.1759-0.93911 2.1298-2.0991 2.1321-1.16 0.0023-2.1029-0.94779-2.1074-2.1237-4e-3 -1.1759 0.93085-2.1335 2.0908-2.1405 1.16-7e-3 2.1065 0.93941 2.1156 2.1153" fill="#eee" stroke="#1e1e1e" stroke-linejoin="round" stroke-width=".73115"/>
<path d="m320.63 40.723s1.6999-0.02882 1.8728-0.7203c0.17287-0.69149-0.11525-1.5847-0.11525-1.5847s0.80673 0.89317 0.57624 1.5847c-0.2305 0.69149-0.45662 0.87022-1.0372 1.0084-0.3934 0.09363-0.97961-0.05762-1.2965-0.28812z" fill="#a3afb8" fill-rule="evenodd"/>
<path d="m330.39 40.973c3e-5 1.1759-0.93911 2.1298-2.0991 2.1321-1.16 0.0023-2.1029-0.94779-2.1074-2.1237-5e-3 -1.1759 0.93085-2.1335 2.0908-2.1405 1.16-7e-3 2.1065 0.93941 2.1156 2.1153" fill="#eee" stroke="#1e1e1e" stroke-linejoin="round" stroke-width=".73115"/>
<path d="m327.31 42.068s1.6999-0.02882 1.8728-0.7203c0.17287-0.69149-0.11525-1.5847-0.11525-1.5847s0.80673 0.89317 0.57624 1.5847c-0.2305 0.69149-0.45662 0.87022-1.0372 1.0084-0.3934 0.09363-0.97961-0.05762-1.2965-0.28812z" fill="#a3afb8" fill-rule="evenodd"/>
<path d="m335.49 45.169c3e-5 1.1759-0.93911 2.1298-2.0991 2.1321-1.16 0.0023-2.1029-0.94779-2.1074-2.1237-5e-3 -1.1759 0.93085-2.1335 2.0908-2.1405 1.16-7e-3 2.1065 0.93941 2.1156 2.1153" fill="#eee" stroke="#1e1e1e" stroke-linejoin="round" stroke-width=".73115"/>
<path d="m332.4 46.264s1.6999-0.02882 1.8728-0.7203c0.17287-0.69149-0.11525-1.5847-0.11525-1.5847s0.80673 0.89317 0.57624 1.5847c-0.2305 0.69149-0.45662 0.87022-1.0372 1.0084-0.3934 0.09363-0.97961-0.05762-1.2965-0.28812z" fill="#a3afb8" fill-rule="evenodd"/>
<path d="m337.69 52.056c3e-5 1.1759-0.93911 2.1298-2.0991 2.1321-1.16 0.0023-2.1029-0.94779-2.1074-2.1237-5e-3 -1.1759 0.93085-2.1335 2.0908-2.1405 1.16-7e-3 2.1065 0.93941 2.1156 2.1153" fill="#eee" stroke="#1e1e1e" stroke-linejoin="round" stroke-width=".73115"/>
<path d="m334.6 53.151s1.6999-0.02882 1.8728-0.7203c0.17287-0.69149-0.11525-1.5847-0.11525-1.5847s0.80673 0.89317 0.57624 1.5847c-0.2305 0.69149-0.45662 0.87022-1.0372 1.0084-0.3934 0.09363-0.97961-0.05762-1.2965-0.28812z" fill="#a3afb8" fill-rule="evenodd"/>
<path d="m336.87 59.023c3e-5 1.1759-0.93911 2.1298-2.0991 2.1321-1.16 0.0023-2.1029-0.94779-2.1074-2.1237-5e-3 -1.1759 0.93085-2.1335 2.0908-2.1405 1.16-7e-3 2.1065 0.93941 2.1156 2.1153" fill="#eee" stroke="#1e1e1e" stroke-linejoin="round" stroke-width=".73115"/>
<path d="m333.79 60.118s1.6999-0.02882 1.8728-0.7203c0.17287-0.69149-0.11525-1.5847-0.11525-1.5847s0.80673 0.89317 0.57624 1.5847c-0.2305 0.69149-0.45662 0.87022-1.0372 1.0084-0.3934 0.09363-0.97961-0.05762-1.2965-0.28812z" fill="#a3afb8" fill-rule="evenodd"/>
<path d="m333.78 65.135c3e-5 1.1759-0.93911 2.1298-2.0991 2.1321-1.16 0.0023-2.1029-0.94779-2.1074-2.1237-5e-3 -1.1759 0.93085-2.1335 2.0908-2.1405 1.16-7e-3 2.1065 0.93941 2.1156 2.1153" fill="#eee" stroke="#1e1e1e" stroke-linejoin="round" stroke-width=".73115"/>
<path d="m330.69 66.23s1.6999-0.02882 1.8728-0.7203c0.17287-0.69149-0.11525-1.5847-0.11525-1.5847s0.80673 0.89317 0.57624 1.5847c-0.2305 0.69149-0.45662 0.87022-1.0372 1.0084-0.3934 0.09363-0.97961-0.05762-1.2965-0.28812z" fill="#a3afb8" fill-rule="evenodd"/>
<path d="m307.7 45.251c3e-5 1.1759-0.93911 2.1298-2.0991 2.1321-1.16 0.0023-2.1029-0.94779-2.1074-2.1237-5e-3 -1.1759 0.93085-2.1335 2.0908-2.1405 1.16-7e-3 2.1065 0.93941 2.1156 2.1153" fill="#eee" stroke="#1e1e1e" stroke-linejoin="round" stroke-width=".73115"/>
<path d="m304.61 46.346s1.6999-0.02882 1.8728-0.7203c0.17287-0.69149-0.11525-1.5847-0.11525-1.5847s0.80673 0.89317 0.57624 1.5847c-0.2305 0.69149-0.45662 0.87022-1.0372 1.0084-0.3934 0.09364-0.97961-0.05762-1.2965-0.28812z" fill="#a3afb8" fill-rule="evenodd"/>
<g stroke-width="2.6822">
<path d="m301.35 44.707c2e-5 0.98336-0.78535 1.7811-1.7554 1.783-0.97007 2e-3 -1.7586-0.79261-1.7624-1.776-4e-3 -0.98335 0.77844-1.7842 1.7485-1.79s1.7616 0.7856 1.7693 1.7689" fill="#eee" stroke="#1e1e1e" stroke-linejoin="round" stroke-width=".73116"/>
<path d="m298.77 45.622s1.4216-0.0241 1.5662-0.60237c0.14457-0.57827-0.0964-1.3252-0.0964-1.3252s0.67465 0.74693 0.48189 1.3252-0.38186 0.72774-0.86741 0.84331c-0.32899 0.0783-0.81922-0.04819-1.0843-0.24095z" fill="#a3afb8" fill-rule="evenodd"/>
<path d="m301.37 46.923c2e-5 0.98336-0.78535 1.7811-1.7554 1.783-0.97007 2e-3 -1.7586-0.79261-1.7624-1.776-4e-3 -0.98335 0.77844-1.7842 1.7485-1.79s1.7616 0.7856 1.7693 1.7689" fill="#eee" stroke="#1e1e1e" stroke-linejoin="round" stroke-width=".73116"/>
<path d="m298.79 47.838s1.4216-0.0241 1.5662-0.60237c0.14457-0.57827-0.0964-1.3252-0.0964-1.3252s0.67465 0.74693 0.48189 1.3252-0.38186 0.72774-0.86741 0.84331c-0.32899 0.0783-0.81922-0.04819-1.0843-0.24095z" fill="#a3afb8" fill-rule="evenodd"/>
<path d="m301.49 50.183c2e-5 0.98336-0.78535 1.7811-1.7554 1.783-0.97007 2e-3 -1.7586-0.79261-1.7624-1.776-4e-3 -0.98335 0.77844-1.7842 1.7485-1.79s1.7616 0.7856 1.7693 1.7689" fill="#eee" stroke="#1e1e1e" stroke-linejoin="round" stroke-width=".73116"/>
<path d="m298.91 51.098s1.4216-0.0241 1.5662-0.60237c0.14457-0.57827-0.0964-1.3252-0.0964-1.3252s0.67465 0.74693 0.48189 1.3252-0.38186 0.72774-0.86741 0.84331c-0.32899 0.0783-0.81922-0.04819-1.0843-0.24095z" fill="#a3afb8" fill-rule="evenodd"/>
</g>
<g stroke-width="2.4802">
<path d="m301.67 53.645c2e-5 1.0634-0.84931 1.9261-1.8984 1.9282-1.0491 0.0021-1.9018-0.85716-1.9059-1.9206-4e-3 -1.0634 0.84184-1.9295 1.8909-1.9358 1.0491-0.0063 1.9051 0.84958 1.9133 1.913" fill="#eee" stroke="#1e1e1e" stroke-linejoin="round" stroke-width=".73115"/>
<path d="m298.88 54.635s1.5374-0.02606 1.6937-0.65143c0.15634-0.62537-0.10423-1.4331-0.10423-1.4331s0.72959 0.80776 0.52114 1.4331c-0.20846 0.62537-0.41295 0.78701-0.93805 0.91199-0.35579 0.08468-0.88593-0.05211-1.1726-0.26057z" fill="#a3afb8" fill-rule="evenodd"/>
</g>
<path d="m301.87 58.29c3e-5 1.1759-0.93911 2.1298-2.0991 2.1321-1.16 0.0023-2.1029-0.94779-2.1074-2.1237-5e-3 -1.1759 0.93085-2.1335 2.0908-2.1405 1.16-7e-3 2.1065 0.93941 2.1156 2.1153" fill="#eee" stroke="#1e1e1e" stroke-linejoin="round" stroke-width=".73115"/>
<path d="m298.79 59.385s1.6999-0.02882 1.8728-0.7203c0.17287-0.69149-0.11525-1.5847-0.11525-1.5847s0.80673 0.89317 0.57624 1.5847c-0.2305 0.69149-0.45662 0.87022-1.0372 1.0084-0.3934 0.09363-0.97961-0.05762-1.2965-0.28812z" fill="#a3afb8" fill-rule="evenodd"/>
<g stroke-width="2.3883">
<path d="m301.66 67.824c2e-5 1.1044-0.88198 2.0002-1.9714 2.0024-1.0894 0.0022-1.9749-0.89013-1.9792-1.9945-4e-3 -1.1043 0.87422-2.0037 1.9636-2.0102 1.0894-0.0065 1.9784 0.88226 1.9869 1.9866" fill="#eee" stroke="#1e1e1e" stroke-linejoin="round" stroke-width=".73116"/>
<path d="m298.77 68.852s1.5965-0.02706 1.7588-0.67648c0.1623-0.64942-0.10824-1.4883-0.10824-1.4883s0.75766 0.83884 0.54119 1.4883c-0.21647 0.64942-0.42884 0.81728-0.97413 0.94707-0.36947 0.08794-0.92001-0.05412-1.2177-0.27059z" fill="#a3afb8" fill-rule="evenodd"/>
</g>
<path d="m295.97 45.194c3e-5 1.1759-0.93911 2.1298-2.0991 2.1321-1.16 0.0023-2.1029-0.94779-2.1074-2.1237-5e-3 -1.1759 0.93085-2.1335 2.0908-2.1405 1.16-7e-3 2.1065 0.93941 2.1156 2.1153" fill="#eee" stroke="#1e1e1e" stroke-linejoin="round" stroke-width=".73115"/>
<path d="m292.89 46.289s1.6999-0.02882 1.8728-0.7203c0.17287-0.69149-0.11525-1.5847-0.11525-1.5847s0.80673 0.89317 0.57624 1.5847c-0.2305 0.69149-0.45662 0.87022-1.0372 1.0084-0.3934 0.09363-0.97961-0.05762-1.2965-0.28812z" fill="#a3afb8" fill-rule="evenodd"/>
<path d="m290.75 43.138c3e-5 1.1759-0.93911 2.1298-2.0991 2.1321-1.16 0.0023-2.1029-0.94779-2.1074-2.1237-5e-3 -1.1759 0.93085-2.1335 2.0908-2.1405 1.16-7e-3 2.1065 0.93941 2.1156 2.1153" fill="#eee" stroke="#1e1e1e" stroke-linejoin="round" stroke-width=".73115"/>
<path d="m287.67 44.233s1.6999-0.02882 1.8728-0.7203c0.17287-0.69149-0.11525-1.5847-0.11525-1.5847s0.80673 0.89317 0.57624 1.5847c-0.2305 0.69149-0.45662 0.87022-1.0372 1.0084-0.3934 0.09364-0.97961-0.05762-1.2965-0.28812z" fill="#a3afb8" fill-rule="evenodd"/>
<path d="m285.76 40.788c3e-5 1.1759-0.93911 2.1298-2.0991 2.1321-1.16 0.0023-2.1029-0.94779-2.1074-2.1237-5e-3 -1.1759 0.93085-2.1335 2.0908-2.1405 1.16-7e-3 2.1065 0.93941 2.1156 2.1153" fill="#eee" stroke="#1e1e1e" stroke-linejoin="round" stroke-width=".73115"/>
<path d="m282.68 41.883s1.6999-0.02882 1.8728-0.7203c0.17287-0.69149-0.11525-1.5847-0.11525-1.5847s0.80673 0.89317 0.57624 1.5847c-0.2305 0.69149-0.45662 0.87022-1.0372 1.0084-0.3934 0.09363-0.97961-0.05762-1.2965-0.28812z" fill="#a3afb8" fill-rule="evenodd"/>
<path d="m280.03 39.539c3e-5 1.1759-0.93911 2.1298-2.0991 2.1321-1.16 0.0023-2.1029-0.94779-2.1074-2.1237-5e-3 -1.1759 0.93085-2.1335 2.0908-2.1405 1.16-7e-3 2.1065 0.93941 2.1156 2.1153" fill="#eee" stroke="#1e1e1e" stroke-linejoin="round" stroke-width=".73115"/>
<path d="m276.95 40.634s1.6999-0.02882 1.8728-0.7203c0.17287-0.69149-0.11525-1.5847-0.11525-1.5847s0.80673 0.89317 0.57624 1.5847c-0.2305 0.69149-0.45662 0.87022-1.0372 1.0084-0.3934 0.09363-0.97961-0.05762-1.2965-0.28812z" fill="#a3afb8" fill-rule="evenodd"/>
<path d="m273.27 41.155c3e-5 1.1759-0.93911 2.1298-2.0991 2.1321-1.16 0.0023-2.1029-0.94779-2.1074-2.1237-4e-3 -1.1759 0.93085-2.1335 2.0908-2.1405 1.16-7e-3 2.1065 0.93941 2.1156 2.1153" fill="#eee" stroke="#1e1e1e" stroke-linejoin="round" stroke-width=".73115"/>
<path d="m270.19 42.25s1.6999-0.02882 1.8728-0.7203c0.17287-0.69149-0.11525-1.5847-0.11525-1.5847s0.80673 0.89317 0.57624 1.5847c-0.2305 0.69149-0.45662 0.87022-1.0372 1.0084-0.3934 0.09363-0.97961-0.05762-1.2965-0.28812z" fill="#a3afb8" fill-rule="evenodd"/>
<path d="m268.5 45.928c3e-5 1.1759-0.93911 2.1298-2.0991 2.1321-1.16 0.0023-2.1029-0.94779-2.1074-2.1237-5e-3 -1.1759 0.93085-2.1335 2.0908-2.1405 1.16-7e-3 2.1065 0.93941 2.1156 2.1153" fill="#eee" stroke="#1e1e1e" stroke-linejoin="round" stroke-width=".73115"/>
<path d="m265.42 47.023s1.6999-0.02882 1.8728-0.7203c0.17287-0.69149-0.11525-1.5847-0.11525-1.5847s0.80673 0.89317 0.57624 1.5847c-0.2305 0.69149-0.45662 0.87022-1.0372 1.0084-0.3934 0.09363-0.97961-0.05762-1.2965-0.28812z" fill="#a3afb8" fill-rule="evenodd"/>
<path d="m266.52 52.612c3e-5 1.1759-0.93911 2.1298-2.0991 2.1321-1.16 0.0023-2.1029-0.94779-2.1074-2.1237-4e-3 -1.1759 0.93085-2.1335 2.0908-2.1405 1.16-7e-3 2.1065 0.93941 2.1156 2.1153" fill="#eee" stroke="#1e1e1e" stroke-linejoin="round" stroke-width=".73115"/>
<path d="m263.43 53.707s1.6999-0.02882 1.8728-0.7203c0.17287-0.69149-0.11525-1.5847-0.11525-1.5847s0.80673 0.89317 0.57624 1.5847c-0.2305 0.69149-0.45662 0.87022-1.0372 1.0084-0.3934 0.09363-0.97961-0.05762-1.2965-0.28812z" fill="#a3afb8" fill-rule="evenodd"/>
<path d="m267.4 59.59c3e-5 1.1759-0.93911 2.1298-2.0991 2.1321-1.16 0.0023-2.1029-0.94779-2.1074-2.1237-4e-3 -1.1759 0.93085-2.1335 2.0908-2.1405 1.16-7e-3 2.1065 0.93941 2.1156 2.1153" fill="#eee" stroke="#1e1e1e" stroke-linejoin="round" stroke-width=".73115"/>
<path d="m264.32 60.685s1.6999-0.02882 1.8728-0.7203c0.17287-0.69149-0.11525-1.5847-0.11525-1.5847s0.80673 0.89317 0.57624 1.5847c-0.2305 0.69149-0.45662 0.87022-1.0372 1.0084-0.3934 0.09363-0.97961-0.05762-1.2965-0.28812z" fill="#a3afb8" fill-rule="evenodd"/>
<path d="m270.63 65.906c3e-5 1.1759-0.93911 2.1298-2.0991 2.1321-1.16 0.0023-2.1029-0.94779-2.1074-2.1237-5e-3 -1.1759 0.93085-2.1335 2.0908-2.1405 1.16-7e-3 2.1065 0.93941 2.1156 2.1153" fill="#eee" stroke="#1e1e1e" stroke-linejoin="round" stroke-width=".73115"/>
<path d="m267.55 67.001s1.6999-0.02882 1.8728-0.7203c0.17287-0.69149-0.11525-1.5847-0.11525-1.5847s0.80673 0.89317 0.57624 1.5847c-0.2305 0.69149-0.45662 0.87022-1.0372 1.0084-0.3934 0.09363-0.97961-0.05762-1.2965-0.28812z" fill="#a3afb8" fill-rule="evenodd"/>
<g stroke-width="2.8322">
<path transform="matrix(.19748 -.05291 .08437 .31486 168.37 18.75)" d="m430.63 247.41c8e-5 3.6073-2.881 6.5337-6.4395 6.5409-3.5586 7e-3 -6.4511-2.9076-6.4651-6.5149s2.8556-6.5451 6.4142-6.5664c3.5585-0.0213 6.4623 2.8819 6.4903 6.4891" fill="#eee" stroke="#1e1e1e" stroke-linejoin="round"/>
<path d="m272.7 75.423s1.0224-0.30375 0.94814-0.99973c-0.0743-0.69598-0.47997-1.5119-0.47997-1.5119s0.71991 0.73178 0.75925 1.4371c0.0393 0.70533-0.0514 0.91468-0.36737 1.1424-0.2141 0.1543-0.60838 0.10335-0.86004-0.06785z" fill="#a3afb8" fill-rule="evenodd"/>
<path transform="matrix(.19849 .049 -.07812 .31647 262.46 -25.127)" d="m430.63 247.41c8e-5 3.6073-2.881 6.5337-6.4395 6.5409-3.5586 7e-3 -6.4511-2.9076-6.4651-6.5149s2.8556-6.5451 6.4142-6.5664c3.5585-0.0213 6.4623 2.8819 6.4903 6.4891" fill="#eee" stroke="#1e1e1e" stroke-linejoin="round"/>
<path d="m326.47 74.871s1.042 0.22755 1.313-0.41779 0.30959-1.5558 0.30959-1.5558 0.27719 0.98841-0.0289 1.6251c-0.30607 0.63669-0.48659 0.77622-0.87326 0.82311-0.262 0.03177-0.5827-0.2032-0.72044-0.47462z" fill="#a3afb8" fill-rule="evenodd"/>
</g>
</g>
<path d="m297.95 33.632 0.15157 3.5619s-4.2229 0.37086-4.3955 0.75785c-0.82047 1.8389 0.9852 4.3197 0.9852 4.3197s1.4198-1.061 5.0018-1.061c3.4103-2e-6 5.1534 0.83363 5.1534 0.83363s0.90942-1.4399 0.90942-2.5009-0.37892-2.122-0.37892-2.122-1.743-0.22736-2.2735-0.22736h-1.5157l-0.15156-3.6377-3.4861 0.07579z" fill="#b3a192" fill-rule="evenodd" stroke="#000" stroke-width=".73115"/>
<g stroke-linejoin="round" stroke-width=".37259">
<path d="m303.97 39.158c7e-5 0.39944-0.33732 0.72354-0.75414 0.7244s-0.75566-0.32184-0.75737-0.72129c-2e-3 -0.39945 0.33435-0.7248 0.75116-0.72723 0.41681-0.0024 0.75698 0.319 0.76033 0.71844m1.7407 0.39357c7e-5 0.41682-0.35201 0.75502-0.78695 0.75591-0.43495 8.97e-4 -0.78854-0.33585-0.79032-0.75267-2e-3 -0.41682 0.3489-0.75634 0.78384-0.75887 0.43495-0.0025 0.78991 0.33288 0.79341 0.74969m-3.4837-0.4096c8e-5 0.39944-0.33733 0.72354-0.75413 0.7244-0.41682 8.59e-4 -0.75567-0.32185-0.75739-0.72129-2e-3 -0.39945 0.33436-0.7248 0.75116-0.72723 0.41682-0.0024 0.75698 0.319 0.76033 0.71844m-3.4932 0.04486c8e-5 0.41569-0.35103 0.75296-0.7848 0.75385-0.43376 8.96e-4 -0.78639-0.33493-0.78817-0.75062-2e-3 -0.41569 0.34795-0.75428 0.78171-0.7568 0.43375-0.0025 0.78775 0.33197 0.79123 0.74765m-1.939 0.13529c8e-5 0.41569-0.35104 0.75296-0.78481 0.75386-0.43376 8.94e-4 -0.78639-0.33493-0.78817-0.75062-2e-3 -0.41569 0.34795-0.75428 0.78171-0.7568 0.43376-0.0025 0.78775 0.33197 0.79124 0.74765m3.5592-2.1748c7e-5 0.35072-0.29616 0.63528-0.66214 0.63603-0.36596 7.53e-4 -0.66347-0.28258-0.66498-0.6333-1e-3 -0.35072 0.29358-0.63638 0.65954-0.63852 0.36596-0.0021 0.66462 0.28008 0.66756 0.63079m2e-5 -2.9506c7e-5 0.35072-0.29616 0.63528-0.66214 0.63603-0.36596 7.54e-4 -0.66348-0.28258-0.66498-0.6333-1e-3 -0.35072 0.29358-0.63638 0.65953-0.63852 0.36596-0.0021 0.66463 0.28008 0.66757 0.63079m2e-5 1.5965c7e-5 0.35072-0.29616 0.63528-0.66214 0.63603-0.36596 7.53e-4 -0.66347-0.28258-0.66498-0.6333-1e-3 -0.35072 0.29358-0.63638 0.65954-0.63851 0.36596-0.0021 0.66462 0.28009 0.66756 0.63079" fill="#f0ddcb" stroke="#121116"/>
<path d="m294.83 39.827c8e-5 0.40115-0.33875 0.72663-0.75735 0.72749-0.41859 8.63e-4 -0.75888-0.32322-0.7606-0.72436-2e-3 -0.40115 0.33578-0.7279 0.75437-0.73034 0.41858-0.0024 0.7602 0.32036 0.76356 0.7215" fill="#f0ddcb" stroke="#121116"/>
<path d="m300.53 38.975c4e-5 0.43887-0.37217 0.7949-0.83194 0.79579-0.45977 8.87e-4 -0.83349-0.35371-0.83532-0.79257-2e-3 -0.43886 0.36893-0.79629 0.82867-0.7989 0.45977-0.0026 0.83493 0.35058 0.83857 0.78943" fill="#916c68" stroke="#4d3126"/>
</g>
<g stroke-width="2.5345">
<path d="m301.29 28.407c2e-5 0.87027-0.69503 1.5763-1.5535 1.578-0.85851 0.0017-1.5563-0.70146-1.5597-1.5717-3e-3 -0.87026 0.68892-1.579 1.5474-1.5842 0.8585-0.0051 1.559 0.69526 1.5658 1.5655" fill="#eee" stroke="#1e1e1e" stroke-linejoin="round" stroke-width=".73116"/>
<path d="m299.01 29.216s1.2581-0.02132 1.386-0.53308c0.12794-0.51176-0.0853-1.1728-0.0853-1.1728s0.59705 0.66102 0.42646 1.1728c-0.17058 0.51175-0.33793 0.64403-0.76764 0.74631-0.29115 0.0693-0.72499-0.04264-0.95954-0.21323z" fill="#a3afb8" fill-rule="evenodd"/>
</g>
<g fill="#fedd00">
<g fill-rule="evenodd">
<path d="m274.98 81.335s1.3888 1.2962 1.7592 2.4536c0.37037 1.1574 0.9259 4.2591 0.9259 4.2591s14.536-4.0276 21.666-3.7036c7.1294 0.32406 23.564 3.935 23.564 3.935s0.27778-1.7592 0.60183-3.611c0.32407-1.8518 1.6666-3.8887 1.6666-3.8887s-15.694-4.9072-25.601-4.4443c-9.907 0.46294-14.861 1.5277-17.083 2.2221-2.2221 0.69442-7.6386 2.824-7.4997 2.7777z" stroke="#000" stroke-width=".32597"/>
<path d="m296.66 22.53h6.2522s-1.5427 1.0674-1.8567 2.0841c-0.27022 0.87494-0.18946 2.3114-0.18946 2.3114s1.7052 0 2.463-0.64417c0.75785-0.64417 2.3493-1.7809 2.3493-1.7809v7.9574s-1.5345-1.4839-2.463-1.9704c-1.1154-0.58438-2.2357-0.79574-2.2357-0.79574s0 1.2883 0.53049 2.0462c0.5305 0.75785 2.6525 3.6377 2.6525 3.6377l-8.9426 0.34104s2.1211-2.2366 2.9935-3.865c0.56839-1.061 0.34102-2.1599 0.34102-2.1599s-1.5157 0-2.2735 0.5305c-0.75785 0.53049-2.0841 2.122-2.0841 2.122l1e-5 -7.6543s0.56837 1.4778 1.8188 2.0462 2.4251 0.26525 2.4251 0.26525 0.24262-1.523-0.26526-2.463c-0.52361-0.96908-1.6294-2.0462-1.5157-2.0083z" stroke="#000" stroke-width=".73115"/>
<path d="m296.17 47.78s-4.4478-0.05359-8.2526-2.3043c-3.8048-2.2507-7.6422-4.608-13.29-3.2689-1.1566 0.27423-5.4124 2.1435-7.288 8.199-1.316 4.249 0.21436 9.3779 1.5541 11.682 1.3397 2.3043 3.5 4.6399 3.5 4.6399l2.2976-1.5563s-5.8512-4.9592-5.1546-11.39c0.69664-6.4306 3.9119-7.931 3.9119-7.931s3.9655-3.1081 9.2707-0.16077c5.3052 2.9473 10.503 4.287 10.503 4.287s4.8765 1.1789 5.3052 1.1253c0.4287-0.05359-2.465-3.376-2.3579-3.3225z" stroke="#121116" stroke-width=".73115"/>
<path d="m271.57 71.9-2.3633-4.6451 7.0899-2.7708s-1.7114 2.2818-2.1188 3.9117c-0.49766 1.9907-0.32597 3.6672-0.32597 3.6672s0.65194-0.48896 1.4669-1.7928c0.6184-0.98944 1.6299-4.5636 1.6299-4.5636l3.1782 10.187c0.0245 0.02727-1.6338-1.6338-2.7998-1.831-1.3144-0.22232-2.9047 0.20116-2.9047 0.20116l-1.8743 0.57045-0.97791-2.9337z" stroke="#000" stroke-width=".74973"/>
<path d="m304.19 47.696s4.4478-0.05358 8.2526-2.3043c3.8048-2.2507 7.6422-4.608 13.29-3.2689 1.1566 0.27423 5.4124 2.1435 7.288 8.199 1.3161 4.249-0.21434 9.3779-1.554 11.682-1.3397 2.3043-2.2509 3.6598-2.2509 3.6598l-2.7615-0.99176s5.066-4.5437 4.3693-10.974c-0.69663-6.4306-3.9119-7.931-3.9119-7.931s-3.9655-3.1081-9.2707-0.16076c-5.3052 2.9473-10.503 4.287-10.503 4.287s-4.8765 1.1789-5.3052 1.1253c-0.42871-0.05359 2.465-3.376 2.3579-3.3225z" stroke="#121116" stroke-width=".73115"/>
</g>
<path d="m301.89 43.295h1.857v17.317h-1.857zm-6.252-0.076h2.198v17.317h-2.198z" stroke="#121116" stroke-linejoin="round" stroke-width=".73115"/>
<path d="m305.76 39.202c1.6e-4 3.0721-2.7069 5.5643-6.0506 5.5704-3.3437 0.0062-6.0616-2.476-6.0749-5.5481-0.0133-3.072 2.6831-5.574 6.0268-5.5922 3.3437-0.01823 6.0722 2.4541 6.0986 5.5261" stroke="#121116" stroke-linejoin="round" stroke-width=".73115"/>
<g stroke="#000">
<path d="m294.32 60.467 10.426-0.08581s-1.2228 0.72939-2.274 2.5958c-1.0512 1.8664-0.901 3.0463-0.901 3.0463s1.5875-0.02145 2.703-0.83665c1.1155-0.81519 2.3598-2.3383 2.3598-2.3383l-0.0429 9.6107s-0.75084-1.2228-1.9951-1.9522c-1.2442-0.72939-3.0034-0.72939-3.0034-0.72939h-3.5611s-1.6284 0.09622-2.3598 0.57922c-1.0317 0.68131-2.3169 1.9951-2.3169 1.9951l-0.17162-9.0744s0.51486 1.5875 2.1882 2.2311c1.6733 0.64357 2.6172 0.55776 2.6172 0.55776s0-2.038-0.8581-3.0892-2.8103-2.467-2.8103-2.5099z" fill-rule="evenodd" stroke-width=".61935"/>
<path d="m300.13 68.013s1.5254 3.5594 3.2992 5.1303c1.0325 0.91443 4.1368 1.6032 5.5402 1.2449 3.154-0.80527 5.3216-3.3287 5.3216-3.3287s-0.11284 2.7645 1.8618 4.2878c1.9746 1.5233 3.5543 1.9182 5.1905 1.4669 1.6361-0.45134 6.2624-3.8928 6.2624-3.8928l0.95911 0.84627s-2.6533 2.5766-5.4419 3.9444c-1.4358 0.70423-5.7939 0.31273-7.2043-0.81563-1.4104-1.1284-2.2481-3.8622-2.2481-3.8622s-0.86832 1.7576-2.7301 2.3782c-1.8618 0.6206-4.4204 0.59369-6.796-0.10051-1.5991-0.46731-3.6758-2.6726-4.0707-3.406-0.39491-0.73344-0.28209-1.1284-0.28209-1.1284s-1.1716 3.3582-3.6108 4.2743c-2.3034 0.86518-4.9293 0.87205-7.1602 0.23053-2.2552-0.6485-2.4308-1.9096-2.4308-1.9096s-0.16925 3.5543-5.0776 4.5699c-4.9084 1.0155-8.8012-2.5952-8.8012-2.5952l0.67702-1.0155s2.7645 3.103 6.9958 2.8209c4.2314-0.28209 5.6418-5.6982 5.6418-5.6982s1.8618 2.8209 6.8266 2.8773c4.9648 0.05642 6.3752-6.4317 6.3752-6.4317l0.9027 0.11283z" fill-rule="evenodd" stroke-width=".58675"/>
<g stroke-width=".71713">
<g fill-rule="evenodd">
<path d="m287.89 70.083s0.0372-1.7279 0.40856-2.2471c0.52669-0.7363 1.2432-0.76637 1.6087-0.66392 0.45097 0.1264 0.91926 0.53624 0.84266 1.7364-0.0766 1.2002-0.40856 1.7875-0.0511 2.2471 0.35749 0.45963 0.40856 0.76606 1.098 0.66392 0.68945-0.10214 0.99587-0.33196 0.84266-0.97034s-0.35749 0.05107-0.48517-0.48517 0.6669-2.8527 0.53624-4.2899c-0.12768-1.4044-0.66392-2.528-1.7364-2.8089-1.008-0.26399-1.8641-0.25536-2.8089 0.4341-0.90619 0.66127-2.0684 2.8344-2.0684 2.8344l-0.0255 4.6474 1.8896-0.10214-0.0511-0.99587z"/>
<path d="m284.37 71.334s-0.72277-1.5699-1.2703-1.8981c-0.77652-0.46537-1.4456-0.20736-1.74 0.03229-0.36323 0.29567-0.62936 0.8582-0.0808 1.9284 0.5486 1.0702 1.0871 1.4765 0.94247 2.0405-0.14467 0.56404-0.0694 0.86542-0.74241 1.0465-0.67303 0.18112-1.0457 0.09247-1.1596-0.55407-0.11392-0.64655 0.34823-0.09565 0.25159-0.63834-0.0966-0.54269-1.7486-2.3505-2.2016-3.7207-0.44267-1.339-0.39868-2.5831 0.47298-3.2682 0.81921-0.64385 1.6078-0.97716 2.7491-0.72141 1.0947 0.2453 3.0267 1.7752 3.0267 1.7752l1.8757 4.2521-1.7737 0.65946-0.35009-0.93371z"/>
<path d="m284.01 57.571s-1.8385 3.0898-1.43 5.4645c0.40856 2.3748 2.8599 7.4818 2.8599 7.4818l0.0255 0.68945 1.3227-0.143-0.30131-0.69967s0.66065-6.1136 0.25535-8.0436c-0.30127-1.4346-2.7067-4.724-2.7323-4.7496zm2.9366 14.147s0.91866 1.0992 2.0173 1.6343c1.2002 0.58446 1.6935 0.58827 2.1705 0.22982 0.34948-0.26263 0.22982-1.3789-0.17875-1.6853-0.40856-0.30642-0.87208-0.15071-0.94481 0.15321-0.12279 0.51314-0.2902 0.47896-0.66391 0.28089-0.5457-0.28923-1.813-1.0725-1.813-1.0725l-0.58731 0.45963zm-1.4231 0.24954s-0.38668 1.3794-1.169 2.3181c-0.85462 1.0255-1.303 1.2314-1.885 1.1002-0.42646-0.0961-0.7754-1.1632-0.52857-1.6102 0.24684-0.44709 0.73343-0.49529 0.92447-0.24798 0.32255 0.41756 0.46118 0.3177 0.72071-0.01628 0.37895-0.48768 1.2132-1.722 1.2132-1.722l0.72419 0.17815z"/>
</g>
<path d="m288.99 70.863c0.0675 0.40279-1.1484 0.94269-2.7177 1.2068-1.5693 0.26406-2.8995 0.15258-2.9732-0.24918s1.137-0.94209 2.7061-1.2077c1.569-0.26564 2.904-0.15628 2.9838 0.24444" stroke-linejoin="round"/>
<g fill-rule="evenodd">
<path d="m316.01 70.779s0.64071-1.6051 1.1706-1.9611c0.75144-0.50486 1.433-0.28176 1.7394-0.05764 0.37801 0.27652 0.67285 0.82454 0.18026 1.9216-0.49259 1.0971-1.0094 1.5307-0.83581 2.0865 0.17362 0.55581 0.11399 0.86068 0.79548 1.0068 0.68149 0.14611 1.049 0.03834 1.1294-0.61323s-0.3527-0.07753-0.28423-0.62449c0.0685-0.54696 1.6249-2.4377 2.0065-3.8295 0.37292-1.36 0.26472-2.6003-0.64116-3.2394-0.85138-0.60068-1.6562-0.89281-2.7827-0.57844-1.0805 0.30151-2.9309 1.9291-2.9309 1.9291l-1.6536 4.3433 1.8054 0.56696 0.30139-0.95054z"/>
<path d="m312.28 70.716s-0.12636-1.7237-0.52409-2.223c-0.56402-0.70812-1.2811-0.70113-1.6409-0.57993-0.44384 0.14953-0.89034 0.58301-0.75184 1.7776 0.1385 1.1946 0.50035 1.764 0.16707 2.2415-0.33327 0.47749-0.36845 0.78614-1.0623 0.71975-0.69381-0.06639-1.0117-0.28007-0.89166-0.92551 0.12003-0.64545 0.35966 0.03253 0.45946-0.50958 0.0998-0.54212-0.81336-2.8145-0.75712-4.2565 0.055-1.4092 0.53245-2.5589 1.589-2.8948 0.99297-0.3157 1.8484-0.3513 2.8275 0.28843 0.93913 0.61358 2.212 2.7238 2.212 2.7238l0.26556 4.6399-1.8924-0.0044-4.4e-4 -0.99718z"/>
<path d="m316.77 57.7s-2.8053 2.2489-3.2554 4.6161c-0.45013 2.3672 0.0547 8.0096 0.0547 8.0096l-0.21785 0.65462 1.2889 0.32992-0.0368-0.7609s2.7625-5.4938 3.0597-7.4433c0.22091-1.4491-0.87831-5.3732-0.89327-5.4061zm-2.2106 14.278s0.47486 1.3516 1.3161 2.2379c0.919 0.9682 1.3797 1.1448 1.9521 0.97634 0.41938-0.12341 0.69876-1.2108 0.42359-1.641-0.27517-0.43023-0.76385-0.44694-0.93854-0.18783-0.29494 0.4375-0.43973 0.34678-0.72025 0.03024-0.40963-0.46222-1.3218-1.6401-1.3218-1.6401l-0.71119 0.2245zm-1.4203-0.26535s-0.84584 1.1562-1.9077 1.761c-1.1599 0.66066-1.652 0.69629-2.1511 0.36936-0.36569-0.23954-0.31829-1.3612 0.0696-1.6933 0.38795-0.33214 0.86054-0.20665 0.95272 0.09194 0.15564 0.50415 0.32049 0.45924 0.68065 0.23748 0.5259-0.32383 1.74-1.1872 1.74-1.1872l0.61574 0.42079z"/>
</g>
<path d="m316.79 71.906c-0.078 0.40089-1.406 0.48017-2.9683 0.17721-1.5623-0.30297-2.7689-0.87378-2.6971-1.2759 0.0719-0.40208 1.3952-0.48361 2.9577-0.18222 1.5626 0.30138 2.7744 0.87188 2.7087 1.2751" stroke-linejoin="round"/>
</g>
<path d="m274.43 81.169s0.30416 1.2774 1.0341 0.6083c0.72997-0.66913 10.767-4.6231 24.94-4.6231s23.48 3.8931 24.028 4.1364c0.54747 0.24332 0.79079 0.54747 1.2774 0 0.48664-0.54747-0.48664-1.3991-0.48664-1.3991s-9.8544-4.1973-25.244-4.1364c-15.39 0.06083-25.366 4.4406-25.366 4.4406s-0.66913 0.48664-0.18249 0.97328z" fill-rule="evenodd" stroke-width=".32597"/>
</g>
</g>
<path d="m292.4 87.065s0.45212-1.257 1.2418-1.499c0.62962-0.1929 1.6239 0.42618 1.6239 0.42618s-1.1977-0.11022-1.5725 0.10287c-0.33854 0.1925-0.44087 0.76418-0.44087 0.76418s0.25717-0.45557 1.1757-0.41148c0.91848 0.04409 1.0214 0.04409 1.0214 0.04409s-1.5578 0.11757-1.9178 0.56579c-0.36004 0.44822 1.4696 0.65396 1.4696 0.65396s-2.7996 0.01469-3.167-0.15431c-0.36739-0.169-0.60251-0.74214-1.2271-0.56579s-1.2639 0.73479-1.2639 0.73479 0.71276-1.1977 1.161-1.2051c0.44823-0.0073 0.71274-0.02939 1.1169 0.1543 0.40416 0.18369 0.77888 0.38944 0.77888 0.38944zm-10.468 2.2676s0.21188-1.319 0.94322-1.7027c0.58309-0.30599 1.6747 0.11856 1.6747 0.11856s-1.1974 0.11314-1.5263 0.39185c-0.29711 0.25178-0.29197 0.83253-0.29197 0.83253s0.1685-0.49527 1.0793-0.62178c0.91081-0.1265 1.0119-0.14552 1.0119-0.14552s-1.5092 0.40358-1.7801 0.91064c-0.27096 0.50707 1.5652 0.37096 1.5652 0.37096s-2.7486 0.53209-3.1409 0.43394c-0.39231-0.09816-0.72937-0.61794-1.3106-0.32914-0.5812 0.2888-1.1062 0.95581-1.1062 0.95581s0.47901-1.3088 0.91814-1.3989c0.43914-0.0901 0.69502-0.16067 1.1262-0.05487 0.43114 0.1058 0.83746 0.23871 0.83746 0.23871zm19.297-2.7323s0.52419-1.2287 1.3266-1.4245c0.63975-0.1561 1.5965 0.51954 1.5965 0.51954s-1.1893-0.17942-1.5758 0.0116c-0.34912 0.17257-0.48441 0.73736-0.48441 0.73736s0.28313-0.43991 1.1975-0.34268c0.91438 0.09722 1.0171 0.10319 1.0171 0.10319s-1.562 0.02712-1.9474 0.45373c-0.38541 0.42661 1.4292 0.73801 1.4292 0.73801s-2.7957-0.14752-3.1527-0.33752c-0.35699-0.19-0.55853-0.7758-1.1923-0.63593-0.63375 0.13987-1.3043 0.66034-1.3043 0.66034s0.78095-1.1544 1.2288-1.1358c0.44789 0.01863 0.71325 0.01195 1.1061 0.21875 0.39285 0.2068 0.755 0.43391 0.755 0.43391zm8.8396 0.99995s0.66398-1.1592 1.4837-1.26c0.65358-0.08038 1.5249 0.70228 1.5249 0.70228s-1.1603-0.31697-1.5664-0.17235c-0.36686 0.13065-0.56713 0.6758-0.56713 0.6758s0.33254-0.40386 1.2293-0.2006c0.89681 0.20326 0.99811 0.22116 0.99811 0.22116s-1.5544-0.15532-1.987 0.2234c-0.43256 0.37872 1.3333 0.89974 1.3333 0.89974s-2.7594-0.47274-3.0918-0.7031c-0.33237-0.23036-0.46418-0.83567-1.1099-0.77071-0.64575 0.06497-1.3724 0.50363-1.3724 0.50363s0.91032-1.0554 1.353-0.98463c0.44265 0.07077 0.70697 0.0951 1.073 0.34632 0.36599 0.25123 0.69921 0.51905 0.69921 0.51905zm8.7777 1.567s0.61848-0.88285 1.2846-0.9038c0.53109-0.01671 1.174 0.67605 1.174 0.67605s-0.90912-0.33971-1.2461-0.25325c-0.30437 0.07811-0.50524 0.50151-0.50524 0.50151s0.2968-0.30018 1.0026-0.07114c0.70574 0.22903 0.78584 0.25084 0.78584 0.25084s-1.2377-0.23869-1.6131 0.03396c-0.37532 0.27265 1.0056 0.82068 1.0056 0.82068s-2.1828-0.58202-2.433-0.79149c-0.25022-0.20946-0.31178-0.70553-0.83543-0.70063s-1.1398 0.30416-1.1398 0.30416 0.80883-0.78139 1.1594-0.6921c0.35053 0.08929 0.56114 0.1282 0.83685 0.35689 0.27569 0.22869 0.52385 0.46832 0.52385 0.46832z" fill-rule="evenodd"/>
<path d="m290.64 81.076c0.21091 1.0473-1.0211 2.1777-2.751 2.5243-1.73 0.34657-3.3023-0.22206-3.5111-1.2698-0.21089-1.0473 1.0211-2.1777 2.7511-2.5243 1.73-0.34657 3.3023 0.22206 3.5111 1.2698z" fill="#2c5234" stroke="#000" stroke-linejoin="round" stroke-width=".43535"/>
<path d="m286.72 80.905c0.0509 0.25383-0.21659 0.52144-0.59734 0.59772-0.38076 0.07628-0.73064-0.06766-0.78149-0.3215-0.0508-0.25384 0.21659-0.52144 0.59734-0.59772 0.38076-0.07628 0.73064 0.06766 0.78149 0.3215z" fill="#cecfc1"/>
<path d="m315.09 82.344c-0.319 1.0196-1.9429 1.4178-3.6262 0.88933-1.6834-0.52852-2.7882-1.7835-2.4671-2.8024 0.31901-1.0196 1.9429-1.4178 3.6262-0.88932 1.6834 0.52851 2.7882 1.7835 2.4671 2.8024z" fill="#2c5234" stroke="#000" stroke-linejoin="round" stroke-width=".43535"/>
<path d="m311.73 80.308c-0.0776 0.24699-0.44075 0.35292-0.81124 0.2366-0.3705-0.11632-0.60797-0.41084-0.53041-0.65783 0.0775-0.24699 0.44074-0.35292 0.81123-0.2366s0.60797 0.41084 0.53042 0.65784z" fill="#cecfc1"/>
<path d="m296.63 78.715h6.337v3.195h-6.337z" fill="#012169" stroke="#000" stroke-linejoin="round" stroke-width=".61935"/>
<path d="m299.3 79.395c0 0.14463-0.26964 0.26187-0.60228 0.26187-0.33265 0-0.60231-0.11724-0.60231-0.26187s0.26966-0.26187 0.60231-0.26187c0.33264 0 0.60228 0.11724 0.60228 0.26187z" fill="#707c8b"/>
<path d="m278.72 81.909 1.0475 3.09-1.9378 1.0475s-0.89035 0.62848-1.7807 0.15712c-0.89034-0.47137-1.4156-1.8831-0.94273-2.4616 0.9381-1.1477 3.6138-1.8855 3.6138-1.8331z" fill="#9f1209" fill-rule="evenodd" stroke="#000" stroke-width=".32597"/>
<path d="m277.09 84.109c3.5e-4 0.52092-0.39837 0.9434-0.89034 0.9434-0.49198 0-0.89072-0.42248-0.89036-0.9434-3.6e-4 -0.52092 0.39838-0.9434 0.89036-0.9434 0.49197 0 0.89069 0.42249 0.89034 0.9434z" fill="#8f322f"/>
<path d="m276.25 83.74c0.0274 0.16636-0.0115 0.33068-0.10194 0.43094-0.0904 0.10026-0.21868 0.12119-0.33631 0.05491-0.11764-0.06629-0.20675-0.20971-0.23371-0.37614-0.0274-0.16636 0.0115-0.33068 0.10194-0.43094 0.0904-0.10026 0.21867-0.12119 0.33631-0.05491 0.11763 0.06629 0.20674 0.20971 0.23371 0.37614z" fill="#e2a494"/>
<path d="m321.17 82.312-1.0404 2.7521 2.4668 1.2921s1.0908 0.48665 1.7788-0.11747c0.58822-0.51649 0.72158-1.7117 0.25171-2.3158-0.44492-0.57204-3.4904-1.6278-3.4569-1.611z" fill="#9f1209" fill-rule="evenodd" stroke="#000" stroke-width=".32597"/>
<path d="m324.13 84.518c0 0.33828-0.35312 0.61251-0.78871 0.61251s-0.7887-0.27423-0.7887-0.61251 0.35311-0.61251 0.7887-0.61251 0.78871 0.27423 0.78871 0.61251z" fill="#aa675d"/>
<path d="m323.37 84.426c1.9e-4 0.16202-0.0701 0.31184-0.18444 0.39291-0.1143 0.08107-0.25517 0.08107-0.36948 0-0.11429-0.08108-0.18462-0.23089-0.18444-0.39291-1.8e-4 -0.16202 0.0702-0.31183 0.18444-0.39291 0.11431-0.08108 0.25518-0.08108 0.36948 0s0.18463 0.23089 0.18444 0.39291z" fill="#e2a494"/>
<path d="m305.34 78.987c2.3e-4 0.23518-0.19952 0.42595-0.44601 0.42595s-0.44625-0.19077-0.44601-0.42595c-2.3e-4 -0.23518 0.19952-0.42595 0.44601-0.42595s0.44625 0.19077 0.44601 0.42595zm2.696 0.156c2.3e-4 0.23518-0.19952 0.42595-0.44601 0.42595s-0.44625-0.19077-0.44601-0.42595c-2.3e-4 -0.23518 0.19952-0.42595 0.44601-0.42595s0.44625 0.19077 0.44601 0.42595zm-1.3692 1.0448c2.9e-4 0.29559-0.25077 0.53537-0.56058 0.53537s-0.56087-0.23977-0.56058-0.53537c-2.9e-4 -0.29559 0.25077-0.53537 0.56058-0.53537s0.56087 0.23977 0.56058 0.53537zm1.3032 1.7622c2.3e-4 0.23518-0.19952 0.42595-0.44601 0.42595s-0.44625-0.19077-0.44601-0.42595c-2.3e-4 -0.23518 0.19952-0.42595 0.44601-0.42595s0.44625 0.19077 0.44601 0.42595zm-2.602-0.335c2.3e-4 0.23518-0.19952 0.42595-0.44601 0.42595s-0.44625-0.19077-0.44601-0.42595c-2.3e-4 -0.23518 0.19952-0.42595 0.44601-0.42595s0.44625 0.19077 0.44601 0.42595zm-13.055-2.1668c0.0533 0.22907-0.0983 0.45998-0.33843 0.51559-0.24014 0.0556-0.47778-0.08519-0.53061-0.31436-0.0533-0.22907 0.0983-0.45998 0.33843-0.51559 0.24014-0.0556 0.47778 0.08519 0.53061 0.31436zm2.662-0.45705c0.0533 0.22907-0.0983 0.45998-0.33843 0.51559-0.24014 0.0556-0.47778-0.08519-0.53061-0.31436-0.0533-0.22907 0.0983-0.45998 0.33843-0.51559 0.24014-0.0556 0.47778 0.08519 0.53061 0.31436zm-1.0792 1.3295c0.067 0.28792-0.12353 0.57816-0.42536 0.64805s-0.60052-0.10706-0.66693-0.39511c-0.067-0.28792 0.12353-0.57816 0.42536-0.64805s0.60052 0.10706 0.66693 0.39511zm1.6486 1.4198c0.0533 0.22907-0.0983 0.45998-0.33843 0.51559-0.24014 0.0556-0.47778-0.08519-0.53061-0.31436-0.0533-0.22907 0.0983-0.45998 0.33843-0.51559 0.24014-0.0556 0.47778 0.08519 0.53061 0.31436zm-2.6106 0.26036c0.0533 0.22907-0.0983 0.45998-0.33843 0.51559-0.24014 0.0556-0.47778-0.08519-0.53061-0.31436-0.0533-0.22907 0.0983-0.45998 0.33843-0.51559 0.24014-0.05561 0.47778 0.08519 0.53061 0.31436zm-11.98-0.09971c0.0853 0.21916-0.0318 0.46929-0.26161 0.5585-0.22978 0.08921-0.48504-0.01633-0.56994-0.23565-0.0853-0.21916 0.0318-0.46929 0.26161-0.5585 0.22978-0.08921 0.48504 0.01633 0.56994 0.23565zm2.5702-0.83097c0.0853 0.21916-0.0318 0.46929-0.26161 0.5585-0.22978 0.08921-0.48504-0.01633-0.56994-0.23565-0.0853-0.21916 0.0318-0.46929 0.26161-0.5585 0.22978-0.08921 0.48504 0.01633 0.56994 0.23565zm-0.88601 1.4674c0.10727 0.27545-0.04 0.58985-0.3288 0.70199-0.28881 0.11214-0.60965-0.0205-0.71637-0.29616-0.10727-0.27545 0.04-0.58985 0.3288-0.70199 0.28881-0.11214 0.60965 0.0205 0.71637 0.29616zm1.8406 1.1729c0.0853 0.21916-0.0318 0.46929-0.26161 0.5585-0.22978 0.08921-0.48504-0.01633-0.56994-0.23565-0.0853-0.21916 0.0318-0.46929 0.26161-0.5585 0.22978-0.08921 0.48504 0.01633 0.56994 0.23565zm-2.5473 0.62889c0.0853 0.21916-0.0318 0.46929-0.26161 0.5585-0.22978 0.08921-0.48504-0.01633-0.56994-0.23565-0.0853-0.21916 0.0318-0.46929 0.26161-0.5585 0.22978-0.08921 0.48504 0.01633 0.56994 0.23565zm35.116-3.6757c-0.06 0.24617-0.31798 0.3946-0.57593 0.33141-0.25794-0.06319-0.41808-0.31402-0.35755-0.56008 0.06-0.24617 0.31798-0.3946 0.57593-0.33141 0.25794 0.06319 0.41808 0.31402 0.35755 0.56008zm2.782 0.85393c-0.06 0.24617-0.31798 0.3946-0.57593 0.33141-0.25794-0.06318-0.41808-0.31402-0.35755-0.56008 0.06-0.24617 0.31798-0.3946 0.57593-0.33141 0.25794 0.06318 0.41808 0.31402 0.35755 0.56008zm-1.6968 0.74596c-0.0755 0.30941-0.39967 0.49597-0.72388 0.41655s-0.52548-0.39469-0.4494-0.70395c0.0755-0.30941 0.39967-0.49597 0.72388-0.41655s0.52548 0.39469 0.4494 0.70395zm0.90869 2.1747c-0.06 0.24617-0.31798 0.3946-0.57593 0.33141-0.25794-0.06318-0.41808-0.31402-0.35755-0.56008 0.06-0.24617 0.31798-0.3946 0.57593-0.33141 0.25794 0.06318 0.41808 0.31402 0.35755 0.56008zm-2.6373-1.0182c-0.06 0.24617-0.31798 0.3946-0.57593 0.33141-0.25794-0.06319-0.41808-0.31402-0.35755-0.56008 0.06-0.24617 0.31798-0.3946 0.57593-0.33141 0.25794 0.06319 0.41808 0.31402 0.35755 0.56008z" fill="#f5d8bc"/>
<g fill="none" stroke="#000">
<path d="m322.48 55.582s-1.2821 1.2019-2.8045 1.2019-2.4039-0.64104-2.8847-0.96155c-0.48077-0.32052 0.16027-1.2821 0.16027-1.2821" stroke-width=".74973"/>
<path d="m295.56 57.986s-2.3238-0.40064-3.2853-0.72116c-0.96155-0.32052-0.72117-0.96155-1.843-0.88142-1.1218 0.08013-2.2436 0.88142-2.0033 2.0032 0.2404 1.1218 1.0417 1.2821 1.843 1.0417 0.80131-0.24039 0.56093-1.6026-0.48077-1.5225-1.0417 0.08013-0.16025 0.96156-0.16025 0.96156" stroke-width=".68454"/>
<path d="m279.53 56.223s0.64103 0.96155 2.3238 0.80129c1.6827-0.16026 2.3238-1.0417 2.4039-1.4423 0.0801-0.40064 0-1.1218-0.32052-1.4423-0.32052-0.32052-1.4423-0.48078-1.4423-0.48078" stroke-width=".65194"/>
</g>
</g>
<g transform="matrix(1.0596 0 0 1.0596 4.8766 -7.4117)" stroke="#161111">
<path d="m219.26 166.66c1.4762-1.4526 3.6282-2.0866 5.0986-5.8872 1.2346-3.2718 2.1746-8.4405 3.0136-11.556 0.30953-1.0978 0.72407-3.2215 1.0976-4.7784 0.32662-1.3615 0.90913-2.7712 1.0753-3.3331 0.32308-1.0927 0.43188-2.3682 0.57388-3.26 0.30903-1.9405 0.5732-3.2889-0.89048-3.1444-1.529 0.15096-1.9732 0.37768-2.6035 1.2985-0.58159 0.84974-1.3297 2.0726-1.7694 3.4429-0.60092 1.9822-1.0343 3.7693-1.5693 5.1523-0.62179 1.6071-0.73646 1.3867-1.6405 3.2953-1.2486-1.6598-1.3375-2.9995-1.6458-5.3092-0.30673-2.2978-0.55944-4.7421-0.64654-7.3745-0.16382-4.9508-0.4524-10.139-0.51272-12.061-0.16223-2.5385 0.0133-6.1914-0.58202-8.0674-0.2775-0.87445-0.88744-2.0796-2.0544-2.0429-1.3536 0.01-2.217 1.0738-2.3998 2.18-0.13175 0.87414-0.19694 2.5504-0.24994 3.6824-0.077 1.645-0.0667 3.055-4e-3 4.6747 0.0688 1.7802 0.0151 7.237-0.0203 9.0121-0.0654 3.2774-0.47267 3.4583-1.081 3.4164-0.4689-0.39162-0.23161-6.6948-0.41709-12.136-0.0704-2.0644-0.12503-4.7928-0.16093-6.6882-0.029-1.533-0.0283-3.3661-0.19273-4.557-0.28065-2.0318-0.8783-3.3406-2.3522-3.3406-0.99407 0-1.8164 0.0334-2.2716 2.293-0.24534 1.2179-0.35023 4.1896-0.31683 5.8175 0.0373 1.8182 0.0447 2.89 0.0939 5.3918 0.0898 4.5708 0.48348 12.869-0.60709 13.078-0.95481-0.20459-0.81353-2.0003-0.98078-6.3422-0.0659-1.7105-0.20943-4.6376-0.3012-6.6105-0.10972-2.359-0.24064-5.7942-0.29976-7.3679-0.16084-1.4536-0.30224-3.4029-2.1316-3.2385-0.96032-0.11738-1.6645 0.61509-2.0739 3.2042-0.22801 1.4419-0.0726 7.1893 0.0145 9.1008 0.17333 3.8053 0.1183 4.7354 0.13968 7.1312 0.0208 2.3248 0.2452 5.492-0.62068 5.5468-1.0425-0.0153-0.74332-1.6952-0.91455-4.3581-0.16801-2.6129-0.27406-5.9456-0.25279-5.1806 0-1.3453-0.16617-3.3221-0.28753-4.9746-0.0949-1.2905-0.0356-2.7143-1.4354-2.6006-1.4207 0.11542-2.2928 0.59574-2.5867 3.028-0.1904 1.5756-0.24265 4.982-0.28409 6.2167 0.15272 3.1407-0.61448 9.5295-0.99471 11.612-0.10386 1.4754-0.75823 4.3281-1.0046 6.3849-0.52998 4.4265-0.74019 7.488-0.15434 10.141 0.46046 2.3149 0.78691 4.1248 1.6827 5.982 0.83192 1.7248 2.3875 3.3764 2.7296 4.7934 0.6679 2.7664 0.35549 8.1059 0.35549 10.349 0 2.2434 1.9488 2.3643 5.9831 1.4955 6.596-1.4209 10.2 1.4209 15.647-0.67303-0.69104-6.2066 0.65527-9.938 0.61982-12.181z" fill="#c8102e" stroke-linecap="round" stroke-linejoin="round" stroke-width=".94946"/>
<g fill="none">
<g stroke-width=".95">
<path d="m210.25 160.66c0.15032-7.6679 7.1049-16.029 9.7771-17.674"/>
<path d="m200.34 148.06c2.0542-0.8101 4.1871-1.3982 6.2743-2.1119 2.5543-0.72051 5.0278-1.7532 7.6637-2.1614 1.27-0.25881 4.3091-1.0669 5.6044-1.1543"/>
<path d="m196.38 167.98c0.2192 0.39 0.73719 0.4111 1.4652 0.46569 0.79999 0.0119 0.92234 0.0371 1.4287 0.034 0.89582-0.0129 1.4746-0.0137 2.3703 3e-3 0.68144-0.0215 2.9887-0.46473 4.7058-0.60288 0.96102-0.0773 1.728 0.14927 2.226 0.18287" stroke-linecap="round" stroke-linejoin="round"/>
</g>
<path d="m207.38 167.88c0.14622 0.12008 1.4491 0.11259 2.4074 0.4086 0.8459 0.26133 1.4377 0.31529 1.5928 0.37659 0.59043 0.0638 0.20066 0.37733 3.506 0.11118 2.0503 0.13101 3.8657-1.6395 4.3774-2.1175" stroke-linecap="round" stroke-linejoin="round" stroke-width=".94957px"/>
</g>
</g>
</svg>