<?xml version="1.0" encoding="UTF-8"?>
<svg width="720" height="480" version="1.1" viewBox="0 0 720 480" xml:space="preserve" xmlns="http://www.w3.org/2000/svg" xmlns:cc="http://creativecommons.org/ns#" xmlns:dc="http://purl.org/dc/elements/1.1/" xmlns:rdf="http://www.w3.org/1999/02/22-rdf-syntax-ns#"><metadata><rdf:RDF><cc:Work rdf:about=""><dc:format>image/svg+xml</dc:format><dc:type rdf:resource="http://purl.org/dc/dcmitype/StillImage"/><dc:title/></cc:Work></rdf:RDF></metadata>
<g transform="scale(.9 1)" stroke-width="1.0541">
	<rect width="800" height="480" fill="#00b140"/>
	<rect width="800" height="240" fill="#fff"/>
</g>
<g stroke="#000"><g transform="translate(-40)">
	<g stroke-width="1.1565">
		<g fill="#c8102e">
			<path d="m246.66 113.82c-25.98 3.9373-91.82 10.123-117.51 5.9057l5.0197 12.092c42.515-3.9373 83.259 9.8427 121.05-4.4994z"/>
			<path d="m145.98 143.34c-16.24-4.7793-43.107-32.62-47.535-49.493 12.695 8.7162 43.105 19.966 54.03 18.841-3.5437 2.531-12.401 9.2787-19.192 10.123 3.2498 6.1879 9.4479 14.06 12.697 20.528z"/>
		</g>
		<g fill="#c8102e">
			<path d="m198.24 134.91c4.7258 6.4679 29.526 3.7965 42.072-4.0759l-3.3953-5.4845-2.509 4.6402-3.9854-4.3581-1.0324 6.8886-6.9385-5.0615-1.1827 6.047-4.4277-5.3436-1.6225 6.6091-6.4967-5.0638-2.5089 6.8913c-1.9595-2.3247-3.0552-5.2554-3.1014-8.2954-2.5088 0.98286-4.5755 4.2168-4.8718 6.6064z"/>
			<path d="m200.31 113.96c0 1.6863 2.0667 6.6091 5.9066 8.0132 0.14789-2.1075-2.5113-7.0299-0.88638-9.1374l3.3953 3.0926 1.0343-5.9057 4.5761 3.2339 0.44177-6.8886 4.724 3.0926v-7.592c-7.6771 0.70069-17.125 9.5604-19.192 12.091z"/>
		</g>
		<path d="m679.42 190.59c-1.9927-4.4989-8.1932-9.9816-13.655-13.357 2.1316-4.9929 5.4572-12.894 8.7786-21.074-8.2672 1.6885-25.459 2.9363-35.499 1.8118 18.895-17.997 58.459-55.118 71.45-71.991-4.724 23.059-1.1803 74.802 8.2672 92.799-10.04-3.9369-21.643-12.089-28.137-21.088-3.8305 12.918-8.5289 26.996-11.13 32.759" fill="#c8102e"/>
		<path d="m310.73 91.882c1.1803 5.9062 1.4742 10.405 5.9042 12.092 4.4277 1.6885 14.171 5.0615 20.372 15.186-7.3808-1.9684-17.715-4.7811-18.601 1.9689-0.84232 6.4236 2.1155 6.234 7.0869 7.3098 6.4948 1.4063 12.695 8.9988 12.992 19.124-5.3165-3.0931-12.697-5.624-17.421-5.624-4.7239 0-6.0526 0.84245-7.2329 6.466-1.9486 9.2764 1.6249 9.843 6.0526 10.405 4.4296 0.56199 13.878 4.7811 14.468 20.248-5.0202-4.219-15.088-6.5694-21.259-7.592-3.3954-0.56207-3.9855 1.1242-4.4272 7.0299-0.44464 5.9058 0.29388 7.8746 6.1981 9.5609 5.9066 1.6885 12.697 5.9058 14.468 14.905-5.6104-2.531-14.468-1.6867-17.125-0.56255-2.6569 1.1246-4.0964 7.4096 1.514 19.501 12.075-3.8944 24.535-6.4731 37.164-7.6914 27.906-2.7977 21.259-21.37 21.259-50.617 0-29.247 61.41-61.866 154.71-113.61-22.439 54.554 8.2676 49.493 25.39 43.307 17.125-6.1879 57.279-21.934 88.575-34.871-43.107 27.558-64.956 56.805-27.163 69.741-48.421 14.622-70.86 54.554-44.287 79.864-18.12-6.113-43.232 5.4204-53.75 21.483 18.895-1.689 55.52 2.7025 77.959 8.8882 21.367 5.8904 56.64-1.0072 59.964-19.157 0.1756-0.91547 0.26544-1.8453 0.26831-2.7775 0-6.327-1.6292-11.104-4.1243-14.585-5.4876-7.6601-15.104-9.318-20.381-9.318-7.6771 0-15.648 3.0926-15.648 8.4363 0 5.3437 4.724 7.5925 14.172 7.5925 5.1657 0 13.13 0.85508 21.858-6.7108 2.4952 3.4809 4.1243 8.258 4.1243 14.585-8e-3 0.91945-0.10156 1.8362-0.28015 2.7381-8.2606 4.4595-17.497 6.8036-26.885 6.8227-18.896 0-36.609-7.3121-36.609-26.996s21.256-30.933 38.381-30.933c23.619 0 56.686 8.9988 56.686 44.993 0 45.558-62.714 66.864-99.916 66.864 6.2374 4.9843 13.262 9.6269 20.791 12.438 26.348 9.843 49.602 21.934 57.869 40.496-10.038 0-26.573-7.8742-34.25-15.749 21.259 24.748-4.5249 70.27-1.7704 85.49 2.9508 16.309 23.029 6.1856 23.029 18.841 0 11.247-11.811 9.2787-16.239 4.2172-4.43-5.0615-18.627-9.3139-25.983-4.2172-6.4944 4.4994-16.532 6.7482-20.962 2.2488-4.4277-4.4994-20.666-2.8131-27.457 3.3748-6.7906 6.1857-16.276 6.6688-19.192 1.9689-3.1223-5.033-2.3241-11.153 10.306-13.271-5.6104-5.6258-22.707 3.9901-25.658-6.6949-2.1226-7.6782 2.361-11.249 17.123-10.125-1.4765-3.6547-12.399-5.3414-10.924-12.936 1.4765-7.5925 10.01-12.292 20.078-1.1242 26.866 29.809 39.267 13.218 48.419 0.28216-2.9512-6.7505 0.29627-11.249 5.9066-15.467-2.9531-4.7816-1.1826-11.529 0.88397-16.029-4.4277-2.531-7.0845-13.78-2.3605-17.717-3.8399 0-9.7441-4.2195-9.7441-11.529-5.267 3.2019-12.02 2.5129-16.532-1.6866-5.6103 3.093-20.372 3.6551-26.869-3.0949-8.8578 3.3748-24.506 2.5305-28.637-3.9373-7.7955 1.9707-22.145-4.4994-25.096-11.529-4.5542-0.33069-8.9769-1.6751-12.945-3.935-11.808 8.4367-27.8 24.745-11.857 37.119 15.945 12.374 49.011 2.2484 49.602 33.182-7.6775-6.1857-21.849-4.4994-26.573-10.685-15.942 22.497-38.971 43.025-72.925 51.461 5.0179 3.093 14.172 3.3752 17.713 3.093 7.3623-0.5842 13.581 5.3437 7.9733 12.374-5.6104 7.0322-17.125 1.1246-23.915-4.7793-9.7722-8.5004-16.239-3.657-18.896-1.6885-2.6568 1.9684-6.2005 3.0953-10.924-1.4063-4.724-4.4994-9.154-1.4041-11.515 1.4063-3.8376 4.5698-12.695-5.9058-26.867 6.4678-6.8138 5.95-23.029-1.6862-16.535-10.405-6.7906 1.689-18.801-7.7067-8.8573-16.871 9.1536-8.4362 26.572 10.967 40.744 5.3414-3.1848-3.8601-9.8228-11.011-23.62-12.654-7.0869-0.84427-8.3411-8.6945-5.0198-14.342 4.1333-7.0299 16.831-2.2484 25.392 8.7189 6.7442 8.6394 15.648 8.7166 24.8 7.0299 6.4299-4.0827 16.387-4.2195 20.817-2.8127 0-4.2172 6.9366-7.8746 12.251-7.8746-0.29388-5.6236 1.4766-10.685 10.04-12.091 0.71292-0.11695 1.4509-0.23166 2.2126-0.29978-5.9648 0.27265-11.747-2.0978-15.803-6.4791-11.827 2.8858-24.929-2.6759-26.855-13.313-18.694-1.303-20.553-20.166-15.947-26.308 0.37518-0.50748 0.79666-0.97904 1.259-1.4086-5.5639 4.1839-12.674 6.1194-21.467 3.0728-8.2651 11.236-22.65 16.14-36.057 12.292-3.7171 5.6181-9.3791 9.6645-15.898 11.362 0.55081 6.8159-0.9191 14.538-9.9153 23.612 2.3605-12.374-14.172-16.311-10.628-36.557-1.1826 14.622-45.764 38.807-52.851 70.865 6.4967 2.8127 13.584 4.7794 18.011 3.9369 11.137-2.1205 14.762 8.9988 11.515 13.498-3.2474 4.4994-12.401 6.7478-16.239 2.8109-3.8376-3.9351-11.811 1.4063-15.648-5.9039-3.8371-7.3121-14.468-4.7811-18.895 0-4.4277 4.7793-19.192-6.1879-29.82 4.7793-3.9764 4.1025-17.419 8.4367-25.392 6.1879-7.9714-2.2506-12.695-10.125-10.038-14.342-5.3141-4.7816-5.388-10.637-0.29388-15.749-1.9211-7.1712 4.3395-21.342 14.91-15.747 6.6427 3.5138 30.188 20.107 50.708 1.1242 17.792-16.664 7.4272-30.016 18.821-31.777-1.386-6.7658 2.9535-15.184 7.6775-16.873-1.3734-2.8057-1.6227-6.0302-0.69679-9.0137-2.6831-0.20773-5.3245-0.78647-7.8486-1.7197-8.8483 2.5058-17.986 3.8457-27.181 3.9856 0 6.7477-8.2652 23.059-15.352 30.933-2.361-61.866-61.41-68.054-69.384-117.26-0.29388 7.3103-8.2672 14.622-9.1516 20.808-0.88639 6.1879-4.724 10.967-11.811 8.1568-7.0845-2.8132-8.8573-14.625-1.7704-16.311 7.0869-1.6885 5.7582-12.936 10.186-14.342s5.1662-5.9057 3.3953-11.529c-1.7728-5.6236 0.88446-12.374 2.6572-16.591 1.7704-4.2194-0.88639-11.249-7.0869-13.78-6.1986-2.531-8.2653-8.7166-5.9042-14.06-6.4948-4.4994-4.6429-14.223 4.1333-16.029 10.924-2.2506 10.628 14.902 16.829 16.873-0.884-3.3748 0.29626-9.8431 2.9535-14.062-3.5437-7.3126 0.88639-13.216 7.9709-13.216 12.401 0 8.2672 19.684 5.3141 25.872 4.1338-5.6258 10.631-12.094 15.648-7.592 5.0202 4.4967 4.2006 13.895-1.1808 17.995-4.4296 3.3748-13.581 8.7184-10.924 14.624 5.3141 8.9988 8.561 19.684 9.1535 33.464 7.3808 5.3436 12.105 11.529 12.105 16.591 4.8699 0.28217 14.199 4.131 15.5 9.5627 5.9043-0.56437 14.723 0.56433 17.271 5.7649 1.9211-0.98557 7.0428-1.3138 10.144-1.0339 0.0104-4.3926 1.5376-8.6468 4.3234-12.043-10.038-10.687-9.7437-27.558 0.59062-34.308-2.9422-7.006-1.7709-19.966 7.9709-26.716-0.2104-7.0322 1.7728-16.309 11.515-22.214-1.4766-7.5942 3.5437-17.997 9.7442-18.56-1.477-7.312-0.36119-16.337 8.1998-20.557-2.0158-2.1156-3.0641-4.9723-2.8952-7.8895-15.019 3.0926-20.888 11.847-25.677 20.01-0.59013-3.3752-1.4765-7.8742-3.5437-11.249 0 8.7166-6.7906 11.811-7.0845 23.903-5.0202-5.0615-6.7906-13.218-6.4967-18.841 0.23605-4.5017-7.6746-8.7166-5.3141-16.591 11.811 10.405 35.726-12.374 56.393-5.0614-20.372-40.776-35.134-21.093-45.468-14.06-10.334 7.0304-17.715-3.3748-16.532-10.125-13.878-3.093-30.412-2.5309-48.421 0.84427 13.285-16.593 44.582-23.903 67.611-22.217 10.038-17.715 22.145-15.184 33.953-13.498 7.7211 1.1047 16.739 1.1287 25.686 0.69889 5.6104-14.905 38.381-16.445 41.631-28.257 2.9531 2.2488 1.1594 10.712-1.7936 18.022 8.5359-2.4334 15.866-5.0325 18.326-10.147 1.4765 4.7793-0.884 17.715-4.1338 21.652 3.3676-0.89794 6.8524-1.2772 10.334-1.1246-10.334 5.6236-23.323 14.06-25.39 15.467-2.0672 1.4064-3.2498 4.2172 2.0667 7.0299-5.9066 1.1246-22.439 6.7505-29.23 2.2511" fill="#c8102e"/>
		<g fill="#c8102e">
			<path d="m86.345 167.95c7.823-5.3437 18.52-1.3932 20.814 6.4678 1.4765 5.0615-7.4917 8.82-8.2671 4.0782-1.0324-6.327-5.3141-10.264-12.547-10.546z"/>
			<path d="m117.03 151.6c9.1052-2.9829 18.164 3.721 17.995 11.88-0.10899 5.2511-9.8323 6.4019-9.1469 1.6492 0.91386-6.3446-2.0022-11.285-8.8483-13.529z"/>
			<path d="m150.89 166c8.6843 3.9567 10.203 14.788 4.0736 20.49-3.9461 3.6705-11.723-2.0059-7.733-4.9378 5.3236-3.9084 6.8836-9.3803 3.6594-15.552z"/>
			<path d="m81.733 279.66c7.5775 5.6548 18.442 2.1432 21.085-5.619 1.7012-4.9974-7.094-9.1153-8.0776-4.4087-1.3144 6.2782-5.7677 10.039-13.007 10.028z"/>
			<path d="m135.06 393.38c3.173-8.6571 14.31-11.289 20.935-6.1153 4.2632 3.3333-0.80347 11.32-4.3007 7.8657-4.668-4.6096-10.547-5.4846-16.634-1.7504z"/>
			<path d="m125.1 416.66c0.52757-9.155 13.41-14.909 21.281-11.688 5.0691 2.0745 2.5279 11.088-1.8396 8.6923-5.8256-3.1942-14.681-2.2-19.442 2.9956z"/>
			<path d="m139.1 438.27c-3.3029-8.6128 3.5598-17.369 12.128-17.362 5.5155 5e-3 6.9086 9.2412 1.9051 8.6792-6.675-0.74994-11.807 2.1228-14.033 8.6832z"/>
			<path d="m277.96 430.58c1.1409-9.1045-7.6514-16.126-15.988-14.248-5.3672 1.2104-4.4974 10.505 0.23599 8.8643 6.3186-2.1892 12.005-0.51602 15.752 5.3834z"/>
			<path d="m331.23 433.48c-1.9766-8.9744 6.1313-16.705 14.609-15.533 5.4596 0.754 5.4525 10.086 0.58301 8.8489-6.4943-1.6515-12.003 0.49121-15.192 6.6836z"/>
			<path d="m464.06 431.29c0.738-9.1441-8.3553-15.808-16.602-13.597-5.3094 1.424-4.0314 10.676 0.62759 8.8485 6.2166-2.4402 11.971-0.9964 15.974 4.7485z"/>
			<path d="m315.46 414.44c-1.412-9.0687 8.0358-16.875 16.426-15.224 5.4022 1.0646 3.9414 10.925-0.84232 9.4151-6.381-2.0172-12.015-0.18963-15.583 5.8086z"/>
			<path d="m327.82 388.35c0.52756-9.155 11.431-14.993 19.302-11.77 5.0666 2.0745 1.5533 11.457-2.8118 9.0606-5.8255-3.1969-11.73-2.4845-16.491 2.7089z"/>
			<path d="m531.11 438.26c-1.9766-8.9744 6.1308-16.706 14.609-15.533 5.4601 0.75626 5.453 10.088 0.5835 8.8508-6.4948-1.6511-12.003 0.49164-15.192 6.6818z"/>
			<path d="m663.04 433.97c2.0435-8.9609-6.0085-16.747-14.496-15.63-5.4625 0.71875-5.5245 10.05-0.64801 8.8444 6.5082-1.6068 12.003 0.57111 15.144 6.7852z"/>
			<path d="m514.12 417.46c-1.3907-9.0715 7.2049-16.311 15.591-14.64 5.3994 1.0759 4.7842 10.39 7e-3 8.8665-6.3763-2.0303-12.014-0.21615-15.597 5.7735z"/>
			<path d="m519.03 392.7c0.17822-9.1686 9.8968-14.977 17.884-12.028 5.1425 1.8985 2.9464 10.992-1.5092 8.7496-5.9436-2.9938-11.815-2.0764-16.375 3.2782z"/>
		</g>
		<g fill="none">
			<path d="m552.24 93.289c-22.439 7.3121-109.24 39.932-125.18 44.993s-24.209 6.1879-33.657 26.996"/>
			<path d="m510.32 69.103c-56.686 34.871-102.74 65.241-115.74 93.926-12.991 28.683-12.105 46.118-43.697 51.179"/>
			<path d="m259.95 268.2c14.172-15.748 43.695-34.87 72.039-35.994-5.5252 8.5547-10.268 17.59-14.172 26.996"/>
			<path d="m317.23 269.89c7.0869-8.9988 24.8-28.12 36.02-35.995-5.3141 15.187-14.171 51.181-9.4474 75.926 2.9507-23.621 15.942-60.178 29.523-80.988 10.04 23.059 23.619 55.68 23.619 76.491 2.9531-24.747-2.9512-67.492-11.808-86.051 24.209 11.809 54.325 45.555 67.317 66.366-8.8573-29.247-38.973-64.679-54.918-75.929 39.564 6.75 96.843 30.935 118.1 48.933-34.838-30.933-77.355-55.118-107.47-66.368 47.239-3.9351 135.81 6.1879 161.2 15.749-37.201-20.248-113.97-30.933-160.02-28.121 48.421-19.686 134.63-42.182 204.31-51.743-53.145 2.8108-121.64 16.311-191.91 31.495 31.296-20.248 128.14-58.491 151.17-65.241"/>
			<path d="m274.12 79.79c4.2168-13.273 21.423-16.796 35.407-20.786"/>
			<path d="m297.45 89.634c-11.808-0.84425-13.908-4.8412-7.3812-9.281 4.1338-2.8127 12.695-7.3121 18.602-7.8742-1.477-0.27992-5.6104-1.4063-7.6775-1.6863 6.2005-2.531 16.535-6.1879 20.076-9.5631"/>
			<path d="m283.72 68.261c-4.5178 0.39007-9.2602 0.74945-14.024 0.97879"/>
			<path d="m253.16 134.34c-2.8809 0.14362-5.7468 0.50554-8.5729 1.0826"/>
			<path d="m205.14 277.71c-0.11443 8.0886 2.796 15.928 8.161 21.983 4.724 5.0615 33.66 6.75 34.84-2.8127"/>
			<path d="m209.46 265.67c10.038 10.685 42.515 4.2172 42.515-3.6552"/>
			<path d="m210.05 231.36c3.5432 8.4363 41.334 16.029 41.924 6.1856"/>
			<path d="m218.02 204.65c0.29626 9.8431 34.712 16.236 35.726 8.9988"/>
			<path d="m229.54 182.43c1.4765 7.592 24.212 14.905 27.459 11.529"/>
			<path d="m239.28 163.87c1.076 5.3329 17.419 10.123 23.029 8.1546"/>
			<path d="m247.48 143.32c3.3493 3.8732 9.8484 7.4778 21.03 9.3072"/>
			<path d="m190.86 103.41c0.29388-5.9057 6.1981-6.7482 5.3141-12.654"/>
			<path d="m252.86 127.6c2.0667 3.0926 7.3807 9.5609 7.9709 14.342 2.9536-2.2506 5.3141-7.0322 6.2005-9.2806 2.8198 2.345 4.8756 5.4782 5.9042 8.9984 1.1831-3.3748 3.2498-9.2805 3.5437-12.936 4.2288 0.93768 8.175 2.865 11.515 5.6236 0.59014-3.6551-1.1803-8.4363-4.1338-10.405 3.2636 0.13562 6.51-0.54074 9.4479-1.9684-2.0667-2.8109-5.3141-6.4678-8.5615-8.1545 2.9536-0.84427 7.085-4.2168 8.8578-5.6236-2.6573-1.1242-7.3808-3.657-10.334-5.0614 1.7709-1.6885 3.2474-5.061 4.1338-7.5943"/>
			<path d="m203.85 81.9c-1.9183 0-2.8047 4.2172 0.7385 6.8891 2.5483 1.9223 2.5089 9.8431-2.0667 11.811"/>
			<path d="m272.94 141.66c-12.989 28.683-24.947 83.098-20.814 122.47"/>
			<path d="m266.15 317.98c0 5.9062 9.7442 7.0304 9.4479-7.0299"/>
			<path d="m274.71 317.98c1.1803 5.0615 11.218 6.1861 9.1512-8.7184"/>
			<path d="m270.58 321.91c0.59015 10.967 7.9709 10.405 8.561 0"/>
			<path d="m284.16 314.32c2.9511 6.75 11.218 3.3748 8.8577-11.529"/>
			<path d="m293.31 309.26c3.2493 5.6258 10.924 1.1264 11.811-8.7166"/>
			<path d="m254.93 278.05c-5.0662 5.284-10.878 17.147-3.8395 28.402 4.1358 6.6068 15.502 10.264 16.683 6.3269"/>
			<path d="m251.09 306.45c-4.5761 0.7034-11.306 10.046-7.9714 18.98 2.3634 6.327 15.945 10.125 18.011 5.485"/>
			<path d="m389.86 314.32c14.762 1.6885 34.249-7.8724 35.43-26.996"/>
			<path d="m423.52 296.32c8.2676 5.0615 25.393 6.75 32.477-6.1861"/>
			<path d="m431.19 300.26c-7.6775 16.873-14.632 34.8 1.1803 47.806 12.991 10.687 22.64-5.2444 38.384 10.687 4.7235 4.7793-0.88687 13.778-48.422 39.932"/>
			<path d="m194.99 278.75c3.1014 6.3265 2.8051 18.701-3.0991 17.012"/>
			<path d="m148.35 418.65c10.038-14.622 21.891-2.8064 30.41-5.3437"/>
			</g><path d="m226.74 84.429c-1.7728 4.0782 2.9417 9.7835 7.3808 10.266 5.1662 0.56209 12.547-2.6718 10.924-7.8742" fill="#fff"/><g fill="none">
			<path d="m221.57 84.852c2.6568-3.5161 33.659 7.5925 46.058-0.28218"/>
			<path d="m121.18 189.74c-1.1803 2.5287-0.738 9.9821 3.8399 14.06"/>
			<path d="m340.26 416.4c2.363-2.8104 11.105-5.6498 17.567-4.0759 6.3484 1.5454 17.715-0.56207 25.096-3.3752"/>
			</g><g fill="none">
				<path d="m272.94 141.66c-2.9507 27.558 3.692 69.882 20.669 88.723"/>
				<path d="m264.02 166.12c0.48581 24.522 6.7906 53.637 19.254 69.664"/>
				<path d="m257.2 192.85c2.4535 18.558 7.978 37.218 16.708 49.338"/>
				<path d="m252.92 221.02c2.9488 11.013 7.1006 21.121 12.492 28.722"/>
				<path d="m251.4 247.67c1.6593 3.5446 3.6272 6.9364 5.881 10.136"/>
				<path d="m272.35 158.81c-0.884 8.7184-6.4944 15.466-11.515 19.404"/>
				<path d="m272.94 170.9c-0.884 8.7162-7.0845 16.591-15.204 20.387"/>
				<path d="m274.71 183c-0.88638 8.7166-9.7441 19.404-19.782 24.183"/>
				<path d="m277.07 195.09c-0.884 8.7189-12.399 21.934-24.122 26.176"/>
				<path d="m280.76 207.18c-3.3953 11.812-16.977 25.592-28.933 28.685"/>
				<path d="m286.08 219.27c-0.88638 8.7162-19.044 26.433-34.692 31.495"/>
			</g><g fill="none">
			<path d="m177.72 272.98c1.9188 8.0132-4.4296 15.326-7.677 13.357"/>
			<path d="m211.53 300.82c-30.706-6.1879-53.537-16.496-66.134-40.496-3.2493-6.1856 5.3141-7.8742 4.724-13.498"/>
			<path d="m140.97 213.37c-5.3141-8.9984-6.4967-18.841-3.5436-25.027"/>
			<path d="m162.22 263.42c0 5.0633-6.3484 11.529-8.5634 9.1397"/>
			<path d="m213.3 299.7c-3.5389 8.1875 3.3052 23.822 18.324 29.198"/>
			<path d="m243.12 325.43c-1.7722 1.2622-3.0593 3.0927-3.6475 5.1874"/>
			<path d="m255.23 342.16c-2.6592 4.2195-12.991 1.1264-15.058-2.531"/>
			<path d="m213.67 388.28c-12.519 11.723-25.272 12.385-40.522 14.06-15.354 1.6885-19.634-4.9206-25.096 0.56211"/>
			<path d="m313.68 300.26c1.7732 7.8747 1.1808 15.749-5.9042 27.56-3.9115 6.5166-0.20571 13.546 0.46784 21.944"/>
			<path d="m381.67 323.04c6.7678-5.0881 11.234-13.481 13.503-19.964"/>
			<path d="m360.2 326.11c7.7003-10.035 8.902-23.617 3.083-34.848"/>
			<path d="m324.15 338.4c4.5386-6.675 7.2537-16.183 7.2537-28.581"/>
			<path d="m232.49 356.5c1.1808 5.7644 10.334 8.2954 11.811 5.4845"/>
			<path d="m305.71 288.73c0 5.6236-5.9042 9.8431-10.334 6.4678 0.59015 8.1545-5.608 10.687-10.038 6.7504 0.88641 11.529-9.1516 12.654-15.648 3.6547-7.3808 34.588-32.181 60.46-33.954 77.333-0.59014 3.9373-16.386 2.8131-12.253-8.7162"/>
			<path d="m412.89 320.51c-8.8578-1.0537-24.436-3.6461-31.218 2.5287"/>
			<path d="m416.43 346.94c-8.1861 3.0926-14.801 4.1798-20.073 3.8113"/>
			<path d="m439.02 370.54c8.1586-0.30429 16.574-5.4715 19.93-18.259"/>
			<path d="m423.21 364.07c6.8458-1.6263 12.659-6.1241 15.951-12.343"/>
			<path d="m463.37 373.38c-5.1401-1.5476-15.991-3.5892-24.357-2.8308"/>
			<path d="m434.15 392.22c3.2474-1.6885-2.0667-9.281-7.3831-9.281"/>
			<path d="m372.14 404.87c7.5182-3.0706 14.733-6.836 21.552-11.247"/>
			<path d="m414.51 390.81c4.0086 1.274 9.8901 6.1857 7.823 7.8742"/>
			<path d="m452.45 285.64c4.724 7.8742 13.579 12.936 25.39 7.8742 0.83093 2.372 3.6385 4.8059 7.1333 6.75"/>
			<path d="m517.7 283.67c5.9066 4.4994-4.4277 21.09-19.78 20.528"/>
			<path d="m600.37 385.19c2.0482 4.68 9.7441 4.2168 12.697 0 3.3721-4.819 9.4479-19.686 5.9042-49.495-3.5432-29.807-33.657-33.744-68.497-40.494-34.84-6.7477-43.697-17.435-50.782-37.118"/>
			<path d="m606.27 369.72c2.9512 4.7793 11.218 3.6552 12.399-1.1264"/>
			<path d="m607.16 353.69c4.43 2.5306 12.991 1.6863 12.695-3.9373"/>
			<path d="m604.8 335.97c3.8371 0 14.171 0.56211 13.581-3.9373"/>
			<path d="m595.05 324.44c3.2474-2.251 12.401-11.811 7.3807-14.625"/>
			<path d="m578.52 322.76c5.608-3.0949 11.808-19.124 5.0178-20.53"/>
			<path d="m551.65 319.66c8.8573-3.3752 17.125-20.81 11.22-21.934"/>
			<path d="m523.02 315.73c14.465-3.6552 18.895-22.214 13.285-23.903"/>
			<path d="m542.79 398.96c15.067 1.1486 23.325 8.7188 29.23 11.811"/>
			<path d="m539.25 246.27c13.727-1.265 27.223 18.732 45.934 33.68"/>
			<path d="m690.63 157.69c2.5828-8.7121 4.7471-16.897 5.6985-21.655"/>
			<path d="m551.33 415.78c3.524-0.55686 7.0881-0.8208 10.656-0.78919"/>
			<path d="m685.1 129.28c-1.9951 5.3834-6.284 16.34-10.559 26.873"/>
			<path d="m313.72 221.9c-26.04 8.551-53.007 24.97-70.305 55.301 9.4479 2.2488 27.753 0 36.02-2.8127 0.59064 7.3121 0.59064 16.873 0.59064 23.061 8.2671-6.1879 18.305-15.187 25.982-17.435-0.5925 7.3098-0.5925 20.245-0.5925 25.309 11.221-11.249 32.477-12.374 38.384 4.4972 4.7235-24.745 43.695-25.87 53.143-4.4972 10.631-19.686 37.793-26.998 55.508-19.686 7.6751-20.81 41.332-32.057 63.181-26.996-7.2419-9.5343-5.9479-20.076-0.0138-29.136"/>
		</g>
	</g>
	<path d="m230.23 85.391 11.581 2.0396s-8.151 10.403-11.581-2.0396z" stroke-linejoin="round" stroke-width="1.6916"/>
</g><path d="m429.34 295.48c-7.5234 15.296-24.045 11.009-37.7 12.959 19.925 11.548 40.46 14.167 61.557-5.1543-5.1223-1.3994-10.468-3.6354-15.353-9.769-2.8346 0.86205-5.6693 1.4943-8.504 1.9639z" fill="#c8102e" stroke-width="1px"/></g>
</svg>
