<?xml version="1.0" encoding="UTF-8"?>
<svg width="750" height="500" version="1.1" xmlns="http://www.w3.org/2000/svg">
 <path d="m0 0h750v500h-750z" fill="#fff" stroke-width=".86602"/>
 <path d="m547.95 334.98c12.313-5.0527 24.584-10.178 36.899-15.22-0.6503 1.8646-1.503 3.9969-3.6902 4.9383-11.354 4.6419-22.684 9.3225-34.034 13.962-0.74853 0.31989-1.4909 0.66829-2.3069 0.83745 0.74853-1.2768 1.454-2.5692 2.1748-3.854 0.15361-0.35884 0.58611-0.50191 0.9573-0.66307zm-38.342-17.566c2.6517 1.721 5.0616 3.6879 6.7518 5.8069 3.1288 4.0854 3.9356 9.3825 1.994 13.978-0.16878 0.37708-0.52459 0.65785-0.8283 0.9597 0.60129-2.5432 0.7791-5.2373-0.16262-7.7362-1.2914-3.6302-4.2148-6.6782-8.1165-8.4623 0.0665-1.5876 0.26561-3.1892 0.36196-4.5455zm-101.58-2.2106c1.6503-1.1833 3.9418-1.2976 6.0063-1.295 2.0738 0.12222 4.267 0.20029 6.0953 1.1391 0.86505 0.85291 0.0428 1.862-0.84345 2.3976-3.5952 2.1999-7.5555 4.1088-10.473 6.998-0.7914 0.74635-0.38042 1.9088 0.61974 2.3456 1.5122 0.64239 3.2638 0.67351 4.9264 0.63717 3.9479-0.18202 7.7392-1.4484 11.043-3.2531 0.92017-0.49669 1.7454-1.1156 2.6964-1.576-2.0368 2.0933-4.3253 4.0151-6.8498 5.6846-2.129 1.3548-4.5278 2.5303-7.1905 2.8839-2.095 0.15091-4.3497 0.065-6.1598-0.93877-2.0155-1.0117-2.9601-3.2766-2.2148-5.1464 0.45096-1.0506 1.2852-1.94 2.1626-2.759 2.2639-2.0336 5.0308-3.5887 7.7918-5.0892-1.8711-0.0754-3.7669-0.16116-5.6259 0.0311-1.2147 0.10396-2.0307 0.87637-2.8926 1.5032-0.26065-1.2194-0.2668-2.6654 0.9081-3.5626zm-74.09-3.0607c1.6412-0.68133 3.9051-0.58258 5.1995 0.60327 1.0828 1.0869 1.1995 2.5822 1.1198 3.9423-0.86812 0.98033-1.868 1.8828-2.5953 2.9515-1.5214 0.23922-3.1196 0.0286-4.6075 0.4082-0.74854 0.36926-1.727 0.59284-2.086 1.3366-0.46943 0.9597-0.25142 2.0258-0.0521 3.0191 0.77295 3.469 2.2025 6.8783 2.129 10.451-0.0829 1.2535-0.18087 2.5538-0.88042 3.6874-0.16263-1.9868-0.98768-3.8644-1.5859-5.7758-1.129-3.4821-2.0246-7.0551-2.1566-10.675-0.14725-1.394 0.79755-2.5927 1.7516-3.6433 1.408-1.6695 3.9326-2.1584 6.1749-2.5198-0.58283-0.45515-1.2424-0.98033-2.1043-0.879-1.2056 0.14829-2.0215 1.0038-2.6841 1.7918-0.11956-1.7394 0.44194-3.7938 2.3775-4.6988zm107.44-0.6735c0.10746-0.0935 0.24855-0.13004 0.42328-0.10657-0.638 0.61891-0.98783 1.399-1.4786 2.1012-1.3958 2.2364-3.0093 4.6108-2.6381 7.2424 0.0398 1.2352 0.8589 2.8318 2.5614 2.8214 0.83137-0.35101 1.0461-1.2508 1.4632-1.8983-0.0521 1.927-0.38658 4.2674-2.5214 5.3699-1.7731-0.24183-3.1042-1.5758-3.1748-3.0815-0.36197-4.5536 1.8866-9.0443 5.365-12.449zm-318.03-25.654c1.0154-1.5343 1.9694-3.2064 3.7456-4.2206-2.1564 3.69-4.3989 7.4296-5.3407 11.504-0.31295 1.5578-0.46943 3.3573 0.71777 4.6964 0.92325 0.83985 2.405 0.99337 3.6688 0.73331 1.9173-0.35883 2.81-2.0596 3.6014-3.4093 0.60745 1.0064-0.0215 2.0934-0.30064 3.0972-0.79447 2.1247-1.7423 4.4259-3.9356 5.8069-1.6841 1.0922-4.0983 0.65525-5.718-0.30685-2.1351-1.4146-2.1841-3.9814-1.8098-6.0591 0.84345-4.2048 3.0244-8.1082 5.3712-11.842zm156.32-16.461c0.62569-1.009 1.8529-2.2052 3.359-1.7008 1.8098 0.46297 3.9634 1.6799 3.675 3.5054-0.4846 0.62153-1.1074 1.1546-1.6564 1.7345-0.58591-0.9414-1.2424-2.1453-2.6166-2.3456-1.7883 0.4967-2.859 2.0179-3.4234 3.4664-1.1872 3.1648-1.451 6.5064-1.7823 9.7958-0.43251 0.19506-0.86504 0.38751-1.3067 0.56432 0.0123-3.0269-0.76395-6.2411-3.1596-8.5868-0.54305-0.77768-1.7485-0.38752-2.5645-0.762-1.5214-0.4628-2.0738-1.8698-2.4418-3.0737-0.18395-0.81397-0.51228-1.7918 0.12879-2.5172 1.3468-0.32771 2.4019 0.6735 3.362 1.3054 2.4724 1.992 4.1811 4.556 5.58 7.1669 0.58878-2.9152 1.2116-5.9056 2.8467-8.553zm257.2-7.989c1.8713-0.54607 3.8407 0.17159 5.3712 1.0869 2.5552 1.6018 4.5493 3.7785 6.0892 6.1163 0.82215 1.3548 1.7608 2.8397 1.4294 4.4157-0.19626 1.061-0.29449 2.1999-1.043 3.105-0.8283 0.86858-2.3834 0.78008-3.4264 0.26269-1.1902-0.57214-2.3251-1.2248-3.5706-1.7084-1.6841 3.8799-5.2332 6.9355-9.0802 9.3592-2.6043 1.6904-5.4602 3.0789-8.3527 4.3766-1.7854 0.8166-3.761 1.2535-5.675 1.7839-1.9112 0.46036-3.8559 1.0662-5.8744 0.89723 1.2731-0.0624 2.2792-0.762 3.3528-1.2613 5.5952-2.759 11.077-5.7263 16.055-9.2445 2.6443-1.94 5.3468-3.9605 7.1289-6.5454-1.1503-0.21071-2.3038-0.39273-3.4664-0.52538-0.93555-2.3067-0.94477-5.1281 1.0736-7.0369-1.0061-0.65525-1.1228-1.8437-1.2914-2.8318-0.14376-0.8607 0.19667-1.9528 1.2795-2.2495m5.0187 5.7134c0.38042 1.7084 0.49383 3.4508 0.52459 5.1879 1.5766 0.19246 3.1443 0.72288 4.7517 0.56954 0.81907-0.10135 0.78832-1.0142 0.33427-1.4486-1.494-1.7448-3.5675-3.058-5.6105-4.3089m-5.3407 2.7878c0.80678 1.2665 2.635 1.5889 4.129 1.9946 0.3068-0.8166 0.70239-1.6721 0.55207-2.5381-0.53997-0.89467-1.2731-2.0648-2.6289-2.0596-1.1718 0.50974-1.6351 1.6227-2.0522 2.6031zm-103.49-10.909c0.9294-1.0195 2.5032-1.5162 3.9878-1.5551 1.0307-8e-3 1.5307 0.93098 1.7669 1.646 0.44789 1.6878 0.52766 3.5236-0.44174 5.097 0.50306 0.30946 1.0092 0.62413 1.5245 0.93097-0.13494 1.0793-0.2301 2.1662-0.25471 3.2531-1.0246-0.46541-1.8129-1.2065-2.6902-1.8307-2.7302 3.9918-6.721 7.4531-11.693 9.4088-2.6289 1.1234-5.6382 1.6149-8.565 1.3054 5.543-1.6799 10.927-4.1036 14.948-7.8225 1.3834-1.2742 2.5737-2.6838 3.5798-4.1919-0.7791-0.70479-1.7118-1.3081-2.319-2.1325-0.4844-1.3184-0.84023-2.8941 0.15667-4.1086m1.5214 1.3003c0.40196 0.96473 1.1718 1.7606 1.9724 2.5094 0.33735-0.83482 0.7791-1.7423 0.28526-2.6005-0.75758-0.12465-1.5184-0.0544-2.2577 0.0911zm-310.9 10.449c11.123-5.9212 22.292-11.788 33.436-17.678-0.3191 2.057-1.1503 4.4364-3.4878 5.4663-10.316 5.4219-20.657 10.813-30.958 16.253-0.2668 0.11961-0.54612 0.21836-0.83752 0.29381 0.65666-1.4327 1.1566-2.9176 1.8467-4.335zm232.87-31.279c0.85583-1.0506 1.8221-2.057 2.9049-2.9515-0.79755 1.5343-0.32218 3.209 0.049 4.7771 0.42021 1.7163 0.98768 3.4014 1.6228 5.0709 0.44481 1.2587 2.1474 1.7008 3.5093 1.9478 0.816 0.22096 1.816-0.29381 1.4999-1.0845-0.75165-2.0388-1.7118-4.0178-2.81-5.9369 0.38964-1.2872 0.83137-2.5616 1.2055-3.8513 0.51536 0 1.0369 5e-3 1.5615 0.0104 0.45097 2.3846 1.7914 4.5482 3.0247 6.691 3e-3 2.3171-0.15956 4.733-1.129 6.9303-0.64723 1.5578-2.8129 2.0414-4.5614 1.9166-2.3221-0.37969-3.862-2.0777-5.2242-3.5704-0.67798 1.9581-2.5951 3.4768-4.8651 4.0906-1.9204 0.59805-4.135-0.27052-5.1657-1.7059-1.129-1.5914-1.3437-3.5132-1.2914-5.3336 0.10131-2.6031 0.69645-5.6379 3.451-7.2008 0.19319 0 0.57976 2e-3 0.77318 2e-3 -0.12264 0.0467-0.37428 0.13787-0.49691 0.18463-1.6749 2.5978-1.7793 5.8614-0.29142 8.5372 0.43251 0.8451 1.5276 1.4537 2.635 1.2561 1.3804-0.28338 2.4724-1.1156 3.4142-1.9738 0.0336-2.6032 0.0213-5.209 0.18395-7.8068zm-219.46-5.4376c2.497-0.45776 4.7702 0.86595 6.5461 2.1949 2.3773 1.9685 4.3589 4.3142 5.6136 6.9328 0.38042 0.7905 0.54899 1.6539 0.4079 2.5043-0.18109 1.1287-0.28526 2.3665-1.132 3.3052-0.99383 0.77745-2.5614 0.60848-3.6166 0.0104-1.0492-0.58762-2.1443-1.1156-3.2854-1.5629-1.7118 3.8409-5.2088 6.8783-9.0218 9.3022-2.9939 1.9192-6.2578 3.5314-9.6322 4.9176-2.4172 0.77745-4.8897 1.4459-7.399 1.9763-0.99998 0.23139-2.0399 0.2081-3.0645 0.18463 0.60129-0.11962 1.2424-0.15856 1.7914-0.42125 5.491-2.629 10.846-5.4818 15.838-8.7532 3.3712-2.3014 6.718-4.738 9.1102-7.83-1.1626-0.22357-2.3313-0.43428-3.5186-0.53042-0.93555-2.3119-0.96322-5.1255 1.0092-7.0655-0.95092-0.7048-1.089-1.8646-1.2608-2.858-0.18068-0.96263 0.39908-2.1041 1.614-2.307m4.6627 5.7549c0.44174 1.7241 0.4846 3.4952 0.56745 5.2504 1.6626 0.15855 3.3374 0.82703 5.0123 0.47844 0.77602-0.36926 0.23009-1.2143-0.17494-1.646-1.5305-1.594-3.4693-2.8658-5.4048-4.0828m-4.0829 0.74113c-0.54612 0.68655-1.181 1.477-1.0952 2.343 0.9663 1.0298 2.5982 1.4588 4.0737 1.6852 0.14416-0.49409 0.31602-0.97777 0.42943-1.4744 0.40482-1.009-0.51536-1.9139-1.2516-2.6162-0.54899-0.56433-1.681-0.58259-2.1564 0.0624zm185.22-8.4855c1.6289 1.1519 2.6197 2.8086 3.7209 4.3194 2.819 4.205 5.221 8.5995 7.5465 13.012 5.1014 9.4732 8.457 19.587 10.304 29.872 0.52151 3.1882 1.0553 6.3946 0.94785 9.624 0.30987 6.4101 1.2086 12.964 4.3651 18.864 2.3223 4.0082 6.2722 7.5652 9.3652 10.166 1.4739 0.86325 2.0979 0.65971 2.4864 0.30708 0.24032-0.21815 0.14556-3.0298 0.63633-4.3508 0.69932-2.1688 2.3008-4.0151 4.0031-5.6977 1.905-1.7683 4.0614-3.391 6.6074-4.4598 5.0983-2.1922 10.384-4.0567 15.722-5.7836 4.0185-1.2639 8.1045-2.3847 12.283-3.1985-17.932 0.10657-35.866 0.2314-53.799 0.4056 0.8958-3.6926 1.8068-7.3828 2.7302-11.07 1.9019-2.1168 4.2945-3.8566 6.6566-5.5858 10.282-7.193 22.154-12.516 34.176-17.283-1.408-1.8698-3.3651-3.6122-3.675-5.9084-0.727-3.2246 0.85275-6.4127 2.8406-9.0968 1.178-1.5238 2.2792-3.1882 4.0922-4.2363 1.819-1.0688 4.2804-1.1397 6.2701-0.37969 6.6663 2.5372 13.543 7.0045 18.626 11.016 0.50921 0.4369 1.1626 0.81398 1.4817 1.3835-1.1964 3.2844-2.4602 6.5558-3.6196 9.8535-5.3006 1.0038-10.629 1.9634-15.795 3.4066 0.52458 2.7747 1.4602 5.8016 0.0552 8.4908-0.49075-0.0572-1.1564-0.13005-1.2393-0.63978-0.19934-2.3326-1.5245-4.4546-2.8864-6.4414-6.5922 2.2001-13.169 4.4755-19.384 7.3698-5.0094 2.3587-10.089 4.9174-13.801 8.691 27.571 8e-3 55.145 8e-3 82.718 0-1.7669 3.2923-3.6566 6.5402-5.4572 9.819-18.052 3.7292-36.071 7.7152-53.584 13.016-7.3498 2.2832-14.694 4.7954-21.212 8.5192-0.67491 0.4369-1.0646 1.243-0.57361 1.8983 1.0123 1.3185 2.859 1.862 4.4081 2.6135 3.3682 1.581 7.1014 2.4418 10.77 3.3651 2.6289 0.65786 5.2578 1.3132 7.8832 1.979-0.21779 3.9448-0.2545 7.9005-0.53689 11.84-2.1505 0-4.3438-0.32249-6.5063-0.48365-4.2363-0.42647-8.5372-0.71263-12.623-1.8152-5.5646-1.4927-10.577-4.3272-14.504-7.9732-4.31-3.9319-7.4265-8.7038-9.66-13.705-3.0491-6.9303-4.7486-15.419-5.3376-22.781-0.26988-0.0311-0.33495 1.4343-0.5956 1.4109-0.76373 3.2455-1.6621 6.1262-2.9411 9.2572-0.2424 0.74374-0.88657 1.3107-1.454 1.8879-4.1044 4.0412-8.4818 7.8825-13.058 11.536-4.6842 3.7004-9.5678 7.2424-14.844 10.327-5.5492 3.2272-11.552 6.1294-18.19 7.349-3.5675 0.62674-7.623 0.74635-10.749-1.0844-3.4908-2.0231-5.1934-5.539-6.1136-8.9092-3.181 2.0466-6.3868 4.0645-9.663 6.002-2.957 1.6826-5.9019 3.4612-9.2888 4.4755-8.4668 2.6655-17.276 4.4131-26.041 6.2152-6.2854 1.2068-12.574 2.4158-18.902 3.4482 5.8622-2.8214 11.816-5.5156 17.654-8.376 15.838-7.6815 31.439-15.754 46.332-24.7 2.0307-8.2462 5.3098-16.542 11.662-23.16 0.0798-0.0182 0.2424-0.0572 0.32218-0.0754-0.50614 0.91275-0.74854 1.9139-1.27 2.8214-3.8284 5.6846-6.5492 11.968-7.5128 18.476 6.7792-4.1791 13.396-8.5605 19.623-13.325 3.8467-2.923 7.4603-6.0644 10.761-9.4342 0.90787-0.95445 2.1412-1.7734 2.4848-3.0269 0.15032-0.8157 0.0654-1.3189-0.48126-3.0098-3.8496-9.0202-9.3135-20.275-12.942-28.206 1.2424-4.0073 2.3926-8.0355 3.6473-12.04 1.6718 0.9336 2.7608 2.4002 3.951 3.7265 2.4296 3.0243 4.7147 6.1346 6.767 9.3562 1.1472 1.7709 1.365 3.8278 1.7854 5.7836-1.6472-1.2561-2.7946-2.9594-4.6228-4.0334 0.0798 0.28599 0.19011 0.56433 0.33428 0.8373 2.8926 4.8395 4.8712 10.054 6.1536 15.364 0.7914 3.1544 1.1349 6.3894 0.91425 9.6142-0.1657 3.4952-0.727 7.076-2.6197 10.23-1.681 2.8008-3.9418 5.3102-6.3039 7.7182-8.0062 7.965-17.39 14.83-26.92 21.441 0.0123 0.38491 0.52767 0.48887 0.83445 0.69958 3.4111 1.8048 7.6785 1.6227 11.488 1.061 2.8713-0.56433 5.8283-0.99338 8.457-2.1844 6.899-3.0608 12.914-7.3282 18.722-11.676 7.614-5.8744 14.786-12.154 21.626-18.671-2.2854-6.8757-4.6596-13.728-7.0768-20.57-1.313-3.573-2.5337-7.1774-4.1044-10.675-2.6043-4.6132-5.1075-9.2812-7.3774-14.017 0.91672-3.6176 2.0701-7.1958 3.0487-10.805m69.391 18.607c-0.83445 0.28077-1.5338 1.061-1.1841 1.8437 0.12879 0.59284 0.89273 0.7983 1.2944 1.2378 1.6718 1.646 3.2546 3.3598 4.7088 5.1516 3.6289-1.1182 7.3131-2.0882 10.976-3.1154-2.7269-2.2078-5.7547-4.3089-9.393-5.3075-2.0707-0.59544-4.3868-0.5226-6.4022 0.18985zm80.28-4.7536c11.175-5.8666 22.289-11.814 33.479-17.657-0.31603 1.823-0.93247 3.82-2.6995 5.0216-10.834 5.7288-21.73 11.38-32.562 17.119 0.46326-1.529 1.1933-2.9878 1.7823-4.4831zm-56.381-22.114c1.0338-0.50713 2.5491-0.47062 3.2484 0.45514 0.96323 1.2326 1.2208 2.8449 0.69953 4.2596-0.98475 2.806-3.1596 5.1905-5.5307 7.2658-2.8834 2.3872-6.3344 4.5873-10.414 5.1255 0.68414-0.71766 1.6841-1.1156 2.5645-1.6306 2.5276-1.4433 4.9602-3.0348 7.083-4.8941 1.1136-1.0922 2.319-2.2728 2.5186-3.7681 0.0767-1.2535-1.2639-2.3248-2.632-2.5329-1.994 0.29902-3.2363 1.7604-4.7026 2.7878-0.34966-0.9075 0.5859-1.5447 1.138-2.2104 1.7576-1.81 3.5276-3.7524 6.0277-4.8578zm-145.55-6.0746c3.4172-1.7865 6.767-3.6746 10.227-5.4013-0.34043 1.8437-1.0461 3.9788-3.1596 4.8968-7.5585 3.9216-15.034 7.9598-22.62 11.84 0.8466-1.4692 1.681-2.9541 2.6135-4.3844 4.2763-2.3614 8.6325-4.629 12.939-6.9512zm329.18-11.486c4.9818 2.8424 9.0892 6.8992 11.313 11.65 2.1902 4.6055 2.172 9.8325 0.40811 14.536-0.23933 0.54346-0.75166 0.95182-1.181 1.3887 0.76702-3.1934 1.0307-6.5454-0.0367-9.7125-1.5092-5.0189-5.8252-9.1875-11.074-11.71 0.26046-2.0466 0.3189-4.1062 0.57033-6.1528zm-120.04 2.0623c0.85575-0.8868 1.6903-1.7891 2.6289-2.6135-0.89272 1.7683-0.21163 3.69 0.21164 5.4818 0.48153 1.6408 0.94478 3.2974 1.6749 4.8733 0.91118 1.0117 2.5094 1.5264 3.9816 1.4875 0.68415-2e-3 1.0092-0.68133 0.77295-1.1676-0.72084-1.9763-1.6564-3.8955-2.721-5.7549 0.2055-1.3653 0.8037-2.6786 1.2239-4.0099 0.5092 0.0389 1.0276 0.0754 1.5491 0.11961 0.34044 2.4211 1.8344 4.5664 3.0062 6.7404-0.049 1.7502-0.19319 3.5106-0.59206 5.2321-0.30064 1.1989-0.82522 2.5874-2.2546 3.1283-1.2178 0.40056-2.6443 0.62414-3.8744 0.14048-1.8068-0.67872-3.0891-2.0153-4.1996-3.352-0.70239 1.8904-2.4878 3.3884-4.678 4.0516-1.8006 0.70219-3.9908-0.0337-5.1321-1.3185-1.3098-1.5162-1.5399-3.469-1.5615-5.2919 0.0736-1.7502 0.23625-3.5523 1.1257-5.1594 0.57668-1.0792 1.4694-2.1401 2.8406-2.5432-1.8283 2.5616-2.0307 5.846-0.68107 8.5972 0.38965 0.78008 1.1902 1.5343 2.2577 1.5603 1.6228-0.0702 2.8836-1.061 3.9572-1.9998-0.0246-2.2338 0.0921-4.4624 0.0952-6.6963 0.0773-0.50417-0.10377-1.1102 0.36873-1.5054zm-270.7-18.13c4.0768 2.239 7.3223 5.6457 8.874 9.5648 1.2608 3.1674 1.1718 6.6521 0.049 9.8378-0.15032 0.51756-0.61052 0.90488-1.0215 1.2846 0.8283-3.0061 0.73931-6.2646-0.74546-9.117-1.5122-2.9463-4.2854-5.3752-7.5705-6.9459 0.17801-1.5393 0.26701-3.084 0.41426-4.6234zm131.57-3.3442c0.92325-0.9699 1.7485-2.0855 2.9755-2.7929-0.80985 1.0428-0.46942 2.33-0.27603 3.4795 0.45404 2.1454 1.129 4.2569 1.9265 6.3296 0.25163 0.86595 1.3036 1.2352 2.1718 1.5682 0.78525 0.24966 1.73 0.48105 2.5276 0.1483 0.50306-0.37448 0.26681-1.0142 0.089-1.477-0.76702-1.8152-1.5522-3.6354-2.632-5.3362l1.2393-3.9579c0.53997 0.0364 1.0797 0.0677 1.6289 0.0961 0.24856 2.4368 1.8283 4.5638 2.9662 6.7509-0.0397 1.8646-0.19933 3.7446-0.67491 5.5702-0.26988 1.0767-0.85582 2.213-2.0553 2.754-1.3773 0.46297-3.0185 0.67872-4.3651 0.0364-1.5615-0.75938-2.81-1.9166-3.7884-3.1804-0.78525 1.9374-2.6717 3.4717-4.9633 4.1036-1.5766 0.50192-3.451-0.0337-4.5278-1.0922-1.3712-1.2065-1.7392-2.9541-1.8711-4.5638-0.10746-2.0701 0.089-4.205 1.043-6.1319 0.54612-1.1182 1.5214-2.1038 2.8131-2.6473-1.267 2.1325-1.9173 4.6132-1.2086 6.9692 0.31294 1.2352 0.83445 2.8112 2.457 3.1985 1.7516 0.18984 3.1443-0.93878 4.2732-1.9166 0.21123-2.6318 0.0794-5.2792 0.25122-7.908zm135.64-3.3338c5.8989-2.1636 11.798-4.348 17.832-6.2204-0.18416 1.1624-0.68107 2.4887-2.0155 3.0426-8.5672 3.0998-17.169 6.1476-25.556 9.5902-1.6657 0.78008-3.3774 1.581-4.675 2.7825 0.92633 0.86595 2.3128 1.1911 3.5644 1.581-0.0154 0.83985-0.0123 1.6799-0.0123 2.5224-1.7731-0.36405-3.5491-0.91275-4.9235-1.9607 0.0798-1.1937 0.0552-2.395 0.24855-3.5809 0.19934-1.0767 1.4968-1.5836 2.4355-2.1688 4.157-2.1947 8.6572-3.8668 13.102-5.5883zm-265.46-10.469 0.24241 0.20549c-0.53382 0.57476-0.26066 1.334-0.17494 1.9946 0.29142 1.4224 0.70855 2.8318 1.2852 4.1919 0.1901 0.60848 0.93555 0.8997 1.5705 1.1026 0.55515 0.0987 1.454 0.33032 1.6841-0.29902-0.38043-1.4744-1.2944-2.7903-1.859-4.205 0.26681-0.8166 0.39272-1.693 0.8496-2.4496 0.3068 5e-3 0.61975 0.0157 0.93248 0.0337 0.30679 1.5862 1.2793 2.9828 1.9786 4.4468-0.0397 1.5057-0.0951 3.0685-0.76395 4.4834-0.41713 0.95707-1.7454 1.2118-2.8129 1.1989-1.5615-0.18724-2.586-1.3054-3.5093-2.278-0.59514 1.4198-2.1166 2.5303-3.8897 2.7254-1.4909 0.065-2.7546-0.95445-3.1473-2.1168-0.51844-1.5368-0.4602-3.1882-0.0397-4.7356 0.32832-1.0819 0.96937-2.2521 2.2885-2.6681-1.04 1.4901-1.2975 3.3234-0.7147 4.985 0.22702 0.68654 0.64723 1.5472 1.6043 1.646 1.0612 0.0157 1.8498-0.6709 2.6074-1.2041 0.19626-1.7008-0.04-3.4171 0.20857-5.1151 0.3837-0.73071 1.1507-1.2716 1.6599-1.9424zm48.884-2.9308c0.6503 0.1483 1.1198 0.59805 1.6564 0.91793 3.2517 2.2702 5.9602 5.2218 7.2518 8.652 1.2086 3.105 1.1349 6.5143 0.0583 9.6375-0.14725 0.54085-0.55207 0.97777-0.9081 1.4302-0.0277-0.0572-0.0829-0.1742-0.11341-0.2314 0.78525-2.8864 0.66876-5.9941-0.7024-8.7405-1.4817-3.0087-4.2578-5.5-7.6072-7.0682 0.0859-1.534 0.22702-3.0683 0.36504-4.5975zm29.5-2.6784c0.82523-1.7034 2.9878-3.1335 5.2424-2.806 1.1259 0.20549 1.9142 1.0454 2.3159 1.9166 0.78833 1.7943 0.90503 3.7498 0.62877 5.6379 1.3834 1.4042 2.8864 2.8267 3.4662 4.6471 1.0736 2.395 0.11341 4.9514-0.80062 7.2632-1.1687 3.0583-3.3897 5.8355-3.8038 9.0862-0.14417 0.80355 0.22087 1.6799 1.1902 1.9581 1.5584-0.39013 1.8006-1.9607 2.1196-3.105 0.48768-0.0987 1.2516-0.14309 1.4202 0.37969 0.26681 1.4459-0.48153 2.8371-1.0859 4.1556-0.54592 1.0012-1.3036 2.1844-2.7056 2.408-1.1198 0.1742-1.9755-0.65786-2.4234-1.4198-1.2762-2.1949-0.87427-4.798 0.19319-6.9901 1.6626-3.4925 3.859-7.0084 3.6566-10.883 6e-3 -1.646-0.80985-3.2168-2.1135-4.4157-1.9478 4.4598-5.0982 8.4802-8.727 12.08-1.8772 1.9763-4.5736 3.1831-7.1474 4.387-2.3036 1.0117-4.6412 2.0077-7.0953 2.7383 4.724-2.8813 9.255-6.0306 13.175-9.6892 3.2332-3.0764 6.2087-6.5454 7.4083-10.602l-0.0798-0.22879c-1.7485-0.95707-3.8498-1.8022-4.7608-3.4925-0.38637-0.96225-0.33714-2.044-0.0734-3.0243m1.7516 0.48887c-0.45097 0.24704-0.1411 0.72027 0.22702 0.88162 1.1013 0.54347 2.2331 1.048 3.3774 1.5264-0.0277-0.97777 0.18108-2.1922-0.8283-2.8891-0.87428-0.61909-2.0707-0.0833-2.7761 0.48105zm186.75-2.1766c0.58899-0.8712 1.4999-1.9452 2.8498-1.7943 1.4325 0.27312 2.8344 0.9258 3.7148 1.9452 0.44789 0.63717 0.81908 1.6097 0.0246 2.1714-0.41712 0.34579-0.71469 0.93097-1.2301 1.1052-0.72085-0.7983-1.2793-2.2234-2.7364-2.1818-1.8252 0.56955-2.8344 2.1375-3.3806 3.6276-1.1318 3.0737-1.3619 6.314-1.7177 9.4972-0.36197 0.31728-0.8496 0.49409-1.2852 0.72027 0-3.2272-0.8835-6.6832-3.6104-9.0675-1.3129-0.13786-2.8744-0.27051-3.6104-1.3496-0.8958-1.3757-1.5399-3.0737-0.92018-4.6236 1.3896-0.2314 2.5155 0.65264 3.4603 1.3862 2.497 1.9426 4.1104 4.5144 5.5677 7.0708 0.61605-2.9025 1.2356-5.8722 2.8738-8.5065zm-355.21 1.048c0.76087-1.1391 1.6012-2.3119 2.9204-3.0426-2.1043 3.8488-4.5524 7.6718-5.3344 11.918-0.24548 1.3887-0.25471 2.9802 0.79447 4.1478 0.98175 1.048 2.7669 1.0662 4.1565 0.69959 1.5554-0.52781 2.2792-1.9426 3.0062-3.1207 0.32526 8e-3 0.39273 0.33293 0.549 0.52782-0.81908 2.7279-1.6105 5.6872-4.037 7.755-2.2546 2.0205-6.7026 0.98032-7.8098-1.529-0.8037-1.8048-0.5369-3.802-0.0644-5.6431 1.1597-4.145 3.3561-8.0228 5.8193-11.713zm211.57-4.3246c4.0431 2.343 7.359 5.7238 8.9048 9.6975 0.76702 2.0855 1.0492 4.3089 0.75165 6.483-0.22087 1.5836-0.51844 3.2272-1.5646 4.5898-0.14724-0.41603-0.049-0.84248 0.0428-1.2561 0.69624-3.1439 0.10418-6.5143-1.819-9.2812-1.5859-2.3067-3.9326-4.2413-6.6933-5.5183 0.0523-1.5758 0.23317-3.1439 0.37735-4.7145zm56.422-2.1168c1.5951 0.7022 2.6381 1.9842 3.6658 3.1857 2.5063 3.1102 4.6349 6.6029 6.5461 9.9968 0.18661 0.44808 0.1962 1.0042 0.32836 2.4964-1.1534-1.0636-2.5032-2.0908-4.2178-2.4028-0.30372 0.56954-0.30065 1.1832-0.0428 1.7656 2.227 5.7912 4.7455 11.502 6.9021 17.314 1.3742 3.7889 2.5798 7.6815 2.6258 11.671 0.0952 3.703-0.65031 7.4009-1.9386 10.932-1.2944 3.3182-3.2792 6.6078-6.5892 8.7975-2.7241 1.875-6.3591 2.6524-9.825 2.3769-4.2302-0.2679-8.2365-1.9972-11.172-4.5664-1.5676-1.2665-2.8406-2.7616-4.0339-4.2856l0.45712-0.0911c-0.12572 0.0131-0.37427 0.0389-0.49998 0.052-2.6504-3.7863-4.6167-7.9185-5.7516-12.218 0.10131-0.55651-1.1503-0.50974-1.0246 0.0442-1.6166 6.2698-4.1966 12.454-8.4668 17.795-2.494 3.0685-5.7208 5.8069-9.7245 7.427-4.362 1.745-9.5002 1.8593-14.092 0.74114-4.6136-1.1287-8.2702-4.218-10.252-7.8585-2.8713-5.2166-3.31-11.122-2.9939-16.794 0.61667-4.582 1.9663-9.063 3.2854-13.528 0.44481-1.3731 0.8406-2.8502 0.26681-4.244-0.18395-0.0807-0.54899-0.24183-0.73008-0.3225-0.61667 0.34058-1.2516 0.67611-1.7331 1.1546-3.3805 3.1622-5.3006 7.2034-6.8344 11.211-1.1595 3.2272-2.0645 6.5221-2.6718 9.8588-0.80678 5.2738-2.043 10.61-4.9051 15.389-1.5522 2.5407-3.8836 5.1801-7.3959 5.7627-3.2546 0.36926-6.7334-0.4967-9.117-2.4419-2.9204-2.3145-4.1994-5.6794-4.9694-8.9145-1.227-5.8069-0.8466-11.759-0.0767-17.59 0.51536-3.5938 1.2516-7.1617 2.1687-10.696 0.30065-0.0235 0.60437-0.0416 0.91403-0.0572-1.2147 5.9578-2.0522 12.007-1.8406 18.063 0.19011 3.4508 0.66876 6.9666 2.3221 10.16 1.1228 2.1871 3.0276 4.2232 5.675 5.1646 2.5001 0.86332 5.5859 1.0193 7.9268-0.26791 2.4203-1.347 3.5552-3.7524 4.4541-5.981 1.77-4.933 2.5522-10.064 3.9418-15.075 1.4571-5.0866 3.5522-10.035 6.1228-14.794 1.4725-2.7747 3.0952-5.5026 5.178-7.989 1.8498-2.213 3.5491-4.6419 6.1749-6.2672 0.19626 8e-3 0.58284 0.0261 0.7791 0.0337 0.48153 1.6669-0.0859 3.3936-0.17185 5.0814-0.16263 2.7878-1.3588 5.4064-2.0461 8.1082-0.85275 3.0894-1.5828 6.2048-2.3128 9.3172-1.129 4.4572-1.9327 9.159-0.51228 13.642 1.0736 3.5158 3.9356 6.6182 7.8008 8.22 2.5124 1.1208 5.3314 1.6904 8.16 1.7761 3.9754 0.34075 8.1322-0.065 11.687-1.6878 4.2854-1.8931 7.3192-5.3258 9.2858-8.9925 1.9234-3.6641 3.0216-7.6328 3.3405-11.63 0.0428-7.9395-0.60744-16.032-3.8099-23.56-0.4079-1.0402-0.9417-2.1194-0.70855-3.235 0.50613-3.0608 1.7118-6.0071 3.1258-8.844 0.089-0.3251 0.549-0.3484 0.82522-0.51495 1.5122 3.8305 2.9816 7.6868 3.899 11.658 1.1564 5.162 1.8221 10.391 2.5063 15.608 0.54304 3.7239 0.70239 7.5052 1.8037 11.156 0.91403 3.0296 2.3374 5.9941 4.5736 8.5035 2.7179 3.2012 6.7977 5.578 11.335 6.4856 3.8836 0.76463 8.031-0.21835 11.298-2.057 1.7177-0.99338 3.5001-2.6681 2.9295-4.5638-5.4387-12.129-9.9112-24.548-14.356-36.956-0.29449-1.0245-0.85575-2.005-0.94785-3.0582 0.57689-3.2815 1.9327-6.428 3.4603-9.468zm-151.96 10.194c1.859-3.5576 3.7148-7.1175 5.6136-10.66 3.6719 7.1617 6.6597 14.573 8.8988 22.148 0.26373 1.5316-0.26989 3.0711-0.2055 4.6106-1.2821-1.9296-2.7546-3.7629-4.0983-5.6613 0.34659 3.4743 0.97553 6.9303 1.3558 10.405 2.5706 20.52 4.8314 41.069 6.7608 61.642 2.2118-1.3574 3.899-3.3052 4.8468-5.4715 1.2362-2.4393 2.5706-4.8654 4.3774-7.0447 0.67798-0.7827 1.5736-1.7865 2.8867-1.5447 0.74239 0.0363 1.0952 0.71262 1.1687 1.2613 0.32833 1.9322-1.3958 3.5991-1.1013 5.5156 0.0798 1.5734 1.5307 2.923 3.2546 3.3988 2.9816 0.91275 6.221 0.50453 9.279 0.13787 1.3804-0.25748 3.1042-0.47844 3.7761-1.693-0.71777-1.9504-1.5153-3.8799-2.4203-5.7731 1.2914-2.7903 2.7669-5.5209 4.1137-8.2958 0.34658-0.65525 0.57976-1.3783 1.1503-1.9296 0.9786 3.1726 1.2239 6.4648 1.6197 9.7155 0.4079 5.2556-0.58591 10.712-3.6781 15.335-1.6657 2.3665-4.1534 4.517-7.399 5.201-2.8282 0.57476-5.9358 0.31207-8.5005-0.88425-2.9693-1.4329-5.0062-3.9501-6.0646-6.6624-1.6074 3.131-3.7209 6.0904-6.4111 8.6362 0.31294 4.0618 0.6626 8.121 0.90195 12.186 0.1778 4.5327-1.1933 8.9745-2.7792 13.265-0.76988 1.8437-1.5276 3.6978-2.4786 5.4818-8.454 11.713-19.629 22.088-33.038 29.835-8.7765 5.1099-18.485 9.0728-28.679 11.676-5.3283 1.3107-10.776 2.3795-16.319 2.7227-5.7211 0.0677-11.527-0.55911-16.875-2.3378-5.0185-1.6591-9.402-4.6808-12.215-8.5868-9.8835 0.86595-19.826 1.3418-29.764 1.3627 8.865-2.694 17.642-5.604 26.27-8.808-2.3036-9.5258-0.39888-19.348 2.4817-28.626 1.7638-5.6248 3.8486-11.21 6.4039-16.609 1.9363-4.3195 2.699-6.3056 6.397-11.402-3.8744 5.7974-4.4387 8.1832-6.1707 12.292-2.3313 6.327-4.0075 12.859-4.5014 19.478-0.48767 7.276 0.12879 14.916 4.1288 21.501 10.635-4.2154 20.988-8.9535 30.915-14.269 8.4172-4.5716 16.55-9.5595 23.939-15.278 3.5032-2.7462 6.908-5.6118 9.7852-8.847 0.8496-0.84772 0.43558-2.057 0.15955-3.0218-0.64107-1.6202-1.3681-3.2142-2.1074-4.8004-5.0308 1.7267-10.39 2.9099-15.847 2.8891-2.9755 0.0728-6.0369-0.40821-8.6018-1.7372-2.1994-1.1494-3.8313-3.0374-4.4938-5.1542-0.9171-2.7773-0.51843-5.7081 0.0307-8.5088 0.8712-4.054 2.632-8.1082 5.9786-11.176 2.3498-2.1428 5.4602-3.7916 8.9085-4.2232 3.899 0.0157 7.5705 1.628 10.353 3.8668 3.5429 2.8475 5.9602 6.5402 7.8195 10.329 3.4693-1.7137 6.8038-3.742 9.387-6.3764 2.5337-2.2338 5.1413-4.5144 8.3775-6.0149 0.80677-0.39273 2.1994-0.82703 2.7362 0.0909 0.58591 1.3627 0.0277 2.8606-0.36504 4.2154-1.043 1.9763 0.21779 4.2232 1.7762 5.734 2.1687 2.0751 5.7332 2.2754 8.7548 1.81-3.1658-27.578-6.3837-55.154-9.552-82.732-0.0644-0.92527-0.53669-1.7704-0.9417-2.6156m-43.112 84.682c-1.5522 0.56693-3.494 1.4068-3.724 2.9906 0.36504 1.2041 2.0338 1.576 3.2884 1.8333 4.0339 0.66308 8.2268 0.65021 12.258-0.0209-0.0736-0.12222-0.22703-0.36404-0.30373-0.48626-2.1012-2.0179-4.7793-3.755-7.9635-4.2648-1.1687-0.1483-2.4111-0.43168-3.5552-0.052m26.415 11.265c0.41712 5.6196-0.51229 11.302-2.6012 16.64-0.80677 1.8542-1.4786 3.8174-3.0001 5.3621-7.4818 8.4772-17.12 15.403-27.277 21.482-9.0495 5.344-18.604 10.084-28.592 14.045 1.7056 0.7048 3.497 1.2716 5.3591 1.6071 4.9879 0.93878 10.138 0.43429 15.135-0.1768 15.644-1.9868 30.375-7.7752 43.062-15.686 8.4112-5.2451 16.074-11.354 22.761-18.154 2.2362-2.4028 4.988-4.751 5.5338-7.9132-0.53382-5.3648-1.2393-10.717-1.8283-16.078-3.4785 1.1833-7.785 1.4614-10.942-0.51495-3.8314-2.4522-5.2886-6.6364-5.8928-10.501-3.304 3.763-7.1906 7.1749-11.718 9.8872zm191.52-103.58c0.86812-1.2222 1.6964-2.5718 3.1779-3.3416-2.1536 3.6563-4.3499 7.375-5.3192 11.411-0.37734 1.745-0.50613 3.8694 1.1841 5.1775 0.98152 0.40559 2.1135 0.6476 3.184 0.32771 1.957-0.37187 2.8713-2.0986 3.635-3.4976 0.21164 0.56171 0.35274 1.1441 0.12572 1.7215-0.69645 2.4289-1.6228 4.9722-3.7179 6.8107-2.359 2.1428-7.1168 0.91012-8.0152-1.8358-0.78833-2.4913-0.0675-5.1022 0.79755-7.5105 1.258-3.2248 3.0003-6.3011 4.9481-9.2632zm-248.56 6.847c2.092-3.4378 4.1014-6.9094 6.1413-10.368 3.313 7.3359 5.9358 14.898 7.755 22.6 0.11956 1.4016-0.3312 2.7982-0.47845 4.1919-1.4968-1.7163-2.3957-3.7838-3.9202-5.4974 0.83137 5.7862 1.129 11.619 1.6718 17.428 0.60437 7.5128 1.1749 15.028 1.7423 22.544 4.5431-0.645 8.6258-2.9204 11.368-6.0254 4.1258-4.6497 5.9571-10.501 6.4756-16.227-0.0338-7.3568-0.4969-14.841-3.224-21.883-0.48152-1.4408-1.3681-2.8345-1.3498-4.3611 0.32525-2.8371 1.4448-5.5572 2.6289-8.2072 0.30064-0.61891 0.4969-1.4068 1.3804-1.5914 1.3468 3.5289 2.7392 7.0551 3.635 10.69 1.3896 5.695 2.0614 11.494 2.8344 17.267 0.51535 3.4952 0.66875 7.0473 1.7118 10.472 1.3527 4.6055 4.0952 9.0938 8.6108 12.022 3.3957 2.1844 7.7332 3.6798 12.052 3.0998 3.046-0.46541 6.129-1.4927 8.2612-3.4638 0.96322-0.87375 1.6258-2.1532 1.2147-3.3494-4.362-9.5205-7.9238-19.286-11.524-29.026-1.2301-3.3884-2.4388-6.7846-3.6442-10.178-0.3435-0.86077 0.10438-1.7476 0.26989-2.5978 0.7578-2.5953 1.7392-5.1673 3.0952-7.5802 1.4756 0.60066 2.4326 1.7891 3.3957 2.8632 2.9049 3.5471 5.2209 7.4114 7.3498 11.325-0.10131 0.49931-0.19933 1.0012-0.27911 1.5057-1.0797-1.1365-2.4663-2.1558-4.2025-2.4444-0.27603 0.5565-0.26373 1.165-0.0246 1.7294 1.9327 4.9539 3.9939 9.8715 5.9602 14.815 1.6718 4.4078 3.6812 10.816 3.5675 13.554-0.35144 3.8456-0.98782 8.9445-2.3595 12.529-1.5092 3.1857-4.1376 6.9903-7.7175 8.7405-3.0706 1.5656-6.8621 1.8074-10.322 1.23-4.5554-0.77227-8.463-3.2688-11.261-6.3427-3.9326-4.3324-6.3467-9.5385-7.776-14.833-0.21471 5e-3 -0.64415 0.0208-0.85889 0.0286-1.3376 5.3258-3.3713 10.571-6.5125 15.338-2.816 4.2622-6.7088 8.2905-12.077 10.324 0.93862 13.187 1.9204 26.372 2.592 39.572 0.0982 6.509-0.21164 13.016-0.59207 19.516-6e-3 0.88425-0.44173 1.7032-0.7668 2.5303-1.0522 2.8214-2.1656 5.6274-3.3497 8.415-0.18703 0.46541-0.42943 0.92055-0.77603 1.3211-0.15339-12.428-1.3958-24.824-2.3865-37.218-0.89888-10.914-1.7975-21.829-2.6718-32.743-4.2976-0.0807-8.724-1.1468-11.896-3.7057-3.6963-2.8839-5.5831-7.042-6.4848-11.146-0.79755-3.6354-0.96631-7.362-0.63185-11.042 0.73623-4.8056 2.1872-9.5048 3.5706-14.201 0.19011-0.83985 0.32833-1.7215 0.10439-2.5668-0.0859-0.30685-0.16878-0.6709-0.58899-0.75675-0.64415-0.0702-1.1228 0.33815-1.5584 0.66829-2.4111 1.9764-3.9878 4.5327-5.365 7.0915-2.6104 5.2868-4.1473 10.922-4.9848 16.599-0.69336 3.7422-1.7056 7.4685-3.362 10.997-1.316 2.6213-2.957 5.3206-5.8099 6.964-2.4357 1.4224-5.6566 1.2483-8.322 0.43168-3.3743-1.061-5.7762-3.625-7.0522-6.4024-2.2179-4.7745-2.3621-10.001-2.227-15.064 0.31603-5.9343 1.3098-11.837 2.8406-17.631 0.28834-0.052 0.57976-0.10135 0.86812-0.1483-1.2393 6.6469-2.2485 13.388-1.6626 20.126 0.28527 2.9204 0.89888 5.8693 2.3714 8.5425 1.2516 2.2832 3.448 4.335 6.356 5.0814 2.4724 0.645 5.402 0.59284 7.506-0.8166 2.2885-1.5525 3.3712-3.9788 4.2086-6.2827 1.9694-5.8382 2.7087-11.92 4.7486-17.743 1.9786-5.7081 4.6688-11.245 7.9972-16.482 1.9296-2.7148 4.0154-5.3699 6.4388-7.7888 0.71778-0.63456 1.4386-1.5368 2.5798-1.5472 0.6257 0.34057 0.40196 1.0869 0.41714 1.6202-0.3191 2.6266-0.34966 5.3128-1.2762 7.8532-1.6934 5.214-2.8344 10.543-4.0768 15.842-0.86197 4.127-1.092 8.535 0.76988 12.493 1.3712 3.0191 4.224 5.4688 7.6658 6.8315 1.8711 0.74896 3.8928 1.2068 5.9389 1.4562-1.129-14.724-2.4111-29.44-3.5798-44.164-0.26702-2.2909-0.089-4.6547-1.1413-6.8235zm455.68 0.0572c1.8436-3.7083 3.5491-7.4607 5.4142-11.162 2.859 7.986 5.6504 15.996 7.9815 24.104 0.34965 1.3964 0.80677 2.7825 0.9786 4.205-0.2424 1.126-0.64722 2.2312-0.68106 3.3884-1.0184-1.6643-2.043-3.3234-3.0768-4.9774 1.3006 20.744 2.8711 41.478 4.6257 62.201 0.54304 6.665 1.3376 13.317 1.6258 19.995 0.52767 12.37 0.0184 25.009-4.4141 36.901-1.6657 4.2985-3.7853 8.4878-6.4786 12.399-3.6196 5.0553-8.994 9.042-14.906 12.105-10.528 5.3699-22.577 8.163-34.608 9.8872-0.68106 0.21071-0.95707-0.46036-1.3437-0.76463 10.733-4.3818 21.052-9.531 30.685-15.481 4.816-3.0582 9.531-6.28 13.583-10.066 4.6442-4.4338 8.1472-9.7725 9.7395-15.566 1.7454-5.8251 1.1441-11.887 0.7608-17.816-1.0061-13.668-2.2516-27.323-3.313-40.989-1.6348-21.058-3.2823-42.12-4.9204-63.178-0.34658-1.4797-1.4356-2.7488-1.9386-4.1894-0.13514-0.35344 0.1778-0.67072 0.28506-0.99585zm-27.188 3.6148c6.2732-5.5833 12.356-11.32 18.384-17.098 0.26701 5.1932-2.8836 9.9675-6.4019 14.024-1.8834 2.3587-4.54 4.1243-6.9296 6.0852-1.1441 0.879-2.2546 1.7839-3.3528 2.6992 0.31602 1.3887 0.79755 2.7564 0.97553 4.166-0.0921 1.3081-0.34044 2.6084-0.52459 3.9112-1.3527-1.7996-2.319-3.8072-3.8651-5.4922 0.68107 5.8901 1.0123 11.806 1.4756 17.712 1.2086 17.34 2.3159 34.683 3.359 52.03-0.0613 0.44732 0.40196 0.7307 0.69933 1.048 4.4633 4.2076 8.9085 8.4308 13.086 12.846 3.2823 3.703 6.3896 7.5308 9.0248 11.596 3.451 5.3206 6.1841 11.084 6.9909 17.158 0.43866 3.82 0.22086 7.7625-1.2454 11.421-2.5841-10.024-7.3389-19.139-12.881-25.461-4.6627-5.3856-9.7628-10.662-14.911-15.718 0.35888 6.1839 0.71777 12.37 0.9969 18.557 0.27296 7.9808-0.0737 15.964-0.4725 23.938 3e-3 1.511-0.80063 2.8917-1.2147 4.335-1.1995 3.2403-2.1656 6.5584-3.7024 9.6998-0.24548-7.3646-0.53997-14.737-1.0646-22.094-0.9417-13.177-1.9324-26.348-2.8221-39.525-0.13187-1.0376-0.0644-2.096-0.29757-3.1154-3.3867-3.3573-7.0432-6.5143-10.58-9.7545-6.2302-5.5183-12.525-10.984-19.059-16.243 1.2393 13.765 2.5214 27.526 3.6809 41.296 0.4969 6.2516 1.1534 12.503 1.2239 18.773 0.089 5.4532 0.0246 10.909-0.11956 16.36 0.0185 3.4404 0.0737 6.9953-1.365 10.267-2.129 4.0516-5.9481 7.4348-10.552 9.5228-3.5952 1.6175-7.6598 2.4783-11.727 2.507-2.7454 0.052-5.4756-0.56692-7.902-1.6306-4.2486-2.0309-7.2793-5.4948-9.2302-9.2242-1.3373-2.5667-2.2975-5.279-2.816-8.0535-0.30065-1.2144-0.61954-2.6187-1.8988-3.3779-1.0184-0.58258-2.2362-0.117-3.221 0.27313-2.3957 1.0819-4.7024 2.3872-6.4358 4.1841-5.6444 5.7574-8.3288 13.106-10.01 20.338-0.82215 3.1204-2.1258 6.2229-4.4143 8.7998-1.6595 1.8358-4.0291 3.5939-6.8344 3.6406-2.197 0.0366-4.3161-0.75675-6.2762-1.5784-4.3376-1.94-7.3465-5.4968-9.138-9.294-0.47878-1.0147-1.0633-1.8586-2.0026-5.4539-1.0129-3.8764-1.3627-9.7642-0.96998-15.756 0.19011-0.57997-0.51843-0.7905-0.90787-1.113-1.546-1.1234-2.1779-2.9073-2.1566-4.5873-0.0429-6.1657 1.0123-12.438 4.0737-18.079 2.4817-4.6523 6.1995-8.7142 9.819-12.76 0.34043-0.43689 0.9417-0.78533 1.1074-1.295-2.2546-2.1818-4.6352-4.2726-7.0401-6.3348-1.3712-1.3444-3.0399-2.4368-4.3897-3.7942-5.0736-4.6628-10.061-9.39-15.046-14.121 0.47558 6.9199 0.83752 13.845 1.2454 20.77 0.30987 6.4127 0.83422 12.823 0.727 19.244 0.0215 5.7236-0.28218 11.442-0.55822 17.158-0.0154 1.4251-0.69317 2.7514-1.1226 4.1088-1.2087 3.3468-2.3008 6.7326-3.7671 10.01-0.27296-2.7097-0.10726-5.4376-0.30987-8.1495-0.55515-13.53-1.8037-27.029-2.6902-40.544-0.75465-10.34-1.4204-20.687-2.2239-31.022-3.322-3.4952-6.8284-6.8783-10.114-10.407-3.8467-4.114-7.6905-8.2568-10.911-12.748-4.6228-7.0525-9.813-13.9-16.221-19.892-0.36504-0.2912-0.25163-0.72548-0.24855-1.0973 0.22087-3.8773 0.3958-7.755 0.62261-11.632 4.5616 2.5172 8.9115 5.3075 13.093 8.2642 3.2394 2.3691 6.3224 4.9098 8.9452 7.7835 1.3529 1.3574 2.6012 3.0894 2.1474 4.9435-1.5399-0.51755-3.1319-0.93098-4.589-1.6018-0.58591-0.27313-1.2239-0.44732-1.8804-0.53042-0.0952 1.0844 0.77602 1.94 1.4294 2.7929 4.7517 5.9006 9.7088 11.676 14.794 17.372 0.65338 0.7307 1.3742 1.4277 1.8772 2.2495-0.32218-6.678-0.92325-13.348-1.3498-20.024-0.72085-10.308-1.4602-20.614-2.181-30.922-0.13186-1.5394-0.0428-3.1283-0.77295-4.5769-0.35273-0.57736 0.16878-1.1052 0.45713-1.6045 1.7454-2.8606 3.4326-5.7496 5.089-8.652 0.0798-0.20288 0.46326-0.72548 0.57975-0.22358 3.1381 6.9146 5.58 14.056 7.3836 21.303 0.55514 1.7345-0.12879 3.5028-0.33429 5.2373-1.1718-1.9634-2.5001-3.854-3.8007-5.7574 1.6657 18.102 2.632 36.248 3.8805 54.37 0.84345 1.2015 2.1382 2.1532 3.1689 3.2507 9.954 9.7312 20.289 19.173 30.617 28.616 7.6748-7.2241 15.427-14.391 23.206-21.535 0.33736-0.26529 0.56746-0.59022 0.4479-0.99337-2.3405-22.533-4.6842-45.069-7.0278-67.602-0.29757-2.278-0.2178-4.6236-1.227-6.7872 1.9173-3.4925 4.0185-6.9146 5.9235-10.415 1.043 1.8385 1.7608 3.802 2.5829 5.7212 1.9324 4.7823 3.6044 9.6428 4.9264 14.57 0.27603 1.1104 0.73008 2.2312 0.549 3.3806-0.13803 1.0376-0.30681 2.0727-0.43867 3.1128-1.2821-1.8358-2.5122-3.6979-3.8038-5.5287 1.8332 18.148 3.6942 41 5.3589 57.84 8.0648-7.2632 16.065-14.581 24.166-21.813 0.88965-0.85815 1.9019-1.6253 2.721-2.5354-3.9418-4.491-7.62-9.1432-11.289-13.796-1.276-1.5316-2.267-3.2116-3.4846-4.7745-2.5645-3.3703-5.1842-6.7794-8.706-9.4972-0.3068-4.3792-0.47251-8.769-0.69337-13.156 8.2702 6.1268 16.672 12.134 24.71 18.484 0.7701 0.58519 1.3834 1.3028 1.8129 2.1038-0.72393-6.8522-1.3865-13.707-2.0707-20.562-0.0829-0.62935-0.0583-1.2846-0.36811-1.8724-0.2055-0.60327-0.77318-1.2483-0.31296-1.8646 1.9019-3.3155 3.6963-6.6754 5.5769-10.001 3.2915 6.6052 5.856 13.466 7.887 20.424 0.20857 0.97777 0.71162 1.9374 0.55822 2.9463-0.15032 1.113-0.23932 2.2312-0.38944 3.3442-1.1626-1.6384-2.3252-3.2766-3.4756-4.9176-0.19934-0.26009-0.38657-0.52016-0.55515-0.78533 1.049 7.8405 1.7423 15.712 2.5614 23.571 6.0584-5.4506 12.28-10.768 18.547-16.05 2.7915-2.239 5.6872-4.387 8.3618-6.73-0.25163-3.0426-0.39581-6.0904-0.67799-9.1305-0.0521-0.96472-1.0982-1.9374-0.36504-2.8606 1.9786-3.1881 3.8528-6.4258 5.6996-9.6735 2.1629 4.2131 3.6231 8.6655 5.1877 13.058m-36.087 38.196c0.0952 1.23 0.21779 2.46 0.34966 3.6874 1.9694 2.0622 3.9694 4.1062 6.0492 6.0904 7.9298 7.5885 16.132 14.966 24.178 22.463-1.2454-18.544-2.6443-37.085-3.8805-55.632-9.0765 7.6508-17.979 15.447-26.697 23.391m-17.126-16.82c2.543 3.3703 5.1903 6.691 8.0122 9.8978-0.22702-2.9724-0.56746-5.9421-0.87427-8.9092-0.1534 0.26269-0.31911 0.52538-0.4479 0.79313-1.9173-1.1857-4.2578-2.1166-6.6903-1.7813m-16.301 47.968c-1.6442 1.6408-3.4754 3.1544-5.0216 4.8602 0.36504 5.2582 1.1564 10.503 1.6442 15.759 0.23933 8.688-1.4632 17.909-7.764 25.019 0.18109-1.1312 0.0952-2.2754 0.11054-3.4144-9e-3 -3.8981 0.1846-7.7962 0.16273-11.697-0.0209-3.7372 0.0584-3.4808-0.11361-11.211-0.0719-3.2276-0.54216-5.7877-0.84967-8.0588-2.1994 1.9712-4.2945 4.0256-6.4879 6.002-4.3161 4.088-8.9048 7.9575-13.328 11.96 4.4938 4.1036 7.3131 9.5048 8.04 15.062 0.73316 5.9108-1.003 12.196-5.5798 16.792-4.037 4.0282-9.828 6.5714-15.844 7.7415-2.8221 0.53042-5.8376 0.89467-8.6385 0.0937 0.34966 2.4808 0.78832 4.9539 1.3742 7.4036 1.0061 4.1295 2.3159 8.298 4.9143 11.936 1.3896 1.8593 3.2946 3.6615 5.9143 4.2076 2.8007 0.57736 5.6503-0.61371 7.62-2.2468 1.7546-1.334 2.5676-3.2688 3.3069-5.1099 2.2239-5.4219 2.9755-11.247 5.9174-16.461 2.0645-4.1374 4.6873-8.1525 8.4728-11.341 1.9632-1.7319 4.2209-3.209 6.586-4.5249 1.6289-0.82703 3.6014-1.5162 5.5184-1.0323 1.8252 0.45514 3.0553 1.8204 3.8987 3.1959 1.9204 3.0972 2.4203 6.6391 3.9754 9.8588 1.1382 2.6602 2.6473 5.3622 5.3283 7.1565 2.7086 1.8127 6.2794 2.369 9.657 2.2468 5.8959-0.21323 15.592-4.2867 16.083-5.4376 0.51001-1.1936-0.83655-10.234-1.3619-15.346-2.5666-24.971-5.0216-49.95-7.5308-74.923-0.0859-0.68654-0.81292-1.1519-1.1718-1.7345-8.427 7.632-16.596 15.465-24.832 23.243m-38.418 35.827c-1.7638 1.7267-3.4295 3.5288-5.089 5.3284-3.1566 3.6095-6.316 7.2606-8.6535 11.307-0.58898 1.0271-1.1259 2.3092-0.44788 3.4014 0.80062 1.1182 2.5124 1.2846 3.9172 1.2872 6.2026-0.21072 11.988-2.5642 17.025-5.5026 1.6841-0.70481 3.2669-2.2649 2.632-3.9579-0.83445-2.2754-2.4142-4.283-3.9603-6.2516-1.6043-1.9348-3.2946-3.8253-5.0952-5.6326-0.0829 5e-3 -0.24548 0.0157-0.32833 0.0208z" stroke-width=".75"/>
</svg>
