<?xml version="1.0" encoding="UTF-8" standalone="no"?>
<svg
   height="600"
   viewBox="-27 -14 54 36"
   width="900"
   version="1.1"
   id="svg5198"
   sodipodi:docname="bq.svg"
   inkscape:version="1.1.1 (3bf5ae0d25, 2021-09-20)"
   xmlns:inkscape="http://www.inkscape.org/namespaces/inkscape"
   xmlns:sodipodi="http://sodipodi.sourceforge.net/DTD/sodipodi-0.dtd"
   xmlns:xlink="http://www.w3.org/1999/xlink"
   xmlns="http://www.w3.org/2000/svg"
   xmlns:svg="http://www.w3.org/2000/svg">
  <defs
     id="defs5202" />
  <sodipodi:namedview
     id="namedview5200"
     pagecolor="#ffffff"
     bordercolor="#666666"
     borderopacity="1.0"
     inkscape:pageshadow="2"
     inkscape:pageopacity="0.0"
     inkscape:pagecheckerboard="0"
     showgrid="false"
     inkscape:zoom="0.47258303"
     inkscape:cx="-74.061059"
     inkscape:cy="329.04271"
     inkscape:window-width="1920"
     inkscape:window-height="991"
     inkscape:window-x="-9"
     inkscape:window-y="-9"
     inkscape:window-maximized="1"
     inkscape:current-layer="svg5198" />
  <path
     d="m-27-14h54v36h-54z"
     fill="#fff"
     id="path5172" />
  <path
     d="m-6-14h12v36h-12z"
     fill="#dc171d"
     id="path5174" />
  <path
     d="m-27-2h54v12h-54z"
     fill="#012a87"
     id="path5176" />
  <g
     id="a"
     fill="#ffffff"
     transform="matrix(1.5,0,0,1.5,0,4.0563591)">
    <g
       id="b">
      <path
         id="c"
         d="M 0,0 V 1 H 0.5 Z"
         transform="rotate(18,3.1568758,-0.49999998)" />
      <use
         transform="scale(-1,1)"
         xlink:href="#c"
         id="use5179"
         x="0"
         y="0"
         width="100%"
         height="100%" />
    </g>
    <use
       transform="rotate(72)"
       xlink:href="#b"
       id="use5182"
       x="0"
       y="0"
       width="100%"
       height="100%" />
    <use
       transform="rotate(-72)"
       xlink:href="#b"
       id="use5184"
       x="0"
       y="0"
       width="100%"
       height="100%" />
    <use
       transform="rotate(144)"
       xlink:href="#b"
       id="use5186"
       x="0"
       y="0"
       width="100%"
       height="100%" />
    <use
       transform="rotate(-144)"
       xlink:href="#b"
       id="use5188"
       x="0"
       y="0"
       width="100%"
       height="100%" />
  </g>
  <use
     transform="translate(7.88,-0.0226511)"
     xlink:href="#a"
     id="use5191"
     x="0"
     y="0"
     width="100%"
     height="100%" />
  <use
     transform="matrix(-1,0,0,1,-8.12,-0.0226511)"
     xlink:href="#a"
     id="use5491"
     x="0"
     y="0"
     width="100%"
     height="100%" />
</svg>
