<?xml version="1.0" encoding="UTF-8" standalone="no"?>
<svg
   height="600"
   viewBox="-27 -14 54 36"
   width="900"
   version="1.1"
   id="svg5198"
   sodipodi:docname="cc.svg"
   inkscape:version="1.1.1 (3bf5ae0d25, 2021-09-20)"
   xmlns:inkscape="http://www.inkscape.org/namespaces/inkscape"
   xmlns:sodipodi="http://sodipodi.sourceforge.net/DTD/sodipodi-0.dtd"
   xmlns:xlink="http://www.w3.org/1999/xlink"
   xmlns="http://www.w3.org/2000/svg"
   xmlns:svg="http://www.w3.org/2000/svg">
  <defs
     id="defs5202">
    <path
       id="Star7"
       d="M0,-360 69.421398,-144.155019 281.459334,-224.456329 155.988466,-35.603349 350.974048,80.107536 125.093037,99.758368 156.198146,324.348792 0,160 -156.198146,324.348792 -125.093037,99.758368 -350.974048,80.107536 -155.988466,-35.603349 -281.459334,-224.456329 -69.421398,-144.155019z" />
    <path
       id="Star5"
       d="M0,-210 54.859957,-75.508253 199.721868,-64.893569 88.765275,28.841586 123.434903,169.893569 0,93.333333 -123.434903,169.893569 -88.765275,28.841586 -199.721868,-64.893569 -54.859957,-75.508253z" />
  </defs>
  <sodipodi:namedview
     id="namedview5200"
     pagecolor="#ffffff"
     bordercolor="#666666"
     borderopacity="1.0"
     inkscape:pageshadow="2"
     inkscape:pageopacity="0.0"
     inkscape:pagecheckerboard="0"
     showgrid="false"
     inkscape:zoom="0.70710678"
     inkscape:cx="466.69047"
     inkscape:cy="154.85638"
     inkscape:window-width="1920"
     inkscape:window-height="991"
     inkscape:window-x="-9"
     inkscape:window-y="-9"
     inkscape:window-maximized="1"
     inkscape:current-layer="svg5198" />
  <rect
     width="54.073555"
     height="35.949062"
     fill="#008000"
     id="rect6382"
     x="-26.940916"
     y="-13.951359"
     style="stroke-width:0.00618572" />
  <circle
     cx="-1.5597607"
     cy="3.8686721"
     fill="#ffe000"
     id="circle6384"
     style="stroke-width:0.00614072"
     r="6.4477577" />
  <circle
     cx="0.4507108"
     cy="3.8686721"
     fill="#008000"
     id="circle6386"
     style="stroke-width:0.00614072"
     r="5.3055835" />
  <circle
     cx="-18.508963"
     cy="-5.5537782"
     r="5.9008842"
     fill="#ffe000"
     id="circle6388"
     style="stroke-width:0.00536444" />
  <path
     fill="#802000"
     stroke="#7b3100"
     stroke-width="0.125168"
     d="m -18.916124,-1.1045114 h 1.473451 c 0,0 0.06651,-0.1350658 -0.01484,-0.2025988 -0.08134,-0.067533 -0.398197,-0.082398 -0.312591,-0.321287 0.175991,-0.4911413 0.200549,-0.3397085 0.311057,-1.5061739 0.110507,-1.1664653 0.163712,-2.995986 0.163712,-2.995986 h -0.212829 c 0,0 0.04093,0.5688988 -0.08186,1.309728 -0.122785,0.7408291 -0.159619,0.8062753 -0.294685,1.3751742 -0.135066,0.5688988 -0.155526,0.6180371 -0.278312,0.9495595 -0.122787,0.3315224 -0.135066,0.3478947 -0.32743,0.6548372 -0.192363,0.306964 -0.122786,0.1923635 -0.229201,0.3765408 -0.05321,0.092086 -0.118693,0.067533 -0.154506,0.1345509 -0.03581,0.067023 -0.04195,0.2256176 -0.04195,0.2256176 z"
     id="path6390" />
  <path
     fill="#008000"
     d="m -17.791737,-9.8528401 c 0.01224,0.2288524 -0.01077,0.5318198 -0.105615,0.7783802 -0.09617,0.2747452 -0.200754,0.5486213 -0.195577,0.8331512 -0.152897,0.052006 -0.310478,-0.3308679 -0.457651,-0.1056151 0.110636,0.3112234 0.366064,0.5576335 0.541057,0.8380328 0.02952,0.086931 0.281301,0.3139163 0.135619,0.3667024 -0.367717,-0.1258497 -0.456847,-0.5917514 -0.684932,-0.8746719 -0.264896,-0.4761316 -0.758746,-0.812659 -1.308923,-0.8358871 -0.20666,0.00541 -0.878588,-0.05122 -0.703761,0.3026564 0.257477,0.1750524 0.574746,0.2891969 0.828967,0.4856803 0.189418,0.01772 0.532742,0.3339256 0.512727,0.4534024 -0.333142,-0.1349317 -0.48907,-0.2966481 -0.84801,-0.4385858 -0.48633,-0.1878305 -1.159041,-0.074855 -1.428282,0.4078101 -0.0502,0.1257049 -0.124305,0.4920854 0.03355,0.5269918 0.184451,-0.28799 0.448301,-0.6099368 0.839266,-0.5235693 0.307082,0.023975 -0.342664,0.5720638 -0.09411,0.4617924 0.07876,-0.034948 0.26062,-0.1543296 0.386786,-0.1667965 0.126161,-0.012467 0.196623,0.081979 0.292346,0.095047 0.191446,0.026134 0.244163,0.106393 0.226417,0.1530851 -0.02094,0.055087 -0.08176,0.00805 -0.276376,0.069759 -0.09731,0.030852 -0.148139,0.1163655 -0.261645,0.1555098 -0.113501,0.039147 -0.349617,0.041922 -0.437851,0.00721 -0.308707,-0.1340895 -0.814805,-0.1107488 -0.911043,0.276097 -8.6e-5,0.1701118 -0.15147,-0.018796 -0.221433,0.054696 -0.05246,0.1856257 -0.06603,0.3762189 -0.341356,0.3593638 -0.167129,0.1753314 -0.338281,0.3568801 -0.550498,0.4816248 0.124535,0.2858388 0.617983,-0.2870834 0.594916,-0.045511 -0.215704,0.2941429 0.110985,0.3560378 0.253996,0.129637 0.241871,-0.2555619 0.541432,-0.5666458 0.902352,-0.3090883 0.171898,0.1618398 0.271784,-0.085568 0.396201,-0.072318 0.07839,0.2010324 0.177016,0.00989 0.265985,-0.046939 0.145645,-0.018145 0.104666,0.1819081 0.277723,0.058676 0.344896,-0.2282623 0.769207,-0.036457 1.106147,-0.2585499 0.358624,-0.1633901 0.05035,0.1316004 -0.04863,0.2469144 -0.15757,0.3056122 -0.02092,0.7068186 -0.362706,0.8966125 -0.137292,0.3642187 0.162205,0.8443628 -0.143268,1.1138187 -0.04444,0.1689584 0.392859,0.1496088 0.515592,0.2190408 0.215061,0.00852 -0.0092,-0.4922303 0.204139,-0.5593502 0.28616,0.1771285 0.27276,-0.3167648 0.213671,-0.4691041 0.02774,-0.3462854 0.04728,-0.7248968 0.219362,-1.0385556 0.182939,-0.3844265 0.352262,0.1565665 0.147474,0.3087664 -0.116328,0.3534952 -0.285656,0.7958683 -0.02115,1.1246012 0.07623,0.017061 0.138826,0.201837 0.237532,0.2586304 0.09871,0.056793 0.23352,-0.0144 0.258126,-0.182509 0.126606,-0.5062368 0.06283,-1.0506255 0.243626,-1.5429738 0.12761,-0.1525111 0.303644,-0.024591 0.38278,0.1156519 0.253362,0.2941484 0.431462,0.6618646 0.7382,0.90423 0.279289,0.1306885 0.526284,0.3283628 0.654999,0.6158913 -0.0017,0.2218357 0.630053,0.2558409 0.441268,0.00927 -0.181147,-0.2400426 -0.06163,-0.4801388 0.121853,-0.6397631 0.09827,0.024237 0.06922,-0.1517546 -0.0078,-0.08214 -0.123355,-0.029099 -0.131246,-0.2548752 0.04022,-0.1475596 0.2888,0.093229 -0.02252,-0.2090093 -0.126896,-0.2182791 -0.24419,-0.1513577 -0.524744,-0.3254928 -0.644806,-0.5885863 0.317875,0.00324 0.647863,0.1746876 0.97268,0.068343 0.26038,-0.133773 0.524476,0.011159 0.615409,0.2406703 0.201274,-0.032119 0.115464,-0.2339647 0,-0.3011919 0.147216,-0.060752 0.249028,-0.1867093 0.07053,-0.2978069 -0.09427,-0.123028 0.126419,-0.3328742 -0.144845,-0.3241302 0.0089,-0.2072122 -0.07272,-0.3968237 -0.298585,-0.4684121 -0.226261,-0.1916017 -0.890229,0.2822768 -0.87097,-0.1496143 -0.0669,-0.235059 0.269713,-0.031403 0.363773,-0.1486379 0.09719,-0.2478049 -0.46315,-0.223622 -0.278253,-0.4157441 0.120759,-0.077752 0.687453,-0.1894398 0.243041,-0.2726208 -0.221804,0.060961 -0.412161,0.015819 -0.586709,-0.093948 -0.159093,0.2660924 -0.61337,-0.1445072 -0.532431,0.3285774 -0.06215,0.1782603 -0.468198,0.641426 -0.578072,0.2865844 0.09346,-0.2781194 0.574531,-0.3690573 0.425352,-0.7440478 -0.0229,-0.2340827 -0.216971,0.040709 -0.308402,0.023255 -0.0463,-0.145709 0.140028,-0.3174569 0.269896,-0.3520414 0.257697,0.1982053 0.265502,-0.250058 0.510576,-0.2135906 0.178931,-0.039755 -0.05778,-0.1165049 -0.107686,-0.1501828 0.04904,-0.1309782 0.323723,-0.1979049 0.05437,-0.3116418 -0.237655,-0.1763399 -0.413802,0.1755245 -0.609829,0.1942893 -0.188142,-0.212405 0.170814,-0.3145064 0.269896,-0.4263603 0.0053,-0.08338 -0.209305,-0.025156 -0.144728,-0.097788 0.05609,-0.1002614 0.436135,-0.1077233 0.258164,-0.2581637 -0.268034,-0.092016 -0.613906,-0.069072 -0.871078,0.050137 -0.162022,0.05245 -0.20969,0.4187965 -0.349343,0.4036044 -0.06566,-0.1630683 0.02138,-0.4847952 -0.203403,-0.5319755 z m 1.267349,3.5791007 c 0.204235,-0.034584 0.0043,0.3101612 -0.09388,0.3051025 0.0087,-0.1238756 -0.295393,-0.1119505 -0.106736,-0.2198776 0.06118,-0.039506 0.129347,-0.069641 0.200614,-0.085225 z"
     id="path6392"
     style="stroke-width:0.00536444" />
  <g
     fill="#ffe000"
     id="g6404"
     transform="matrix(0.00614072,0,0,0.00614072,-32.508998,-11.605947)">
    <use
       xlink:href="#Star7"
       x="7560"
       y="4200"
       id="use6394"
       width="100%"
       height="100%" />
    <use
       xlink:href="#Star7"
       x="6300"
       y="2205"
       id="use6396"
       width="100%"
       height="100%" />
    <use
       xlink:href="#Star7"
       x="7560"
       y="840"
       id="use6398"
       width="100%"
       height="100%" />
    <use
       xlink:href="#Star7"
       x="8680"
       y="1869"
       id="use6400"
       width="100%"
       height="100%" />
    <use
       xlink:href="#Star5"
       x="8064"
       y="2730"
       id="use6402"
       width="100%"
       height="100%" />
  </g>
</svg>
