<?xml version="1.0" encoding="UTF-8" standalone="no"?>
<svg
   viewBox="0 0 800 533"
   version="1.1"
   id="svg14"
   sodipodi:docname="Flag_of_Christmas_Island_(3-2).svg"
   width="800"
   height="533"
   inkscape:version="1.2.2 (732a01da63, 2022-12-09)"
   xmlns:inkscape="http://www.inkscape.org/namespaces/inkscape"
   xmlns:sodipodi="http://sodipodi.sourceforge.net/DTD/sodipodi-0.dtd"
   xmlns="http://www.w3.org/2000/svg"
   xmlns:svg="http://www.w3.org/2000/svg">
  <defs
     id="defs18" />
  <sodipodi:namedview
     id="namedview16"
     pagecolor="#ffffff"
     bordercolor="#000000"
     borderopacity="0.25"
     inkscape:showpageshadow="2"
     inkscape:pageopacity="0.0"
     inkscape:pagecheckerboard="0"
     inkscape:deskcolor="#d1d1d1"
     showgrid="false"
     inkscape:zoom="1.0670241"
     inkscape:cx="412.8304"
     inkscape:cy="373"
     inkscape:window-width="2560"
     inkscape:window-height="1334"
     inkscape:window-x="-11"
     inkscape:window-y="-11"
     inkscape:window-maximized="1"
     inkscape:current-layer="svg14" />
  <path
     fill="#012169"
     d="M 0,0 H 800 V 533 H 0 Z"
     id="path2"
     style="stroke-width:0.923472" />
  <path
     fill="#0db02b"
     d="M 0,0 H 800 V 533 Z"
     id="path4"
     style="stroke-width:0.923472" />
  <circle
     cx="401.99243"
     cy="263.42862"
     fill="#f7d116"
     id="circle6"
     r="84.791069"
     style="stroke-width:0.938992" />
  <path
     fill="#0db02b"
     d="m 350.15994,225.30554 c 5.82177,7.98145 14.5544,21.31513 21.69074,17.84087 5.54006,0 8.35705,0.3756 9.10824,4.03766 13.052,2.25358 34.93054,-3.28647 48.45204,-21.03343 0,0 1.1268,0.1878 0.75119,-6.57296 0.094,-2.91087 4.03768,-2.34749 4.13158,-1.40848 0.56338,1.50238 0.46949,2.53527 1.22069,2.62916 1.69018,-0.56338 3.94376,-4.31935 5.91565,-6.66684 0.5634,-1.03289 0.28169,-2.15967 0.3756,-3.47426 1.03289,-2.53529 3.56817,-1.9719 4.03767,-0.65731 0.4695,0.84509 0.4695,1.5024 0.93899,2.34749 2.53527,1.69019 7.23026,0.0938 7.51195,0.0938 0.46948,-2.06577 1.78409,-1.87798 1.78409,-1.87798 1.69019,-0.3756 1.03288,-0.18779 2.15968,0.37559 -1.03291,11.26792 2.25357,11.7374 1.97188,17.55916 0.094,6.47906 -1.97188,8.26314 -1.97188,10.70454 0.65728,3.00476 10.14111,3.09866 6.85464,5.63395 -2.91088,1.59628 0,4.50716 -4.41327,5.63395 -12.8642,6.57295 -15.39948,12.11301 -15.39948,12.11301 0,0 -3.19257,6.10346 -3.56818,6.10346 -2.15968,4.03767 -4.88276,1.87798 -6.38515,3.84986 -0.75118,2.5353 -1.59629,8.07535 -0.0937,10.89233 0.75119,3.94376 -0.094,6.10345 -1.0329,10.04723 -0.84509,8.26312 -4.13157,9.48382 -4.50716,12.3947 -1.5024,3.09868 0.28169,17.65306 -1.12679,17.65306 -9.57773,0.18781 -16.99579,-1.87798 -20.75175,-2.62916 3.66207,-15.96289 2.25358,-29.95389 2.25358,-31.36238 -0.93899,-11.36181 -17.08967,-8.63872 -19.53107,-10.14113 -2.06577,-0.46949 -3.28645,-2.06577 -4.03765,-2.81698 -2.25359,-0.28168 -3.09868,-0.75119 -5.44616,-1.03287 -1.12679,0.56337 -0.4695,1.12678 -3.00477,1.97187 -6.47907,0.75119 -9.29603,-5.63397 -9.29603,-5.63397 0.28168,-2.15967 -14.46051,0.4695 -22.53585,-1.40848 -3.28647,1.87798 -4.69495,7.23024 -7.41805,7.88755 -0.094,1.69019 -4.41325,-1.40849 -5.35224,-3.00477 -0.18781,-4.78888 4.22547,-6.94857 4.22547,-6.94857 3.47426,-2.44138 5.54006,-2.81697 7.23023,-4.50715 0.84511,-4.22547 0.37561,-7.32416 2.15969,-10.42283 1.50239,-2.44138 3.75597,-1.3146 5.25836,-2.34749 1.59627,-1.03288 2.34748,-8.16922 0.8451,-10.04721 l -6.85467,-6.19737 c -2.06577,-6.10345 2.5353,-9.95331 3.84989,-9.57771 z"
     id="path8"
     style="stroke-width:0.938992" />
  <path
     fill="#ffffff"
     d="m 160.03239,249.65598 -11.0997,-10.31926 -11.18642,10.23253 1.21403,-15.08865 -14.91524,-2.42807 12.57389,-8.49821 -7.45762,-13.1809 14.48166,4.50926 5.63656,-14.04806 5.46313,14.13477 14.48166,-4.33583 -7.63105,13.0942 12.40045,8.67164 -15.00194,2.1679 z m 39.19585,125.39199 -11.96688,-7.97792 -11.62001,8.4115 4.07569,-13.52777 -11.79344,-8.15135 14.48163,-0.34686 4.33584,-13.44105 4.85612,13.26762 14.48164,-0.17343 -11.44658,8.58493 z m -37.02794,107.96198 -11.09971,-10.31927 -11.18642,10.14584 1.21403,-15.08866 -14.91522,-2.42807 12.57388,-8.49821 -7.45762,-13.18089 14.48166,4.50924 5.63658,-14.04805 5.46313,14.13477 14.48165,-4.33582 -7.63107,13.09419 12.40046,8.67164 -15.00193,2.16792 z M 62.823254,356.57736 51.723549,346.2581 l -11.186423,10.14582 1.214029,-15.08865 -14.915229,-2.42807 12.573886,-8.49821 -7.457616,-13.18089 14.481648,4.50924 5.636571,-14.04805 5.463135,14.13478 14.481648,-4.33582 -7.631048,13.09418 12.400454,8.67165 -15.001947,2.1679 z m 191.209776,-33.1257 -11.0997,-10.40597 -11.18643,10.23256 1.21403,-15.08867 -14.91524,-2.42806 12.57391,-8.4982 -7.45762,-13.18092 14.48165,4.50928 5.63656,-14.04809 5.46314,14.1348 14.48165,-4.33583 -7.63106,13.09418 12.40045,8.67165 -15.00195,2.16791 z"
     id="path10"
     style="stroke-width:0.867164" />
  <path
     fill="#f7d116"
     d="m 771.67375,169.41626 c -2.87551,-1.64315 -4.84728,-0.32863 -8.70868,-1.64315 -3.20414,-1.06805 -2.62903,-2.21825 -5.42239,-3.12198 -3.28629,-1.06803 -4.84727,0.32864 -10.51612,0.90373 -1.97178,0.16432 -5.09375,0.41079 -6.90121,0.16432 -7.31201,-0.98589 -13.063,-12.3236 -15.44557,-20.95011 -3.20414,-11.17338 -0.98589,-18.81401 -2.46472,-34.91683 -0.32863,-3.61492 -1.15021,-8.87298 -3.12198,-14.706162 -1.39667,-4.19001 -4.19002,-10.7626 -17.74597,-26.5368 -15.03478,-17.41733 -27.02974,-27.111904 -30.23387,-29.658773 -5.09375,-4.107872 -9.61241,-7.229847 -12.89869,-9.448087 0.49294,5.093758 1.64314,12.652223 4.43649,21.27874 3.20414,10.02319 7.14768,17.17086 10.92691,23.98992 6.32611,11.3377 22.26462,39.517652 20.04639,47.733372 -0.16432,0.49296 -0.65727,2.21824 -1.15021,4.76513 -0.65726,3.36845 -0.82158,6.16179 -0.90373,8.05141 -2.05393,-0.65727 -5.17591,-1.80746 -8.87299,-3.61493 -6.81904,-3.36844 -11.25555,-6.9012 -13.47379,-8.62651 -6.07964,-4.6008 -11.99496,-6.65473 -23.74344,-10.92692 -15.60989,-5.66884 -30.23389,-7.88708 -41.98238,-8.62651 7.39416,10.76261 14.62399,17.99245 19.96421,22.5111 9.94104,8.54435 20.45718,14.37752 25.63309,17.25302 6.3261,3.53276 8.95513,4.51866 15.52771,8.70868 10.10534,6.49042 13.96674,10.68045 16.43146,13.96673 3.03982,4.02571 5.83316,7.72279 6.49041,13.14517 0.65727,5.25807 -0.82156,10.92691 -5.25805,17.99244 -12.81654,20.29285 -37.38157,31.46624 -44.85787,34.67036 -9.36593,4.02572 -24.07208,10.26967 -46.00808,13.39164 -16.59577,2.38257 -42.96825,3.69708 -75.1739,-5.01159 3.36845,1.47884 7.14767,2.95766 11.25554,4.27218 4.43649,1.39667 8.54437,2.38256 12.3236,3.12198 0.24647,0.0822 -5.25806,0.24647 -10.84477,-0.98589 -6.73689,-1.47883 -12.07711,-4.10786 -15.77419,-6.32612 2.79334,2.21826 7.14768,5.25808 12.73438,7.72279 7.22983,3.20413 14.62399,4.68296 36.47783,4.76512 13.14516,0.0822 19.71774,0.0822 26.20816,-0.57509 18.56755,-1.88962 32.45214,-6.40827 45.59729,-10.92692 11.09123,-3.77923 20.53931,-6.98337 32.78075,-13.30949 17.66381,-9.2016 26.04386,-17.08871 45.67945,-25.05796 6.16179,-2.46472 9.28377,-3.77924 13.22731,-4.92944 11.66633,-3.4506 16.10284,-2.54688 24.15425,-7.06552 7.22984,-4.02571 9.53024,-8.13356 10.1875,-9.36593 1.06805,-1.97179 1.23236,-3.20414 2.38256,-4.68297 3.03982,-3.8614 8.38004,-4.0257 12.48791,-3.53276 -0.49295,-1.06804 -1.64314,-2.71118 -3.4506,-3.86139 z m -15.77421,3.77923 c -0.49293,0.65727 -1.39667,0.90375 -2.13608,0.73942 -1.06805,-0.32863 -1.80747,-1.47883 -1.72531,-2.87551 l -2.46472,-1.31451 h 6.32611 c 0.73942,1.06805 0.65726,2.54688 0,3.4506 z"
     id="path12"
     style="stroke-width:0.821572" />
</svg>
