<?xml version="1.0" encoding="UTF-8" standalone="no"?>
<svg
   height="600"
   viewBox="-27 -14 54 36"
   width="900"
   version="1.1"
   id="svg5198"
   sodipodi:docname="cx.svg"
   inkscape:version="1.1.1 (3bf5ae0d25, 2021-09-20)"
   xmlns:inkscape="http://www.inkscape.org/namespaces/inkscape"
   xmlns:sodipodi="http://sodipodi.sourceforge.net/DTD/sodipodi-0.dtd"
   xmlns:xlink="http://www.w3.org/1999/xlink"
   xmlns="http://www.w3.org/2000/svg"
   xmlns:svg="http://www.w3.org/2000/svg">
  <defs
     id="defs5202" />
  <sodipodi:namedview
     id="namedview5200"
     pagecolor="#ffffff"
     bordercolor="#666666"
     borderopacity="1.0"
     inkscape:pageshadow="2"
     inkscape:pageopacity="0.0"
     inkscape:pagecheckerboard="0"
     showgrid="false"
     inkscape:zoom="0.70710678"
     inkscape:cx="466.69047"
     inkscape:cy="103.9447"
     inkscape:window-width="1920"
     inkscape:window-height="991"
     inkscape:window-x="-9"
     inkscape:window-y="-9"
     inkscape:window-maximized="1"
     inkscape:current-layer="svg5198" />
  <rect
     width="53.77887"
     height="35.835411"
     fill="#0021ad"
     id="rect6147"
     x="-26.910049"
     y="-13.891543"
     style="stroke-width:0.0620836" />
  <path
     d="m -26.91005,-13.891543 h 53.77887 v 35.83541 z"
     fill="#1c8a42"
     id="path6149"
     style="stroke-width:0.0620836" />
  <circle
     cx="0.24735653"
     cy="4.0994797"
     r="5.4191999"
     fill="#ffc639"
     id="circle6151"
     style="stroke-width:0.06" />
  <path
     fill="#1c8a42"
     d="m -3.0622435,1.6652794 c 0.370716,0.508602 0.93252,1.36134 1.38432,1.13874 0.352578,0.00121 0.534612,0.026005 0.582384,0.260652 0.83153998,0.141516 2.22918,-0.20925 3.09882,-1.34196 0,0 0.073176,0.00968 0.047776,-0.420912 0.00484,-0.187476 0.256416,-0.149982 0.262464,-0.088902 0.035076,0.093132 0.029028,0.162684 0.0762,0.165102 0.10704,-0.035681 0.253398,-0.275772 0.376164,-0.428172 0.033262,-0.067128 0.015119,-0.137886 0.022981,-0.222552 0.06471,-0.159054 0.226182,-0.124578 0.260046,-0.041123 0.030842,0.053824 0.031447,0.09495 0.061686,0.14877 0.16389,0.109464 0.459618,0.00726 0.482598,0.00726 0.029029,-0.13365 0.114906,-0.120954 0.114906,-0.120954 0.109464,-0.02419 0.066522,-0.014515 0.138492,0.022981 -0.063498,0.7203 0.141516,0.75234 0.124584,1.12182 0.00726,0.412446 -0.124584,0.52977 -0.124584,0.687 0.041729,0.192312 0.6501,0.198966 0.436032,0.36165 -0.188082,0.100392 6.06e-4,0.288468 -0.282426,0.36165 -0.82368,0.417888 -0.98154,0.77652 -0.98154,0.77652 0,0 -0.206826,0.390678 -0.229812,0.390678 -0.137886,0.260652 -0.31266,0.118536 -0.410028,0.245532 -0.048381,0.15966 -0.10281,0.513444 -0.00605,0.69732 0.048381,0.252792 -0.00605,0.390678 -0.066522,0.64344 -0.054428,0.527352 -0.263676,0.6072 -0.287868,0.79224 -0.096762,0.19776 0.020562,1.12668 -0.071364,1.12668 -0.6132,0.012095 -1.08312,-0.117324 -1.32564001,-0.165702 0.23646001,-1.01904 0.14454001,-1.91406 0.14454001,-2.00598 -0.060474,-0.72876 -1.09158002,-0.551544 -1.24944002,-0.6483 -0.130632,-0.02782 -0.212874,-0.134256 -0.25884,-0.180216 -0.145746,-0.015724 -0.200178,-0.048986 -0.34592398,-0.064104 -0.07257,0.036286 -0.029029,0.073782 -0.191106,0.123978 -0.41124,0.049591 -0.592668,-0.358626 -0.592668,-0.358626 0.019957,-0.13728 -0.92466,0.027819 -1.43814,-0.09132 -0.210456,0.117324 -0.302382,0.46446 -0.474738,0.505578 -0.00484,0.107646 -0.283632,-0.088296 -0.339876,-0.19413 -0.011491,-0.307824 0.268512,-0.443892 0.268512,-0.443892 0.222552,-0.156636 0.35439,-0.182034 0.461436,-0.290286 0.053824,-0.267912 0.026609,-0.466272 0.14091,-0.66768 0.096762,-0.153612 0.239484,-0.081642 0.336246,-0.150588 0.104016,-0.06894 0.148164,-0.520092 0.05201,-0.64344 0,0 -0.416076,-0.375558 -0.439056,-0.398538 -0.135468,-0.388254 0.158448,-0.63864 0.242508,-0.6102 z"
     id="path6153"
     style="stroke-width:0.06" />
  <path
     fill="#ffc639"
     d="m 21.529801,-8.0491346 c -0.245532,-0.97164 -2.44326,-3.0642604 -4.09482,-4.3959004 -0.394302,-0.268638 -0.6513,-0.108618 -0.599922,0.27438 0.20562,0.34296 0.359832,0.72 0.565452,1.06296 0.05745,0.2286 0.165708,0.38862 0.223158,0.61716 0,0 0.01693,0.394368 0.0514,0.428652 0.51405,0.5659984 0.58299,1.0459204 0.58299,1.0459204 0.29694,0.57156 0.56001,0.98868 1.08012,1.4574 0.58299,0.36588 0.154212,1.50282 0.17115,2.10882 0,0.382812 -0.27396,0.337458 -0.514044,0.291492 -1.89168,-1.73748 -3.76644,-1.74294 -5.41806,-2.2461 -0.6459,-0.06834 -0.65736,0.24009 -0.44571,0.41124 1.15452,1.23492 2.24004,2.07492 3.66906,2.77764 0.24009,0.14877 0.48018,0.29754 0.7203,0.446316 0.27396,0.2286 0.54852,0.4572 0.82248,0.6858 0.63438,0.41124 0.6864,0.78858 0.6864,0.82248 0.01693,0.77166 -0.394908,1.37160002 -0.51465,1.61166 -0.216504,0.81822 -0.6513,0.96036 -0.6513,0.96036 -3.53244,2.38338 -5.38422,3.00024 -11.1108,2.26302 -0.08588,-0.045357 -0.63438,0.045962 0,0.27456 1.45746,0.485622 5.03766,1.26456 8.5014,-0.375558 0.83154,-0.58299 1.38792,-0.391884 1.99026,-0.74082 0.9894,-0.6102 2.4021,-1.3698 2.65914,-1.45506 0.77166,-0.41184 2.9319,-0.8745 3.4296,-1.28634 0.570894,-0.045962 1.16358,-0.120954 1.20348,-0.612 0.187476,-0.12156 0.462036,-0.032657 0.66582,-0.433008 0.452964,-0.078618 0.376764,-0.240696 0.376764,-0.240696 -0.1143,-0.31992 -0.537636,-0.451758 -0.84,-0.6858 -0.446316,-0.14877 -0.75474,-0.194736 -1.08072,-0.034471 -0.10281,0.045962 -0.20562,0.09132 -0.30843,0.13728 0,0 -0.48018,-0.06894 -0.48018,-0.10281 -1.0668,-0.058662 -0.96276,-3.59412 -1.34016,-5.06868 z"
     id="path6155"
     style="stroke-width:0.06" />
  <path
     fill="#1c8a42"
     d="m 24.031801,-2.2618346 a 0.26415118,0.16506674 15.947 0 1 -0.503766,-0.158208 0.26415118,0.16506674 15.947 0 1 0.503766,0.158208 z"
     id="path6157"
     style="stroke-width:0.06" />
  <g
     fill="#ffffff"
     id="g6168"
     transform="matrix(0.06,0,0,0.06,-27.089601,-8.0561315)">
    <path
       id="s"
       d="m 188.16,190.94 -12.751,-11.936 -12.904,11.77 1.383,-17.405 -17.249,-2.753 14.475,-9.7743 -8.6056,-15.197 16.668,5.2197 6.5177,-16.204 6.3099,16.287 16.734,-5.0072 -8.8005,15.086 14.348,9.959 -17.283,2.5313 1.1585,17.424 z" />
    <path
       d="m 233.39,335.53 -13.752,-9.1669 -13.391,9.6641 4.7117,-15.568 -13.582,-9.4155 16.667,-0.44539 4.9883,-15.496 5.5945,15.299 16.667,-0.15537 -13.21,9.9023 5.3073,15.382 z"
       id="path6160" />
    <use
       xlink:href="#s"
       x="2.5215001"
       y="269.06079"
       id="use6162"
       width="100%"
       height="100%" />
    <use
       xlink:href="#s"
       x="-112.0655"
       y="123.2228"
       id="use6164"
       width="100%"
       height="100%" />
    <use
       xlink:href="#s"
       x="108.4275"
       y="85.026802"
       id="use6166"
       width="100%"
       height="100%" />
  </g>
</svg>
