<?xml version="1.0" encoding="UTF-8" standalone="no"?>
<svg
   version="1.0"
   width="540"
   height="360"
   viewBox="0 0 450 300"
   id="svg42"
   sodipodi:docname="gd.svg"
   inkscape:version="1.1.1 (3bf5ae0d25, 2021-09-20)"
   xmlns:inkscape="http://www.inkscape.org/namespaces/inkscape"
   xmlns:sodipodi="http://sodipodi.sourceforge.net/DTD/sodipodi-0.dtd"
   xmlns:xlink="http://www.w3.org/1999/xlink"
   xmlns="http://www.w3.org/2000/svg"
   xmlns:svg="http://www.w3.org/2000/svg">
  <sodipodi:namedview
     id="namedview44"
     pagecolor="#ffffff"
     bordercolor="#666666"
     borderopacity="1.0"
     inkscape:pageshadow="2"
     inkscape:pageopacity="0.0"
     inkscape:pagecheckerboard="0"
     showgrid="false"
     showguides="false"
     inkscape:zoom="0.78763839"
     inkscape:cx="303.43874"
     inkscape:cy="140.29281"
     inkscape:window-width="1920"
     inkscape:window-height="991"
     inkscape:window-x="-9"
     inkscape:window-y="-9"
     inkscape:window-maximized="1"
     inkscape:current-layer="svg42" />
  <defs
     id="defs15">
    <g
       id="g">
      <g
         id="f">
        <path
           id="h"
           d="M0-1l-.3.95.47.16"
           fill="#fcd116" />
        <use
           transform="scale(-1 1)"
           width="500"
           height="300"
           xlink:href="#h"
           id="use3" />
      </g>
      <use
         transform="rotate(72)"
         width="500"
         height="300"
         xlink:href="#f"
         id="use6" />
      <use
         transform="matrix(-.809 .588 -.588 -.809 0 0)"
         width="500"
         height="300"
         xlink:href="#f"
         id="use8" />
      <use
         transform="matrix(-.809 -.588 .588 -.809 0 0)"
         width="500"
         height="300"
         xlink:href="#f"
         id="use10" />
      <use
         transform="rotate(-72)"
         width="500"
         height="300"
         xlink:href="#f"
         id="use12" />
    </g>
  </defs>
  <path
     d="M0 0h450v300H0z"
     fill="#ce1126"
     id="path17" />
  <path
     d="M 45.040316,42 H 409.48171 V 258 H 45.040316 Z"
     fill="#007a5e"
     id="path19"
     style="stroke-width:0.96544" />
  <path
     d="M 45.040316,42 H 409.48171 L 45.040316,258 H 409.48171 Z"
     fill="#fcd116"
     id="path21"
     style="stroke-width:0.96544" />
  <circle
     transform="translate(-25)"
     cx="250"
     cy="150"
     r="36"
     fill="#ce1126"
     id="circle23" />
  <use
     transform="matrix(33 0 0 33 225 150)"
     width="500"
     height="300"
     xlink:href="#g"
     id="use25" />
  <use
     x="-100"
     width="500"
     height="300"
     xlink:href="#e"
     id="use27" />
  <use
     id="e"
     transform="matrix(19.5 0 0 19.5 225 21)"
     width="500"
     height="300"
     xlink:href="#g" />
  <use
     x="100"
     width="500"
     height="300"
     xlink:href="#e"
     id="use30" />
  <use
     x="-100"
     y="258"
     width="500"
     height="300"
     xlink:href="#e"
     id="use32" />
  <use
     y="258"
     width="500"
     height="300"
     xlink:href="#e"
     id="use34" />
  <use
     x="100"
     y="258"
     width="500"
     height="300"
     xlink:href="#e"
     id="use36" />
  <path
     d="m 75.250004,150.4 c 4.5,8.4 13.26,17.53 20.9,20.74 0.14,-8.52 -2.9,-19.44 -7.02,-28.14 z"
     fill="#ce1126"
     id="path38" />
  <path
     d="m 67.600004,121.63 c 6.54,13.6 -16.92,46.08 22.17,53.7 -4.82,-6.6 -7.93,-17.45 -6.76,-26.17 8.2,3.12 16.839999,12.25 20.330006,19.23 10.23002,-37.16 -26.240006,-34.9 -35.720006,-46.77 z"
     fill="#fcd116"
     id="path40" />
</svg>
