<?xml version="1.0" encoding="UTF-8" standalone="no"?>
<svg width="900" height="600" version="1.1" xmlns="http://www.w3.org/2000/svg" xmlns:cc="http://creativecommons.org/ns#" xmlns:dc="http://purl.org/dc/elements/1.1/" xmlns:rdf="http://www.w3.org/1999/02/22-rdf-syntax-ns#">
<metadata>
<rdf:RDF>
<cc:Work rdf:about="">
<dc:format>image/svg+xml</dc:format>
<dc:type rdf:resource="http://purl.org/dc/dcmitype/StillImage"/>
<dc:title/>
</cc:Work>
</rdf:RDF>
</metadata>
<rect width="900" height="600" style="fill:#00247d"/>
<g>
<path transform="translate(-225)" d="m769.47 147.53h256.88l-.306 182.79c2.1373 73.48-43.662 119.08-127.93 139.63-59.834-14.86-128.84-45.596-128.94-137.55l.30537-184.87z" style="fill:#ffffff"/>
<path transform="translate(-225)" d="m775.15 153.04h245.49l-.2914 175.16c2.0416 70.41-41.727 114.1-122.26 133.8-57.188-14.237-123.13-43.692-123.23-131.8l.29189-177.15z" style="fill:#00a2bd;stroke-width:1.8125;stroke:#000000"/>
<path transform="translate(-225)" d="m1018.7 348.94c-8.9307 67.21-60.692 96.576-120.66 112.16-53.073-14.238-110.17-36.968-121.24-111.82l241.9-.33785z" style="fill:#a53d08"/>
<path transform="translate(-225)" d="m888.36 185.66-.34221-22.075 17.455.17111.17111 21.904h47.743l.17109 17.113-47.914.17111-.38281 201.82-17.026.10728-.2175-202.09-47.582.17125.0101-17.455z" style="fill:#000000"/>
<g style="fill:#ff9a08;stroke-width:.9676;stroke:#000000">
<path transform="translate(-225)" d="m849.71 357.27 43.703 45.338c15.112-16.61 4.6299-78.696-15.247-90.13-2.3824 7.3516-6.4338 16.166-10.74 19.008-9.4744 6.457-32.692 14.006-24.932 18.84 1.7699-2.4505 6.3989-4.7648 8.5773.68151 2.5868 8.5769-9.6666 9.1221-9.6666 9.1221s-7.7604-.95411-9.1219-8.8509c-1.3614-7.8954 11.559-15.105 12.662-15.656 1.0891-.40891 17.971-4.9011 20.831-19.878 3.5395-14.705 7.2153-12.525 7.8968-12.798 22.055 2.1779 36.487 41.662 37.305 69.436.81634 27.774-11.3 46.154-13.479 47.379-2.1779 1.2253-52.553-59.768-52.553-59.768l4.7652-2.7231z" style="fill-rule:evenodd"/>
<path transform="translate(-225)" d="m881.57 315.06.27116 81.825m-5.1722-80.328c0 .13629.27116 74.338.27116 74.338m-5.5812-63.582.27115 59.088m-4.6282-54.868.27261 48.879m-4.9016-46.7v41.253m-5.038-37.985v32.675m-4.356-30.088v25.051"/>
<g style="fill:none;stroke-linecap:round;stroke-width:1.8125;stroke:#ffdf00">
<path transform="translate(-225)" d="m849.03 362.44 45.065 51.6" style="stroke-width:.9676"/>
<path transform="translate(-225)" d="m896.28 329.9s20.424 44.658 1.4979 81.417m-54.051-58.272s1.4977-3.9484 3.4038-2.3142m-6.9428-9.1218s-8.169 7.2153-3.6759 11.845"/>
</g>
</g>
<g style="stroke-width:.3987;stroke:#000000">
<path transform="translate(-225)" d="m905.78 228.04c3.0254-2.595 4.595-4.1811 6.4685-3.8925 1.8735.28798 4.4241.14367 6.2976-.43292 1.8798-.57723 11.177-1.7304 15-.43292 1.2975.14431 3.0254.86584 5.69 3.1007 2.6709 2.2342 6.5634 6.128 5.2659 16.942-1.2975 10.814-.87343 15.439-1.4431 21.483-1.0064 10.67-3.3735 19.455-7.6394 18.744 5.7659 10.093 6.3419 18.744 10.089 25.665 3.7532 6.921 6.0571 21.051 4.614 36.335-1.4367 15.284-5.4748 49.599 6.633 72.669-2.019 1.4418-6.9179 0-11.247-4.614-4.3229-4.614-6.2216-4.4628-9.804-1.7304-10.956 8.3628-21.216 18.442-36.33 8.3628-3.4621-2.307-4.557-5.0742-2.019-12.112 6.3419-17.59 9.4242-41.725 8.4242-53.06v-127.03z" style="fill:#008021"/>
<g style="fill:#ffe1cf">
<path transform="translate(-225)" d="m916.17 217.23c.79116 2.4513 1.2216 5.6229-.076 8.5065-1.2975 2.8836-1.5823 6.3444.57596 10.526 3.4621-4.902 8.3673-3.8925 11.247-6.7761 2.8861-2.8842 3.4621-5.6235 5.6267-6.2008-2.1646-1.8741-5.4811-3.8925-4.7596-9.3717.72154-5.4792 8.3609-9.9483 1.4431-18.312-4.4684-5.3982-10.962-3.8925-13.772-1.8019-1.3228.9823-2.4494 2.3785-2.8798 3.3159-.43671.93736.1076 3.0703-.94305 4.326-.71521.86457-1.5886 1.7247-2.595 2.4507-.64558.469-1.0506 1.1519-.36077 1.9469.27849.31772.78483.38545 1.3418.57849-.32279.64875-.68988 1.2956-1.0506 1.7646-.34178.43988-.19621.85951.21519 1.2178-.54431 1.7298.50634 1.9178-.21519 3.2159-.6266 1.1222-1.4747 2.45.8671 3.7488.64559.36013 3.7153 1.0722 5.3356.86521zm-28.045 28.693c-4.0381 1.0095-10.526-.72026-15.431-.1443-2.1646.2557-3.8925-.86458-3.6013-3.0273.28481-2.1633.57596-5.4792.13924-8.5071-.6709-4.7184 1.5886-11.246 4.7596-18.456 3.171-7.209 4.7596-11.246 4.7596-14.634 0-2.2349.2152-4.7583 2.2342-6.0558 1.4937-.95888 1.7785-1.8899 2.3102-2.6671 1.2215-1.8026 2.3735-2.2348 2.519-1.1532.0886.64305-.14557 1.2253-.72153 2.0906 1.2975-1.0817 3.5001-2.3437 4.0001-2.7038.50634-.36013 3.0697-2.1627 3.2089-.46836 1.0127-.50444 1.6962-.469 1.9494.0715.27216.58482.1076.82976-.39874 1.262.72153-.14431 1.5507 1.1177.10759 2.2348.75951-.25254 1.5127 1.0095.18355 2.1627-1.3798 1.1905-2.9558 2.019-3.4621 2.9558-.50634.93736-3.9305 3.569-5.2976 4.1456-1.3734.57659-1.4431 1.3678-1.4431 3.388 0 22.204-2.6646 20.4-2.6646 25.737 0 1.4418-.29114 2.7393 1.1519 2.3064 1.4431-.43229 3.5317-1.081 5.6963-1.081v12.544zm.861 47.869c6.5191-3.2583 13.988-4.4697 17.88-5.4786 3.8925-1.0095 10.095-4.0368 13.12-5.6229 3.0317-1.5867 5.4811-3.7494 7.209-4.326 1.7342-.57659 3.671-1.7696 4.7596-3.8925 5.6204-10.958 8.6521-19.752 8.6521-27.396 0-5.0463-1.2975-10.67-6.2026-6.6324-4.6077 3.795-9.6268 11.11-10.956 16.437-2.019 8.0742-3.7469 9.8046-4.1836 11.39-.43039 1.5867-2.0633 1.5848-4.038 2.019-8.5065 1.8747-10.526 3.1716-16.867 7.9299-6.3419 4.7583-13.266 8.94-17.88 11.535-4.614 2.5956-5.4748 2.8836-6.4875 4.9742-1.0064 2.0906-1.9431 3.6766-2.8102 4.6146-.86711.93673-1.114 2.0323-.93673 3.1716.14557.93736-.29115 5.2628-.36077 6.7046-.076 1.4418.28482 1.8026.86711 1.8741.57596.0728 1.3671-.21583 1.6583-1.9462-.29115 1.7304 2.0886 1.1532 2.2342-.14368-.076 1.8741 2.4494.79306 2.595-.93736 0 1.2253 1.9114.37786 2.0886-.21646.43038-1.4418.79115-3.0279 1.3671-4.1811.84179-1.6741 1.7405-3.8425 3.3925-5.0469 1.8735-1.3696 1.0064-2.8836 4.8988-4.8305zm46.716 118.09c.43672 1.5861 1.2279 3.3887 1.5127 4.4703.29115 1.081-.21519 1.4184-.50001 2.0184-1.5127 3.1722-3.1393 8.2286-3.3925 10.958-.13924 1.5861-1.2215 3.1001-1.7279 4.0374-.55698 1.0336-.34178 1.831.93672 2.8114.61394.46837 2.595-.1443 2.8102-1.1532.72153.72027 2.019.43229 2.595-.64938.65192.64938 1.7342.21646 2.4558-.86457.64558.43229 1.5823-.43292 1.9431-1.0102 1.0127.50508 2.095-.10759 2.1266-2.0899.006-.39811.25317-1.0817.54431-1.55.28482-.469.39242-1.3696.36077-2.1633-.038-.79306.46836-2.3785 1.1519-3.4963.68356-1.1177 1.8735-3.1001 1.3671-4.9741-.46837-1.7462-1.2216-1.5861-1.8735-4.109-1.5823-1.6589-3.7469-3.9659-5.9811-4.1102-2.2342-.14368-3.5317 1.3703-4.3292 1.8747zm-41.02 12.4c2.019 2.0184 6.5634 2.0906 9.7344-1.2981-1.1519-.50444-3.6773-1.6583-4.8292-2.595-1.5886 1.5861-3.3925 3.388-4.9052 3.8931z"/>
</g>
<path transform="translate(-225)" d="m915.09 195.03c.79116-5.1185 4.4178-4.9976 6.7027-4.4697.93672.21646 3.2469.43229 5.4052-.14431 4.2786-1.1399 7.5001.36077 7.0698 4.4704 1.1519.86457 2.3735 2.883 2.1583 4.614-.2152 1.7298.14557 2.4507 1.7342 2.6665 1.5823.21709 4.9748 2.1633 2.7342 4.9026 2.1646 1.2981 3.8229 4.614 2.6709 6.8489-1.1519 2.2348-4.614 2.5956-6.0571.57659-1.5823.7209-4.1836.86521-5.7659-.79242-1.0823 1.2969-3.8229 1.1532-4.3292 0-.50001-1.1538-1.3545-1.7709-2.3735-2.0912-1.1582-.36014-1.2279-3.5324.50001-3.8931-.2152-.93736-.13925-2.0184.29114-2.5228s.0696-1.4418-.93673-2.2355c-1.0127-.79305-1.8734-3.821-.8671-5.4786-1.7279.5766-5.5507-1.0817-6.3419-2.2348-.79748-1.1538-1.8734-1.2253-2.595-.21646z" style="fill:#870f00"/>
<g style="fill:none">
<path transform="translate(-225)" d="m916.17 217.23c2.8102-.36077 3.7469-2.0906 5.8356-1.9469m-11.823-5.8821c.18355.16202.41773.2943.68356.44051.56963.3076 1.1899.34305 1.7659.41457m-1.6144-3.8381c.39242.13544.81014.33292 1.1836.719m5.3354-12.111c-1.6583-1.5861 2.8102-4.8298 7.5002-.21646.87343.86141 3.095.86584 3.7469.64875m-4.759 2.0187c2.1646-.50507 5.4052-.50507 6.3419 1.9462.94306 2.4513 2.8165.86521 4.3292 3.7494 1.5127 2.8836 3.8925 6.1273 6.1963 3.8925m-9.1524 6.6328c-.65191-.86521-.93673-2.7399-.50634-4.0381-.86711-1.0089-.50634-3.0994 0-4.1089m-5.6957 2.163c.076.86521 1.2279 2.4513 3.0317 2.7393m8.9363 4.0377c-1.0064-1.2975-.86711-2.4507-.64559-4.0374"/>
<path transform="translate(-225)" d="m926.98 200.14c-.0696 1.2975.72154 3.0279 2.0886 3.6045.29115.72027 1.7342 2.7393 4.614 2.4513m.58233-11.319c-1.5823-1.2279-3.7279-2.7406-6.5634-3.1146m-11.033 44.495c-2.4494 3.3165-4.038 7.9299-2.8798 14.419 1.1519 6.4887 3.0254 16.005-1.7342 20.33m23.361 12.544c-3.3165-.72027-8.0761-.72027-10.671 1.1538s-6.9242 2.0184-9.804.57659"/>
<path transform="translate(-225)" d="m928.42 283.34c-2.8861.50444-4.2532 2.5228-4.2532 7.8578 0 5.3349-1.1519 13.12-.14557 20.762m-.86718-26.385c-1.8734.50444-3.8165.57596-3.4558 5.6229m-6.2722.14411c.0696-3.1001 1.1519-5.9837 3.171-5.4792m17.589 6.0562c.14558-6.8489-1.3671-8.7951-3.3861-8.723 2.7406.0721 4.6077.40697 5.7659 11.607.8671 8.3628 2.614 11.323 4.614 17.88 5.19 17.014 2.595 43.255 5.19 52.483m-16.147-71.228c5.4748 15.861 8.3609 33.451-.57596 61.711 6.0508 16.726 12.108 28.837 13.26 35.758m-29.988-59.982c1.0064-3.6039-2.595-4.0368.57596-16.725 1.3734-5.4963 1.5886-8.7951.72154-10.526m5e-4 7.4985c-1.2975 5.6235 4.1836 16.149 1.4431 23.79m-6.7791 1.4417c0 4.902 1.1519 11.246.8671 16.149-.29114 4.902 1.7089 7.1736 4.0381 11.823 8.3609 16.726 14.051 28.659 13.26 44.409-.13924 2.8836.86711 8.9394-2.1583 10.669m-15.792 4.2537c.86711.0721 1.8038-.36014 2.8861-2.9558s4.5444-18.167 3.1013-28.837m1.7285 12.112c.43039 3.3159.43039 10.093-1.7279 15.428m7.2089-25.376c1.2975 7.0653 1.1519 13.41.14557 17.879m-3.0316-8e-4c.14558 2.8836 1.4431 10.093-.72153 10.67m11.538-44.12c5.3292 8.3628 9.5128 28.982 13.981 33.306m-9.3673-3.3164c-.14558-2.307-.29115-5.4786-1.5886-6.921m-56.013-94.008c.0696-1.5867-.2152-3.1007 1.5127-5.5514m-4.1077 6.4884c.21519-5.5514.13924-6.0564 1.7279-7.5704m-3.9619 7.7144c.0696-3.9646-.43672-5.3349 1.1519-7.8584m18.741-111.09c-.61393.39621-4.2153 3.1355-5.728 4.2893m7.278-2.9563c-.68356.10759-2.6646 1.7304-6.1963 4.4697m6.3043-2.2347c-1.1139.50444-3.2406 2.5596-5.19 3.9292m-3.677-4.3252c-.53798.39621-1.5823 1.55-2.0886 1.9462m52.337 239.71c-.3228-.36076-.3228-1.6228.25317-3.0279m2.3408 2.3789c-.39241-.39621 0-2.1266.39875-3.2444m2.0572 2.3794c-.46837-.21646-.61394-1.226.0696-2.5956m1.8734 1.5856c-.32279-.10759-.46836-.64874.1076-2.2342"/>
</g>
<g style="fill:#000000;stroke:none">
<path transform="translate(-225)" d="m913.97 199.57c1.0443 1.3696 2.1266 1.2247 2.3165 2.1076.18988.88419.32912.94685.53165 1.2089.20254.2614-.49368.20887-.83545.0677-.33545-.14114-1.1836-.12658-1.7026-.11899-.51267.008-1.1266-.59874-.74052-.67026.37975-.0709.32912-.19051.27216-.4595-.057-.26836.21519-.69306.37342-.77091.16456-.0779.0506-.0633-.0949-.42342-.1519-.36077-.34178-1.2361-.12025-.94116zm.633-1.254c1.1709.13734 3.1899.76963 4.2849 1.9817.86077.95318.15823.70065-.27849.73609-.43672.0367-1.2912-.27279-1.7216-.81457-.42406-.54115-1.6962-1.2272-2.3735-1.4057-.4114-.10633-.79748-.60191.0886-.49747z"/>
</g>
</g>
</g>
<g transform="scale(1.2)">
<path d="m0 .00029052v30.046l142.43 94.954-142.43 94.954v30.046l45.068 6e-5 142.43-94.954 142.43 94.954 45.068 6e-5-.00029-30.046-142.43-94.954 142.43-94.954v-30.046h-45.068l-142.43 94.954-142.43-94.954z" style="fill-rule:evenodd;fill:#ffffff"/>
<path d="m0 250 125-83.334h27.951l-130.42 83.334zm0-250 125 83.333h-27.951l-97.049-64.699zm222.05 83.333 125-83.333h27.951l-125 83.333zm152.95 166.67-125-83.333h27.951l97.05 64.699z" style="fill:#cf142b"/>
<path d="m187.5.00029052v250m-187.5-125h375" style="stroke-width:83.333;stroke:#ffffff"/>
<path d="m187.5.00029052v250m-187.5-125h375" style="stroke-width:50;stroke:#cf142b"/>
</g>
</svg>