<?xml version="1.0" encoding="UTF-8" standalone="no"?>
<svg
   width="900"
   height="600"
   viewBox="0 0 75 50"
   fill="none"
   version="1.1"
   id="svg21"
   sodipodi:docname="nf.svg"
   inkscape:version="1.1.1 (3bf5ae0d25, 2021-09-20)"
   xmlns:inkscape="http://www.inkscape.org/namespaces/inkscape"
   xmlns:sodipodi="http://sodipodi.sourceforge.net/DTD/sodipodi-0.dtd"
   xmlns="http://www.w3.org/2000/svg"
   xmlns:svg="http://www.w3.org/2000/svg"
   xmlns:rdf="http://www.w3.org/1999/02/22-rdf-syntax-ns#"
   xmlns:cc="http://creativecommons.org/ns#"
   xmlns:dc="http://purl.org/dc/elements/1.1/">
  <sodipodi:namedview
     id="namedview23"
     pagecolor="#ffffff"
     bordercolor="#666666"
     borderopacity="1.0"
     inkscape:pageshadow="2"
     inkscape:pageopacity="0.0"
     inkscape:pagecheckerboard="0"
     showgrid="false"
     inkscape:zoom="0.66833333"
     inkscape:cx="656.85786"
     inkscape:cy="361.34663"
     inkscape:window-width="1920"
     inkscape:window-height="991"
     inkscape:window-x="-9"
     inkscape:window-y="-9"
     inkscape:window-maximized="1"
     inkscape:current-layer="svg21" />
  <title
     id="title2">Flag of Saint Kitts and Nevis</title>
  <defs
     id="defs7">
    <clipPath
       id="f">
      <path
         d="m0 0h75v50H0z"
         id="path4" />
    </clipPath>
  </defs>
  <rect
     width="75.333611"
     height="50.178719"
     fill="#007934"
     id="rect932"
     x="-0.1345249"
     y="-0.0066491701"
     style="stroke-width:0.0945108" />
  <rect
     width="29.999998"
     height="50.178719"
     x="21.616377"
     fill="#ffffff"
     id="rect934"
     y="-0.0066491701"
     style="stroke-width:0.0953433" />
  <path
     fill="#007934"
     d="m 37.225129,9.0657894 c -0.06701,0.7253162 -0.134167,1.4509996 -0.201175,2.1763326 -0.245634,0.03701 -0.4912,0.07386 -0.736834,0.110867 -1e-6,0 0.51175,0.287358 0.6011,0.576008 0.0143,0.04623 0.0086,0.08449 -0.01212,0.113275 -0.0068,0.009 -0.01722,0.019 -0.02666,0.02651 -0.148242,0.113925 -0.586567,0.06025 -0.586567,0.06025 0,-2e-6 0.580667,0.48995 0.625342,0.667592 10e-4,0.0042 0.0023,0.008 0.0024,0.01206 -5.7e-5,0.0033 6.66e-4,0.0088 0,0.01204 -6.67e-4,0.0026 -0.0038,0.0071 -0.0049,0.0097 -0.004,0.0087 -0.01112,0.01854 -0.01939,0.02651 -0.136517,0.1261 -0.780467,0.161475 -0.780467,0.161475 0,0 0.713975,0.509091 0.75865,0.797733 0.04049,0.261592 0.0065,0.414808 0,0.441042 -0.04989,-0.04262 -1.20125,-1.010167 -1.943917,-0.727842 -0.03699,0.01922 -0.05888,0.03753 -0.06787,0.05543 -0.004,0.0089 -0.0048,0.02006 -0.0024,0.02892 0.05203,0.160942 1.10225,0.325808 1.834833,0.95925 -0.01817,0.158517 -2.087916,-0.504225 -2.164416,-0.08917 0.06474,0.117033 2.227416,0.42875 2.387416,0.710975 -0.796483,0.02962 -2.441916,-0.175292 -2.387416,0.08677 -0.16645,0.30255 1.554083,0.131667 2.275916,0.378383 0.211592,0.239084 0.191167,0.439925 -0.176941,0.465142 -0.695734,-0.330775 -2.252834,-0.576567 -2.256584,-0.154242 3.7e-5,5e-4 -7.6e-5,0.002 0,0.0024 1.67e-4,5e-4 0.0022,0.002 0.0024,0.0024 6.67e-4,0.0013 0.0013,0.0036 0.0024,0.0048 0.0025,0.0024 0.008,0.005 0.01212,0.0072 0.175833,0.08771 1.625833,0.04493 2.17175,0.404892 -0.773992,0.175066 -3.3985,-0.35515 -3.415167,-0.0964 0.07477,0.12085 0.490059,0.651241 1.204667,0.629025 0.714575,-0.02221 2.367833,0.2889 2.479583,0.510933 0.0035,0.0069 0.0035,0.01405 0.0024,0.01928 -0.04839,0.15485 -2.177167,-0.472359 -2.995833,-0.08677 -0.8485,0.399725 2.433166,0.157408 2.969166,0.6459 0.53595,0.488492 -1.071333,-0.04579 -1.071333,-0.04579 2e-6,0 -2.231917,-0.309641 -2.566833,-0.154241 -0.334992,0.155475 -0.715025,0.510933 -0.715025,0.510933 0,0 0.222683,0.44305 0.445983,0.354283 0.03402,-0.01354 0.05727,-0.0163 0.07029,-0.01204 3.33e-4,1.67e-4 0.0021,-1.67e-4 0.0024,0 3.33e-4,1.67e-4 0.0021,0.0022 0.0024,0.0024 5e-4,3.34e-4 0.002,0.002 0.0024,0.0024 3.33e-4,5e-4 0.002,0.0019 0.0024,0.0024 1.67e-4,1.67e-4 0.0023,0.0021 0.0024,0.0024 10e-4,0.0022 0.002,0.0069 0.0024,0.0096 0.0053,0.06661 -0.1527,0.260291 -0.1527,0.260291 0,0 3.127667,0.753425 3.819917,1.4195 0.692233,0.666183 -3.975,-1.043583 -3.975,-1.043583 0,-2e-6 -1.875833,0.688233 0.111492,0.732658 -0.221508,0.322233 0.09175,0.520567 0.111491,0.532625 0,0 3.305667,0.688992 3.640584,1.221917 0.334991,0.532916 -2.25525,-0.51155 -2.835834,-0.800142 -0.560141,-0.278525 -2.119333,0.1473 -2.208083,0.277158 -6.66e-4,0.001 -0.002,0.0038 -0.0024,0.0048 -1.67e-4,5e-4 1.66e-4,0.0019 0,0.0024 -1.67e-4,10e-4 -7.4e-5,0.0039 0,0.0048 7.6e-5,5e-4 -7.9e-5,0.002 0,0.0024 1.66e-4,5e-4 -1.67e-4,0.002 0,0.0024 1.66e-4,5e-4 0.0022,0.002 0.0024,0.0024 1.67e-4,5e-4 -1.66e-4,0.002 0,0.0024 0.001,0.0018 0.0035,0.0054 0.0049,0.0072 3.34e-4,5e-4 0.002,0.002 0.0024,0.0024 0.09988,0.109441 0.795867,0.260158 0.816825,0.448275 7.7e-5,8.33e-4 -5.7e-5,0.0017 0,0.0024 3.33e-4,0.01005 -0.0028,0.02193 -0.0073,0.03133 -0.08767,0.169025 -0.918,0.240925 -0.952584,0.400075 -5e-4,0.0027 -0.0024,0.0069 -0.0024,0.0096 -2e-6,0.177692 4.177083,1.043667 5.293583,1.97625 1.1165,0.932583 -3.281834,-1.111083 -3.281834,-1.111083 0,0 0.245642,0.332916 0,0.421766 -0.245641,0.08877 -1.118249,-1.243333 -2.547416,-0.421766 -0.2603,0.338025 1.247833,0.606316 1.63125,0.643483 -0.130925,0.334717 -0.245092,0.445442 0.290858,0.778458 0.05861,0.03643 0.09152,0.05844 0.104225,0.06989 3.33e-4,3.33e-4 0.0021,0.0021 0.0024,0.0024 l 0.0024,0.0024 c 1.67e-4,1.67e-4 -7.7e-5,0.0022 0,0.0024 -4.8e-5,1.66e-4 7.7e-5,0.0023 0,0.0024 -1.67e-4,3.4e-5 -0.0021,-10e-6 -0.0024,0 -3.33e-4,-1.6e-5 -0.0021,4e-5 -0.0024,0 -0.08301,-0.01292 -1.045833,-0.504925 -1.1465,-0.5254 -10e-4,-1.66e-4 -0.0041,6e-5 -0.0048,0 -3.33e-4,1.9e-5 -0.0022,-4.5e-5 -0.0024,0 0,0.04442 0.111491,0.578417 0.111491,0.578417 -0.494766,-0.39965 -1.092833,-0.52015 -1.653,-0.110858 -8.33e-4,0.02368 -0.0049,0.406875 0.557475,0.643491 -0.316991,0.64405 0.358217,0.444084 1.430084,1.043584 -1.593,-0.413992 -1.720584,0.355016 -0.581709,0.532625 1.138875,0.177608 4.265833,0.2889 5.00275,1.243583 0.155442,0.2014 0.197625,0.302666 0.167242,0.335 -0.122909,0.110758 -1.253667,-0.702459 -1.417917,-0.732659 -3.33e-4,1.67e-4 -0.0021,-3.33e-4 -0.0024,0 -3.34e-4,3.34e-4 -0.0021,0.002 -0.0024,0.0024 -0.0021,0.0026 -0.0052,0.0077 -0.0073,0.01205 -0.04013,0.08833 -0.07756,0.472375 -0.07756,0.472375 -0.476383,-0.274175 -0.9135,-0.520117 -1.483333,-0.636258 -0.04468,0.08877 -0.03531,0.2149 -0.07999,0.303666 -0.517108,-0.3708 -0.967583,-0.631499 -1.7185,-0.667591 -0.02978,0.118458 -0.0599,0.238233 -0.08968,0.356691 2e-6,-1e-6 -0.626017,-0.777158 -1.85425,0 -0.6858,0.488875 2.59075,0.177017 3.126666,0.75435 0.53595,0.577259 0.1115,0.665184 0.1115,0.665184 -0.446599,-0.162809 -0.891333,-0.324025 -1.337916,-0.486834 0,0 -1.587,-0.290158 -2.033583,0.06507 -0.4466,0.3553 6.520249,1.2215 6.721166,2.176333 0.1355,0.5178 -1.636833,-0.542208 -3.170333,-0.99775 -0.05932,0.169492 -0.120042,0.339034 -0.179359,0.508525 -0.03637,-0.03578 -0.629566,-0.609491 -1.294333,-0.708558 -1.66e-4,3.33e-4 -0.0022,0.0018 -0.0024,0.0024 -7.8e-5,8.33e-4 2e-5,0.0037 0,0.0048 0.001,0.07287 0.135733,0.592875 0.135733,0.592875 -10e-7,2e-6 -1.71775,-0.800242 -2.588583,-0.378383 -0.870917,0.421858 3.036083,0.643833 3.393333,1.043583 0.03907,0.04371 0.05534,0.07558 0.05332,0.09641 -6.66e-4,0.0036 -0.0031,0.0091 -0.0049,0.01203 -0.0863,0.125675 -1.251416,-0.338484 -1.366999,-0.10845 -0.134025,0.266458 -2.031667,-0.487775 -2.009334,-0.132559 0.02234,0.3553 0.269042,0.554317 0.269042,0.554317 -2e-6,0 3.9525,0.377242 4.0865,0.8435 0.13395,0.466283 -2.188667,-0.265108 -2.188667,-0.265108 0,0 -0.224675,0.331433 -0.04605,0.486833 0.007,0.0061 0.01255,0.01188 0.01453,0.01445 5.8e-5,1.67e-4 -1.3e-5,0.0023 0,0.0024 -1.67e-4,-5.4e-5 -0.0021,7.6e-5 -0.0024,0 -0.08073,-0.02648 -1.339167,-0.846084 -1.21675,-0.216909 -0.492442,-0.194966 -1.763834,-0.798866 -1.585167,-0.332591 0.176,0.459425 3.492083,1.113583 3.589667,1.13275 -0.08769,0.0069 -1.490084,0.123533 -1.425167,0.48925 -1.879583,-1.138584 -1.875167,-0.4558 -1.832417,-0.402484 7.7e-5,7.4e-5 -7.8e-5,0.0023 0,0.0024 -0.105591,-0.0166 -2.418,-0.589417 -0.579291,0.400075 0.986083,0.530617 1.226416,0.737475 1.231333,0.817017 3.2e-5,0.0018 1.67e-4,0.0056 0,0.0072 -3.33e-4,0.0021 -0.0017,0.0053 -0.0024,0.0072 -1.66e-4,5e-4 -0.0022,0.002 -0.0024,0.0024 -8.33e-4,0.0013 -0.0015,0.0036 -0.0024,0.0048 -3.33e-4,3.33e-4 -0.0021,0.002 -0.0024,0.0024 -3.33e-4,3.34e-4 -0.002,0.0021 -0.0024,0.0024 -3.34e-4,3.33e-4 -0.002,0.0021 -0.0024,0.0024 -5e-4,3.33e-4 -0.002,0.0021 -0.0024,0.0024 -0.03823,0.02432 -0.1306,0.01413 -0.15755,0.01445 -0.0012,4.2e-5 -0.004,-7.6e-5 -0.0048,0 -5e-4,1.67e-4 -0.0023,0.0022 -0.0024,0.0024 l 0.0024,0.0024 c 0.02623,0.03878 0.1705,0.430383 0.162391,0.498883 -1.66e-4,0.0012 -0.0021,0.0039 -0.0024,0.0048 -1.67e-4,3.33e-4 1.67e-4,0.0021 0,0.0024 -7.7e-5,1.67e-4 -0.0023,-1.66e-4 -0.0024,0 -1.67e-4,7.7e-5 1.66e-4,0.0023 0,0.0024 -1.67e-4,4.3e-5 -0.0023,-3e-5 -0.0024,0 -1.66e-4,-2e-5 -0.0022,4e-5 -0.0024,0 -0.08058,-0.02019 -1.298417,-0.667317 -1.716083,-0.710967 -0.424342,-0.04443 -2.434584,0.55445 -0.290859,1.487 2.143725,0.93255 3.4605,-0.222441 4.644,-0.08917 1.1835,0.133192 1.742833,0.333458 1.63125,0.710975 -0.111692,0.377442 -1.210667,-1.2375 -2.365666,0.159067 -1.313834,-0.258517 -2.205167,-0.408117 -1.527,0.551908 -2.145584,-0.797292 -3.455834,0.243242 -0.7538,0.665183 2.655166,0.07782 4.287666,-0.643491 4.287666,-0.643491 0,10e-7 0.447917,0.823166 1.095583,0.245825 0.617209,-0.5502 0.665759,0.150041 0.688359,0.216908 3.33e-4,10e-4 0.0021,0.0019 0.0024,0.0024 1.67e-4,1.66e-4 -1.67e-4,0.0023 0,0.0024 1.67e-4,0 0.0022,3.4e-5 0.0024,0 0.04769,-0.01192 0.622916,-0.267516 0.622916,-0.267516 0.05212,10e-7 0.105425,0 0.15755,0 v 5.329395 c 0.722025,0.0074 1.442417,0.01428 2.164417,0.02169 0,0 -0.692258,-4.6395 -0.312667,-5.261167 0.3678,-0.602258 0.715525,-0.53725 0.736834,-0.532625 0,0 1.407083,0.420917 1.563333,0.354284 0.0018,-8.34e-4 0.0055,-0.0015 0.0073,-0.0024 0.0012,-6.67e-4 0.0038,-0.0018 0.0048,-0.0024 0.0027,-0.0017 0.0072,-0.0052 0.0097,-0.0072 5e-4,-3.33e-4 0.0019,-0.002 0.0024,-0.0024 0.11435,-0.1038 -0.0022,-0.513408 0.712599,-0.450683 0.220692,-0.07982 0.136484,-0.429658 0.278734,-0.515758 0.0025,-0.0015 0.007,-0.0035 0.0097,-0.0048 0.0054,-0.0025 0.01342,-0.0054 0.01939,-0.0072 0.0083,-0.0024 0.01949,-0.0038 0.02909,-0.0048 0.2233,-0.02221 4.532666,1.198 5.4705,0.04338 -0.245642,-0.643892 -1.09525,-0.0439 -1.318584,-0.02169 -0.200966,2e-6 -1.050166,-0.39965 -1.5415,0 -0.4466,-0.333016 -2.477166,-0.554316 -2.477166,-0.554316 -0.267975,-0.266459 4.84575,0.132341 5.136,-0.06748 0.602891,-0.59955 -1.116,-0.532417 -1.384,-0.332592 -0.476384,-0.288666 -1.075,-0.267308 -1.43975,-0.06748 -0.1749,-0.416 -1.835334,-0.235825 -2.75825,-0.354283 -0.295433,-0.172292 -0.246242,-0.271183 -0.04605,-0.378383 1.927833,0.08144 3.845917,0.331741 5.783167,0.245825 0.523616,-0.67875 -0.659175,-0.93475 -1.384,-0.356692 -0.425509,-0.6958 -1.295417,-0.02262 -1.876,-0.08918 -0.58055,-0.06664 -0.312675,-0.776158 0.424166,-0.665183 0.736917,0.111058 2.054584,-0.04529 2.300167,-0.378384 0.245558,-0.333016 -0.146633,-0.670408 -1.362167,-0.354283 -0.411391,-0.3998 -1.316,-6.67e-4 -1.740333,0.132558 -0.564492,-0.313116 -1.877833,-0.04357 -2.324416,0.06748 -0.437217,-0.270233 2.300166,-0.710967 2.300166,-0.710967 1.056583,-0.01859 1.652583,-0.200366 1.9875,-0.289208 1.597333,-0.85125 -0.02224,-0.941667 -0.860417,-0.32295 -0.520283,-0.403892 -1.014416,0.03492 -1.483333,0.1904 -0.439633,0.145692 -1.252667,0.251808 -1.3525,0.209675 -0.0012,-5e-4 -0.0039,-0.0018 -0.0048,-0.0024 -1.67e-4,-1.66e-4 -0.0022,-0.0022 -0.0024,-0.0024 l -0.0024,-0.0024 c -7.7e-5,-1.67e-4 5.3e-5,-0.0022 0,-0.0024 0,-1.66e-4 -3.8e-5,-0.0021 0,-0.0024 3.33e-4,-0.001 0.0017,-0.0037 0.0024,-0.0048 0.06586,-0.101525 1.270083,-0.836333 1.270083,-0.836333 0,-2e-6 1.563333,-0.112234 1.876,-0.15665 0.190517,-0.02707 0.85825,-0.341375 0.858,-0.457917 -0.0056,-0.07234 -0.2838,-0.06569 -1.127083,0.147017 -0.75925,0.06663 -1.205167,0.02358 -1.4955,0.04579 -0.4669,-0.048 -0.663609,-0.09693 -0.7029,-0.139783 -0.0015,-0.0018 -0.0039,-0.0054 -0.0048,-0.0072 -0.0033,-0.0077 -0.0012,-0.01668 0.0048,-0.0241 0.0015,-0.0017 0.0053,-0.0055 0.0073,-0.0072 0.11445,-0.09089 0.853167,-0.156658 0.853167,-0.156658 0,2e-6 2.25525,-0.20565 2.404416,-0.32295 5e-4,-5e-4 0.002,-0.002 0.0024,-0.0024 8.33e-4,-0.001 0.0019,-0.0039 0.0024,-0.0048 1.66e-4,-5e-4 0.0023,-0.002 0.0024,-0.0024 0.04641,-0.916833 -1.91325,-0.493475 -1.965667,-0.486833 0.0056,-0.644692 -1.768666,-0.0095 -1.85175,0 -1.66e-4,-2.4e-5 -0.0023,4.3e-5 -0.0024,0 -0.07634,-0.04472 -0.109608,-0.09191 -0.116342,-0.134967 -0.0022,-0.01642 -7.6e-5,-0.03489 0.0049,-0.05061 0.04444,-0.132933 0.312667,-0.236183 0.312667,-0.236183 0.491275,-0.118383 1.225833,-0.155342 1.417917,-0.3109 0,0 1.386583,-0.01213 1.55125,-0.378383 -0.340259,-0.933417 -2.934417,0.165233 -3.281834,0.332591 -0.06961,0 -0.112233,-0.01739 -0.133308,-0.04579 -0.114067,-0.165717 0.448858,-0.711425 0.467792,-0.73025 1.66e-4,-1.67e-4 0.002,-0.0022 0.0024,-0.0024 0.08579,-0.0242 2.157,-0.129575 3.146084,-1.462916 0.06981,-0.824442 -1.182834,0.465141 -1.182834,0.465141 -0.09354,-1.06925 -1.362083,0.06781 -2.099,0.156659 -0.736841,0.08877 -0.758416,-0.333434 -0.244808,-0.400075 0.513533,-0.06656 1.093667,-0.02298 1.384,-0.800142 0.290242,-0.777158 1.16225,0.04525 1.318583,-0.243417 0.151409,-0.27965 -0.285308,-0.518025 -0.312666,-0.532625 1e-6,0 0.647133,-0.668108 -0.40235,-0.6459 -1.038917,0.02199 -2.382084,-0.129466 -2.40925,-0.13255 0.06515,-0.02473 1.123333,-0.421591 2.118416,-0.400075 1.02725,0.02221 0.468709,-0.732666 -0.51385,-0.732666 -0.9825,0 -1.4955,-0.332592 -1.4955,-0.332592 0.558292,-0.207225 1.116584,-0.414575 1.674834,-0.6218 -0.03723,-0.1554 -0.07427,-0.309742 -0.1115,-0.465142 0,0 0.982166,-0.777716 -0.40235,-0.600108 -1.3845,0.177692 -1.5415,0.200033 -1.5415,0.200033 -2e-6,0 -2.725417,0.415275 -2.789833,0.421767 -1.67e-4,0 -0.0022,2.8e-5 -0.0024,0 -0.02638,-0.0041 -0.296325,-0.08751 -0.3466,-0.1904 -0.0015,-0.0034 -0.0038,-0.0086 -0.0049,-0.01204 -0.0012,-0.0041 -0.002,-0.0103 -0.0024,-0.01445 -3.33e-4,-0.0049 -8.33e-4,-0.01194 0,-0.01687 0.01125,-0.05422 0.09532,-0.11285 0.31025,-0.166292 0.714575,-0.177617 3.239166,-0.687583 3.61875,-0.554317 0.04894,0.01717 0.08467,0.01329 0.10665,-0.0048 0.142333,-0.128066 -0.3312,-0.944833 -1.493083,-1.060416 -1.339834,-0.133192 -2.164417,0.332591 -2.164417,0.332591 0,0 -0.871833,-0.311958 -0.06787,-0.578416 0.80385,-0.266384 2.077167,0.08918 2.077167,0.08918 -2e-6,0 1.428333,-0.4225 0.2448,-0.600108 -1.1835,-0.177692 -1.556667,0.159758 -2.099,0.178349 -0.216475,-0.268691 1.858083,-0.332124 1.9875,-0.554316 -0.2188,-0.3998 -1.502333,0 -2.254167,0 -0.319783,-0.134883 -0.340941,-0.354358 0.02182,-0.489242 0.7667,-0.02961 1.487417,0.01515 2.254167,-0.01445 -0.02234,-0.40705 5e-4,-0.889583 -0.02181,-1.296583 -0.9725,-0.176692 -2.112917,0.129392 -2.658917,0.103633 0.14605,-0.444149 2.24575,-0.558791 2.479583,-0.679641 0.482434,-0.599608 -2.013916,-0.0093 -2.07475,0 -0.443108,-0.06509 -0.416275,-0.343583 -0.135733,-0.510933 0.647558,-0.07404 2.09975,0.09436 1.989917,-0.342234 -0.08415,-0.409108 -1.006834,-0.190066 -1.386417,-0.101225 -0.379583,0.08877 -0.938,0.02169 -0.938,0.02169 -0.243083,-0.325416 2.189167,-0.192408 2.166917,-0.44345 -0.03172,-0.288225 -1.54175,-0.08969 -2.055417,-0.06748 -0.395033,-0.271016 1.857167,-0.451208 1.96325,-0.486833 5e-4,-3.33e-4 0.0021,-0.0022 0.0024,-0.0024 0.08416,-0.738125 -1.563333,0 -1.876,0 -0.05374,0 -0.09441,-0.01334 -0.123616,-0.03615 -0.0065,-0.0053 -0.01392,-0.01314 -0.01939,-0.01928 -0.107333,-0.124508 -0.01212,-0.409717 -0.01212,-0.409717 0,0 0.587109,-0.262325 0.622917,-0.325358 1.67e-4,-5e-4 0.0023,-0.0019 0.0024,-0.0024 7.2e-5,-1.67e-4 -5.1e-5,-0.0022 0,-0.0024 -6e-6,-1.66e-4 2.7e-5,-0.0022 0,-0.0024 -1.66e-4,-3.33e-4 -0.0022,-0.0021 -0.0024,-0.0024 -0.0013,-0.0019 -0.0046,-0.0051 -0.0073,-0.0072 -0.06892,-0.05277 -0.47275,-0.185975 -0.525959,-0.1904 -3.33e-4,-1.8e-5 -0.0021,0 -0.0024,0 -3.33e-4,-1.25e-4 -0.0021,-0.0022 -0.0024,-0.0024 -6.66e-4,-5e-4 -0.0018,-0.0017 -0.0024,-0.0024 -3.33e-4,-3.33e-4 -0.0021,-0.0019 -0.0024,-0.0024 -0.03042,-0.06207 0.0073,-0.503708 0.0073,-0.503708 0,0 0.465208,-0.346642 0.494458,-0.484425 1.67e-4,-0.0012 -1.66e-4,-0.0037 0,-0.0048 1.67e-4,-0.0012 -5.6e-5,-0.0038 0,-0.0048 2.5e-5,-0.001 4.2e-5,-0.0038 0,-0.0048 -7.3e-5,-10e-4 1.67e-4,-0.0038 0,-0.0048 -7.6e-5,-5e-4 7.7e-5,-0.002 0,-0.0024 -3.33e-4,-0.0013 -0.0019,-0.0035 -0.0024,-0.0048 -1.67e-4,-5e-4 1.67e-4,-0.002 0,-0.0024 -1.67e-4,-3.33e-4 -0.0022,-0.002 -0.0024,-0.0024 -5e-4,-8.33e-4 -0.0019,-0.0017 -0.0024,-0.0024 -8.33e-4,-0.0012 -0.0015,-0.0038 -0.0024,-0.0048 -3.34e-4,-3.33e-4 -0.002,-0.0021 -0.0024,-0.0024 -0.0019,-0.0015 -0.005,-0.0035 -0.0073,-0.0048 -10e-4,-5e-4 -0.0039,-0.0019 -0.0049,-0.0024 -0.117492,-0.05609 -0.603525,0.110866 -0.603525,0.110866 -2e-6,-0.148025 0,-0.295425 0,-0.443458 -2e-6,0 0.425542,-0.046 0.470217,-0.245825 0.0026,-0.01171 0.0013,-0.02322 0,-0.03374 -6.67e-4,-0.0042 -0.0012,-0.01046 -0.0024,-0.01445 -0.0028,-0.0086 -0.0069,-0.01874 -0.01213,-0.02651 -8.33e-4,-0.0012 -0.004,-0.0037 -0.0048,-0.0048 -0.09787,-0.125457 -0.494959,-0.142674 -0.494959,-0.142674 -0.07446,-0.777133 -0.148525,-1.5534167 -0.222992,-2.3304993 z m -0.3975,7.6109986 v 0.306083 c 10e-7,0 -0.500775,-0.0255 -0.593834,-0.103633 -5e-4,-3.33e-4 -0.002,-0.002 -0.0024,-0.0024 -3.33e-4,-3.34e-4 -0.002,-0.002 -0.0024,-0.0024 -3.34e-4,-3.33e-4 -0.0021,-0.002 -0.0024,-0.0024 -3.33e-4,-3.33e-4 -0.0021,-0.002 -0.0024,-0.0024 -8.33e-4,-0.0012 -0.0018,-0.0036 -0.0024,-0.0048 -1.67e-4,-3.34e-4 1.66e-4,-0.002 0,-0.0024 -1.67e-4,-3.33e-4 -0.0023,-0.002 -0.0024,-0.0024 -7.7e-5,-3.33e-4 7.3e-5,-0.002 0,-0.0024 -7.7e-5,-8.34e-4 8e-6,-0.004 0,-0.0048 1.8e-5,-5e-4 -4.2e-5,-0.002 0,-0.0024 6.7e-5,-5e-4 -7.7e-5,-0.002 0,-0.0024 5e-4,-0.0018 0.0015,-0.0054 0.0024,-0.0072 1.66e-4,-5e-4 0.0022,-0.002 0.0024,-0.0024 0.0012,-0.0019 0.0033,-0.0053 0.0048,-0.0072 5e-4,-5e-4 0.002,-0.0019 0.0024,-0.0024 10e-4,-0.001 0.0038,-0.0038 0.0048,-0.0048 0.0034,-0.0029 0.0077,-0.0066 0.01212,-0.0096 0.168008,-0.116958 0.503458,-0.1142 0.569592,-0.13255 5e-4,-1.66e-4 0.0019,1.67e-4 0.0024,0 5e-4,-1.66e-4 0.002,-0.0022 0.0024,-0.0024 3.33e-4,-1.67e-4 0.0021,1.67e-4 0.0024,0 3.33e-4,-1.67e-4 0.0022,-0.0022 0.0024,-0.0024 z m 0.710175,0.4073 c 0.0173,0 0.9975,0.0084 1.083416,0.134967 6.67e-4,10e-4 0.0019,0.0037 0.0024,0.0048 6.66e-4,0.0017 0.002,0.0055 0.0024,0.0072 1.67e-4,0.0012 -6e-5,0.0037 0,0.0048 -1.2e-5,0.0017 3.33e-4,0.0055 0,0.0072 -5e-4,0.0018 -0.0017,0.0054 -0.0024,0.0072 -0.07485,0.1581 -1.0665,0.253058 -1.0665,0.253058 l -0.01939,-0.41935 z m -0.05575,0.604925 c 3.34e-4,1.67e-4 0.0021,-1.67e-4 0.0024,0 3.33e-4,1.67e-4 0.0019,-1.67e-4 0.0024,0 0.05819,0.01529 0.464175,0.02837 0.51385,0.0964 5e-4,6.67e-4 0.002,0.0018 0.0024,0.0024 1.66e-4,3.34e-4 -1.67e-4,0.0021 0,0.0024 3.33e-4,6.66e-4 0.0022,0.0017 0.0024,0.0024 7.7e-5,3.33e-4 -7.2e-5,0.0021 0,0.0024 3.7e-5,3.34e-4 -2.2e-5,0.0021 0,0.0024 2e-6,3.33e-4 1.3e-5,0.0021 0,0.0024 -3.3e-5,3.33e-4 4.8e-5,0.0021 0,0.0024 -6.7e-5,3.34e-4 7.7e-5,0.0021 0,0.0024 -1.67e-4,3.33e-4 -0.0023,0.002 -0.0024,0.0024 -1.67e-4,3.33e-4 1.66e-4,0.002 0,0.0024 -6.67e-4,0.0012 -0.0017,0.0037 -0.0024,0.0048 -3.33e-4,3.34e-4 -0.0021,0.002 -0.0024,0.0024 -3.33e-4,3.33e-4 3.33e-4,0.002 0,0.0024 -0.08416,0.102267 -0.4588,0.13015 -0.477492,0.13015 -1.66e-4,-3.3e-5 -0.0023,6.2e-5 -0.0024,0 -1.67e-4,-7.7e-5 1.67e-4,-0.0023 0,-0.0024 -3.33e-4,-5e-4 -0.0021,-0.0019 -0.0024,-0.0024 -0.01713,-0.03458 -0.03393,-0.255466 -0.03393,-0.255466 z m -2.988583,0.804967 c 0.320042,-0.01653 0.955167,0.05841 2.1475,0.385616 0,0.02523 0.02414,0.33265 0.01453,0.3832 -7.6e-5,3.34e-4 -0.0023,0.0021 -0.0024,0.0024 -7.7e-5,3.33e-4 7.8e-5,0.0022 0,0.0024 -1.67e-4,1.67e-4 -0.0022,0.0024 -0.0024,0.0024 -0.01869,-0.0093 -2.16925,-0.623825 -2.365667,-0.614566 -0.0054,1.66e-4 -0.01187,5e-4 -0.01697,0 -0.0043,-5e-4 -0.01047,-0.0015 -0.01453,-0.0024 -0.0053,-0.0013 -0.01227,-0.0051 -0.01696,-0.0072 -0.0017,-8.33e-4 -0.0056,-0.0015 -0.0073,-0.0024 -5e-4,-3.34e-4 -0.0019,-0.0021 -0.0024,-0.0024 -0.0065,-0.0044 -0.01302,-0.01109 -0.01696,-0.01687 -3.33e-4,-5e-4 -0.0022,-0.002 -0.0024,-0.0024 -5e-4,-10e-4 -0.002,-0.0039 -0.0024,-0.0048 -1.66e-4,-5e-4 1.67e-4,-0.0019 0,-0.0024 -3.33e-4,-0.001 -0.0022,-0.0038 -0.0024,-0.0048 -7.7e-5,-5e-4 7.7e-5,-0.0019 0,-0.0024 -7.7e-5,-0.001 2.5e-5,-0.0038 0,-0.0048 2e-5,-0.001 -7.7e-5,-0.0038 0,-0.0048 3.33e-4,-0.0027 0.0015,-0.0069 0.0024,-0.0096 0.0027,-0.0066 0.0081,-0.01507 0.01453,-0.02169 0.03289,-0.03198 0.115241,-0.06411 0.273891,-0.0723 z m 1.114917,0.908583 c 0.3428,-0.01223 1.164083,0.18425 1.2095,0.173525 -2e-6,0.06512 0.03634,0.372917 -0.0048,0.436225 -3.34e-4,5e-4 -0.002,0.0019 -0.0024,0.0024 -3.33e-4,5e-4 -0.002,0.002 -0.0024,0.0024 -5e-4,3.33e-4 -0.002,0.0021 -0.0024,0.0024 -8.34e-4,5e-4 -0.0039,0.002 -0.0048,0.0024 -5e-4,1.67e-4 -0.0019,-7.6e-5 -0.0024,0 -10e-4,7.7e-5 -0.0038,7.7e-5 -0.0048,0 -5e-4,-7.6e-5 -0.0018,1.67e-4 -0.0024,0 -0.06981,-0.01735 -1.281833,-0.400133 -1.32825,-0.556725 -6.67e-4,-0.0026 -5.5e-5,-0.0072 0,-0.0096 5e-4,-0.0055 0.0032,-0.01213 0.0073,-0.01687 5e-4,-5e-4 0.0019,-0.0019 0.0024,-0.0024 5e-4,-5e-4 0.0018,-0.0019 0.0024,-0.0024 0.02327,-0.01834 0.07128,-0.02912 0.133308,-0.03133 z m 3.373916,0.8435 c 0.327359,-0.0064 0.558475,0.0215 0.472642,0.1205 -0.233767,0.269617 -1.849333,0.491658 -1.849333,0.491658 l -0.02909,-0.491658 c 0.0347,-0.0051 0.855583,-0.109808 1.405833,-0.1205 z m -4.624583,1.532833 c 0.274725,-0.01454 0.9145,0.135475 2.339,0.735075 l 0.0097,0.354284 c 2e-6,0 -2.412333,-0.7275 -2.4965,-0.848334 -0.04142,-0.05948 -0.118417,-0.226908 0.14785,-0.241008 z m 4.726417,0.527809 c 0.07339,-0.0037 0.12505,0.0037 0.143,0.02169 5e-4,5e-4 0.002,0.0019 0.0024,0.0024 0.001,0.0017 0.0018,0.0055 0.0024,0.0072 3.33e-4,0.0018 0.0025,0.0053 0.0024,0.0072 -10e-4,0.01016 -0.0087,0.02385 -0.02181,0.03856 -0.224467,0.251109 -1.430083,0.501292 -1.430083,0.501292 0,0 -2e-6,-0.316025 0,-0.325358 1.66e-4,1.6e-5 0.0022,-4e-6 0.0024,0 0.05496,-0.0019 0.939917,-0.2349 1.299167,-0.253059 z m -5.28875,0.04338 c 0.360141,-0.01899 1.173333,0.17095 2.995833,1.029084 -2e-6,0.0089 0.01623,0.304858 0.0097,0.332591 -1.66e-4,-3.5e-5 -0.0022,6.9e-5 -0.0024,0 -0.10805,-0.03463 -3.279417,-1.142333 -3.279417,-1.142333 -0.0034,-0.01214 -0.05109,-0.20205 0.276317,-0.219317 z m 6.037666,1.385834 c 0.09216,-0.0038 0.152625,0.0041 0.167242,0.0241 0.0013,0.0023 0.0023,0.007 0.0024,0.0097 -3.33e-4,0.0096 -0.0084,0.02191 -0.02424,0.03615 -0.287583,0.25825 -2.121083,0.571125 -2.18625,0.576008 -3.33e-4,0 -0.0022,3.7e-5 -0.0024,0 -1.67e-4,-7.7e-5 -0.0022,1.67e-4 -0.0024,0 -1.66e-4,-1.67e-4 -0.0022,-0.0022 -0.0024,-0.0024 -6.67e-4,-8.33e-4 -0.0019,-0.0037 -0.0024,-0.0048 -1.67e-4,-5e-4 1.66e-4,-0.002 0,-0.0024 -3.34e-4,-0.001 -0.0022,-0.0037 -0.0024,-0.0048 -0.01165,-0.05986 0.0263,-0.269483 0.02909,-0.29885 2.7e-5,-5e-4 0,-0.0021 0,-0.0024 7.7e-5,7.6e-5 0.0023,-7.7e-5 0.0024,0 3.33e-4,5.6e-5 0.002,0.0024 0.0024,0.0024 5e-4,2.4e-5 0.0019,-6e-6 0.0024,0 0.117358,-0.002 1.5225,-0.31205 2.016583,-0.332591 z m -5.3905,0.807375 c 0.545842,-0.02804 2.19975,0.726058 2.280834,0.749533 1.66e-4,4.2e-5 0.0023,-5e-6 0.0024,0 -0.0085,0.03369 -0.0099,0.30595 -0.01696,0.349458 -1.67e-4,0.0012 1.67e-4,0.0042 0,0.0048 -6.7e-5,1.67e-4 -0.0024,-7.5e-5 -0.0024,0 -0.04459,-0.02375 -2.311334,-0.959167 -2.411667,-0.8845 -0.06253,-0.147342 0.0023,-0.211842 0.14785,-0.219317 z m 4.876667,0.197625 c 0.113575,-0.005 0.196708,5.3e-5 0.222992,0.01445 0.0032,0.002 0.0061,0.0048 0.0073,0.0072 1.67e-4,3.33e-4 -7.7e-5,0.002 0,0.0024 2e-5,5e-4 4e-5,0.002 0,0.0024 -1.67e-4,0.001 5e-4,0.0038 0,0.0048 -3.33e-4,5e-4 -0.0021,0.0019 -0.0024,0.0024 -0.0017,0.0021 -0.0046,0.0049 -0.0073,0.0072 -0.168308,0.148767 -1.730583,0.4555 -1.730583,0.4555 0,0 -0.0073,-0.2878 -0.0073,-0.315717 0.04437,-0.0094 1.052916,-0.160383 1.517333,-0.180758 z m -0.126042,0.995333 c 0.109925,-0.0036 0.187859,0.0026 0.206025,0.02169 l 0.0024,0.0024 c 5e-4,8.33e-4 -1.67e-4,0.0039 0,0.0048 7.5e-5,5e-4 0.0024,0.002 0.0024,0.0024 -2.3e-5,5e-4 -0.0023,0.0019 -0.0024,0.0024 -1.67e-4,0.001 5e-4,0.0038 0,0.0048 -3.33e-4,5e-4 -0.0021,0.0019 -0.0024,0.0024 -0.0013,0.0022 -0.0029,0.005 -0.0048,0.0072 -0.0015,0.0017 -0.0053,0.0055 -0.0073,0.0072 -0.168625,0.144716 -1.493083,0.421758 -1.493083,0.421758 0,0 -0.03636,-0.316025 -0.03636,-0.325358 0.03674,8.33e-4 0.92225,-0.138192 1.3355,-0.151834 z m -5.58925,0.07953 c 0.319559,-0.02009 1.111417,0.110841 3.066084,0.817016 l 0.06544,0.380792 c 0,2e-6 -3.254583,-1.044667 -3.34725,-1.077333 1.67e-4,0 -7e-5,-0.0022 0,-0.0024 7.7e-5,-0.002 -5e-4,-0.0069 0,-0.01207 0.0012,-0.0096 0.006,-0.02463 0.01697,-0.03856 0.02294,-0.02796 0.07534,-0.05972 0.19875,-0.06748 z m 4.287667,0.826658 c 0.03922,0.0083 0.584942,0.02634 0.685933,0.110867 5e-4,3.33e-4 0.002,0.002 0.0024,0.0024 3.33e-4,3.34e-4 0.002,0.002 0.0024,0.0024 3.33e-4,3.33e-4 0.0021,0.002 0.0024,0.0024 10e-4,0.0013 0.0017,0.0036 0.0024,0.0048 1.66e-4,5e-4 0.0022,0.002 0.0024,0.0024 8.34e-4,0.0018 0.002,0.0054 0.0024,0.0072 7.6e-5,5e-4 -6.9e-5,0.002 0,0.0024 4.5e-5,5e-4 -2e-5,0.002 0,0.0024 -4e-6,0.001 7.6e-5,0.0039 0,0.0048 -7.5e-5,5e-4 7.6e-5,0.0019 0,0.0024 -1.67e-4,0.001 -0.0021,0.0038 -0.0024,0.0048 -1.66e-4,5e-4 1.67e-4,0.0019 0,0.0024 -5e-4,0.001 -0.0018,0.0038 -0.0024,0.0048 -0.08416,0.130183 -0.654425,0.17835 -0.654425,0.17835 0,0 -0.02802,-0.2551 -0.0412,-0.335 z m 1.321,0.7423 c 0.127075,-0.003 0.218283,0.01143 0.237533,0.0482 0.01083,0.02492 -0.01002,0.06173 -0.07029,0.110866 -0.467542,0.381217 -1.485833,0.4555 -1.485833,0.4555 v -0.41935 c 1.66e-4,2e-5 0.002,3.2e-5 0.0024,0 0.05784,-0.0068 0.89425,-0.185158 1.316167,-0.195216 z m 1.29675,0.390433 c 0.1614,-0.0061 0.230942,0.02082 0.252075,0.05784 0.0017,0.0033 0.0039,0.0086 0.0048,0.01207 0.0015,0.0063 0.003,0.015 0.0024,0.02169 -0.0052,0.04777 -0.05722,0.105 -0.09695,0.142191 -0.159,0.148767 -2.692833,0.947167 -2.692833,0.947167 0,0 -0.01908,-0.529583 -0.0097,-0.576008 1.481417,-0.446417 2.206,-0.592342 2.540167,-0.604925 z m -1.6385,1.499083 c 0.161092,-0.006 0.287058,0.0035 0.324792,0.04097 0.0023,0.0025 0.0057,0.0069 0.0073,0.0097 8.33e-4,0.0017 0.0019,0.0054 0.0024,0.0072 5e-4,0.0018 -1.67e-4,0.0053 0,0.0072 7.8e-5,0.0032 8.33e-4,0.0085 0,0.01207 -0.0018,0.0071 -0.0067,0.01583 -0.01213,0.0241 -0.216783,0.21155 -1.270083,0.243416 -1.270083,0.243416 v -0.2627 c 0.197792,-0.0066 0.638075,-0.07046 0.947667,-0.08194 z m 1.054333,0.4314 c 0.05008,-0.0012 0.08062,0.0069 0.08483,0.02169 1.66e-4,0.0012 1.66e-4,0.0036 0,0.0048 -0.0025,0.0123 -0.01725,0.03094 -0.04848,0.05302 -0.420775,0.297458 -2.002083,0.602516 -2.002083,0.602516 0,0 0.01959,-0.207883 0.02909,-0.257875 0.04398,-6.66e-4 1.55825,-0.414958 1.936583,-0.424175 z m 0.887084,0.330184 c 0.186333,-0.0017 0.328549,0.02559 0.409624,0.08435 1.67e-4,0 0.0023,-4e-5 0.0024,0 6e-5,1.66e-4 -4.5e-5,0.0022 0,0.0024 2.8e-5,3.34e-4 -1.4e-5,0.0021 0,0.0024 -3.9e-5,8.33e-4 7.6e-5,0.0039 0,0.0048 -0.0079,0.05763 -0.126392,0.32875 -0.542933,0.445866 -0.519525,-0.04614 -2.724417,0.602009 -2.768,0.612159 -1.67e-4,-1.67e-4 -0.0023,1.66e-4 -0.0024,0 -1.67e-4,-8.34e-4 7.7e-5,-0.0036 0,-0.0048 -0.0012,-0.04152 0.02909,-0.265108 0.02909,-0.265108 0.760042,-0.45195 2.14125,-0.87525 2.872167,-0.882084 z m -5.645,1.2725 c 0.0049,-7.7e-5 0.0094,-1.7e-5 0.01453,0 0.95375,0.102266 1.31,0.457275 1.410667,0.600108 -0.190175,0.331833 -1.6975,-0.412367 -1.539084,-0.571183 0.01813,-0.0161 0.05545,-0.02771 0.113917,-0.02892 z m 5.465666,0.06266 c 0.03788,-0.0015 0.07248,0.0063 0.09695,0.02169 0.01,0.0067 0.01987,0.0162 0.02666,0.02651 0.0092,0.0148 0.0153,0.03483 0.01697,0.05784 -0.09963,0.153083 -0.614925,0.08626 -0.647158,0.08194 0.02596,-0.0092 0.323483,-0.18105 0.506575,-0.187983 z m -2.04325,1.0315 c 0.07072,-0.0029 0.129475,0.0042 0.162392,0.0241 0.004,0.0026 0.009,0.0066 0.01212,0.0097 0.001,10e-4 0.004,0.0037 0.0049,0.0048 0.0013,0.0017 0.0038,0.0054 0.0048,0.0072 10e-4,0.0018 0.0017,0.0053 0.0024,0.0072 0.006,0.01801 0.0037,0.04288 -0.01212,0.0723 -0.149616,0.27895 -0.8047,0.175934 -0.8047,0.175934 v -0.195217 c 1.67e-4,5.5e-5 0.0023,-4.5e-5 0.0024,0 0.0369,0.0031 0.397933,-0.09665 0.627767,-0.106042 z m -3.858666,0.735075 c 0.201541,-0.01012 0.3777,0.12135 0.562325,0.226542 0.411391,-0.08367 1.2555,0.06507 1.2555,0.06507 v 0.37115 c 0,3.33e-4 -0.0019,0.0022 -0.0024,0.0024 -3.33e-4,1.66e-4 -0.0019,-1.67e-4 -0.0024,0 -0.07684,0.0133 -1.066084,-0.02968 -1.287,-0.1687 -0.1802,0 -0.690334,-0.267709 -0.729567,-0.404892 -3.33e-4,-0.0012 -0.0022,-0.0037 -0.0024,-0.0048 -3.34e-4,-0.0017 1.66e-4,-0.0056 0,-0.0072 -5.5e-5,-0.0012 -2.2e-5,-0.0038 0,-0.0048 5.6e-5,-10e-4 -1.67e-4,-0.0038 0,-0.0048 7.6e-5,-5e-4 -7.9e-5,-0.0019 0,-0.0024 1.66e-4,-0.001 0.0021,-0.0038 0.0024,-0.0048 1.67e-4,-5e-4 -1.67e-4,-0.0019 0,-0.0024 0.0705,-0.03736 0.139192,-0.05702 0.2036,-0.06025 z m 4.3265,0.183167 c 0.154741,-0.0083 0.22035,0.03928 0.09938,0.209675 -0.336617,0.47415 -1.207084,0.279566 -1.207084,0.279566 l -0.03636,-0.294033 c 0.307025,0.01192 0.868166,-0.180433 1.144,-0.195217 z m -3.25275,0.961583 c 0.351966,-0.01632 0.734408,0.122917 0.734408,0.122917 0.009,0.01786 0.189167,0.370975 0.02909,0.489241 -0.0059,0.0043 -0.01248,0.0084 -0.01939,0.01205 -0.196392,0.102267 -1.135,-0.07992 -1.190084,-0.4555 0.11045,-0.115925 0.274084,-0.160741 0.445975,-0.168708 z m -3.628417,0.183167 c 0.321892,-0.01921 0.68145,0.177966 0.722292,0.197625 5e-4,1.66e-4 0.0021,-7.7e-5 0.0024,0 0,0.01112 -0.01212,0.356691 -0.01212,0.356691 0,0 -0.637208,-0.176625 -0.838667,-0.532625 0.04039,-0.01095 0.08353,-0.01916 0.126042,-0.02169 z m 6.129833,0.0482 c 0.359009,-0.0023 0.792742,0.0816 0.855584,0.20245 0.01188,0.02472 0.0084,0.05196 -0.01453,0.07953 -0.177691,0.213783 -1.187666,0.01928 -1.187666,0.01928 v -0.260284 c 0.08986,-0.02614 0.213633,-0.04013 0.3466,-0.04097 z"
     id="path936"
     style="stroke-width:0.0833333" />
  <metadata
     id="metadata952">
    <rdf:RDF>
      <cc:Work
         rdf:about="">
        <dc:title>Flag of Saint Kitts and Nevis</dc:title>
      </cc:Work>
    </rdf:RDF>
  </metadata>
</svg>
