<?xml version="1.0" encoding="UTF-8"?>
<svg width="750" height="500" version="1.1" viewBox="0 0 750 500" xmlns="http://www.w3.org/2000/svg" xmlns:cc="http://creativecommons.org/ns#" xmlns:dc="http://purl.org/dc/elements/1.1/" xmlns:rdf="http://www.w3.org/1999/02/22-rdf-syntax-ns#">
<rect y="2.8644e-14" width="750" height="500" style="fill:#0038a8;stroke-width:4.8113"/>
<rect y="250" width="750" height="250" style="fill:#ce1126;stroke-width:4.8113"/>
<path d="M 324.7595,250 0,500 V 0" style="fill:#ffffff;stroke-width:4.8113"/>
<path d="m18.75 48.107 11.288 9.7545 13.069-7.1945-5.789 13.75 10.881 10.206-14.865-1.2568-6.3443 13.502-3.3984-14.526-14.802-1.8614 12.765-7.721z" style="fill:#fcd116;stroke-width:4.1666"/>
<path d="m272.86 230.19.30392 14.915 14.092 4.8982-14.092 4.8982-.30392 14.915-9.013-11.888-14.279 4.32 8.5212-12.246-8.5212-12.246 14.279 4.32z" style="fill:#fcd116;stroke-width:4.1667"/>
<path d="m26.989 413.13 6.3443 13.502 14.866-1.2568-10.881 10.206 5.789 13.75-13.069-7.1945-11.288 9.7545 2.8038-14.653-12.765-7.721 14.802-1.8614z" style="fill:#fcd116;stroke-width:4.1667"/>
<path d="m116.67 170.83-4.8687 4.8687 2.4146 36.877c-.82092.0529-1.6336.13249-2.4393.23749l-4.4333-33.651-3.9732 3.9732 5.9821 30.078c-4.9208.97366-9.4942 2.9066-13.518 5.601l-17.036-25.497h-5.6208l20.662 26.932c-.64833.49842-1.2762 1.0197-1.8901 1.5586l-24.373-27.792h-6.8875v6.8875l27.792 24.373c-.53942.61458-1.0598 1.2459-1.5586 1.895l-26.931-20.667v5.6208l25.502 17.041c-2.6937 4.0229-4.6325 8.5933-5.6059 13.513l-30.078-5.982-3.9732 3.9732 33.651 4.4333c-.105.80587-.18458 1.6186-.23749 2.4393l-36.877-2.4146-4.8687 4.8688 4.8687 4.8688 36.877-2.4146c.05333.82121.13249 1.6384.23749 2.4442l-33.651 4.4284 3.9732 3.9732 30.078-5.982c.9735 4.9205 2.9062 9.4933 5.601 13.518l-25.497 17.036v5.6208l26.932-20.662c.49841.64858 1.0198 1.276 1.5586 1.8901l-27.792 24.373v6.8875h6.8875l24.373-27.792c.61475.53979 1.2458 1.0592 1.895 1.5586l-20.667 26.932h5.6208l17.041-25.502c4.0218 2.696 8.5927 4.6375 13.513 5.6109l-5.9821 30.073 3.9732 3.9732 4.4333-33.651c.80542.105 1.6184.18458 2.4393.23749l-2.4146 36.877 4.8687 4.8688 4.8688-4.8688-2.4146-36.877c.821-.0533 1.6336-.13249 2.4393-.23749l4.4333 33.651 3.9732-3.9732-5.982-30.078c4.9207-.97362 9.4941-2.9066 13.518-5.601l17.036 25.497h5.6208l-20.662-26.931c.64834-.49842 1.2763-1.0198 1.8902-1.5586l24.373 27.792h6.8875v-6.8875l-27.792-24.373c.53941-.61458 1.0597-1.2459 1.5586-1.895l26.932 20.667v-5.6208l-25.502-17.041c2.6937-4.0229 4.6326-8.5932 5.606-13.513l30.078 5.982 3.9732-3.9732-33.651-4.4333c.10499-.80592.18457-1.6186.23748-2.4393l36.877 2.4146 4.8687-4.8688-4.8687-4.8688-36.877 2.4146c-.0525-.82096-.13249-1.6336-.23749-2.4393l33.651-4.4333-3.9732-3.9732-30.078 5.982c-.97367-4.9207-2.9066-9.4941-5.6011-13.518l25.497-17.036v-5.6208l-26.932 20.662c-.49844-.64829-1.0198-1.2762-1.5586-1.8901l27.792-24.373v-6.8875h-6.8875l-24.373 27.792c-.61458-.53942-1.2459-1.0597-1.8951-1.5586l20.667-26.932h-5.6208l-17.041 25.502c-4.0229-2.6937-8.5933-4.6326-13.513-5.606l5.982-30.078-3.9732-3.9732-4.4333 33.651c-.80583-.105-1.6186-.18458-2.4393-.23749l2.4146-36.877z" style="fill:#fcd116;stroke-width:4.1667"/>
</svg>
