<?xml version="1.0" encoding="UTF-8" standalone="no"?>
<!-- Generator: Adobe Illustrator 18.1.1, SVG Export Plug-In . SVG Version: 6.00 Build 0)  -->

<svg
   xmlns:dc="http://purl.org/dc/elements/1.1/"
   xmlns:cc="http://creativecommons.org/ns#"
   xmlns:rdf="http://www.w3.org/1999/02/22-rdf-syntax-ns#"
   xmlns:svg="http://www.w3.org/2000/svg"
   xmlns="http://www.w3.org/2000/svg"
   xmlns:sodipodi="http://sodipodi.sourceforge.net/DTD/sodipodi-0.dtd"
   xmlns:inkscape="http://www.inkscape.org/namespaces/inkscape"
   version="1.1"
   id="Layer_1"
   x="0px"
   y="0px"
   viewBox="0 0 15000 10000"
   enable-background="new 0 0 15000 10000"
   xml:space="preserve"
   sodipodi:docname="Slovenia_Flag.svg"
   inkscape:version="0.92.3 (2405546, 2018-03-11)"><metadata
   id="metadata30"><rdf:RDF><cc:Work
       rdf:about=""><dc:format>image/svg+xml</dc:format><dc:type
         rdf:resource="http://purl.org/dc/dcmitype/StillImage" /></cc:Work></rdf:RDF></metadata><defs
   id="defs28" /><sodipodi:namedview
   pagecolor="#ffffff"
   bordercolor="#666666"
   borderopacity="1"
   objecttolerance="10"
   gridtolerance="10"
   guidetolerance="10"
   inkscape:pageopacity="0"
   inkscape:pageshadow="2"
   inkscape:window-width="1920"
   inkscape:window-height="1017"
   id="namedview26"
   showgrid="false"
   inkscape:zoom="0.037866667"
   inkscape:cx="362.0365"
   inkscape:cy="7146.3249"
   inkscape:window-x="-8"
   inkscape:window-y="-8"
   inkscape:window-maximized="1"
   inkscape:current-layer="Emblem" />
<rect
   y="6666.7"
   fill="#ED1C24"
   width="15000"
   height="3333.3"
   id="rect2"
   style="fill:#ff0000;fill-opacity:1" />
<rect
   y="3333.3"
   fill="#005DA4"
   width="15000"
   height="3333.3"
   id="rect4"
   style="fill:#005ce5;fill-opacity:1" />
<rect
   y="0"
   fill="#FFFFFF"
   width="15000"
   height="3333.3"
   id="rect6" />
<g
   id="Emblem">
	<path
   d="m 5072.8,3610.8 96.5,-1424.5 c -752.6,-356.7 -1625.6,-356.7 -2378.2,0 l 96.5,1424.5 c 43.4,640 478.5,1186.3 1092.6,1371.9 614.1,-185.6 1049.2,-731.9 1092.6,-1371.9"
   id="path8"
   inkscape:connector-curvature="0"
   style="fill:#005ce5;fill-opacity:1" />
	<path
   d="m 3088.4,3803.8 c 103.4,465.3 441.1,843.4 891.8,998.5 450.7,-155.1 788.4,-533.2 891.8,-998.5 l -445.9,-594.6 -178.4,237.8 -267.5,-535 -267.5,535.1 -178.4,-237.8 -445.9,594.5"
   id="path10"
   inkscape:connector-curvature="0"
   style="fill:#ffffff" />
	<path
   d="m 3181.3,4080.6 c 98.9,57.1 220.7,57.1 319.6,0 98.9,-57.1 220.7,-57.1 319.6,0 98.9,57.1 220.7,57.1 319.6,0 98.9,-57.1 220.7,-57.1 319.6,0 98.9,57.1 220.7,57.1 319.6,0 v 85.8 c -98.9,57.1 -220.7,57.1 -319.6,0 -98.9,-57.1 -220.7,-57.1 -319.6,0 -98.9,57.1 -220.7,57.1 -319.6,0 -98.9,-57.1 -220.7,-57.1 -319.6,0 -98.9,57.1 -220.7,57.1 -319.6,0 z"
   id="path12"
   inkscape:connector-curvature="0"
   style="fill:#005ce5;fill-opacity:1" />
	<path
   d="m 3181.3,4252.2 c 98.9,57.1 220.7,57.1 319.6,0 98.9,-57.1 220.7,-57.1 319.6,0 98.9,57.1 220.7,57.1 319.6,0 98.9,-57.1 220.7,-57.1 319.6,0 98.9,57.1 220.7,57.1 319.6,0 v 85.8 c -98.9,57.1 -220.7,57.1 -319.6,0 -98.9,-57.1 -220.7,-57.1 -319.6,0 -98.9,57.1 -220.7,57.1 -319.6,0 -98.9,-57.1 -220.7,-57.1 -319.6,0 -98.9,57.1 -220.7,57.1 -319.6,0 z"
   id="path14"
   inkscape:connector-curvature="0"
   style="fill:#005ce5;fill-opacity:1" />
	<path
   d="m 3980.2,2503.2 22.3,72.9 74.2,-17.1 -52,55.7 52,55.7 -74.2,-17.1 -22.3,72.9 -22.3,-72.9 -74.2,17.1 52,-55.7 -52,-55.7 74.2,17.1 z"
   id="path16"
   inkscape:connector-curvature="0"
   style="fill:#ffe500;fill-opacity:1" />
	<path
   d="m 3645.8,2057.3 22.3,72.9 74.2,-17.1 -52,55.7 52,55.7 -74.2,-17.1 -22.3,72.9 -22.3,-72.9 -74.2,17.1 52,-55.7 -52,-55.7 74.2,17.1 z"
   id="path18"
   inkscape:connector-curvature="0"
   style="fill:#ffe500;fill-opacity:1" />
	<path
   d="m 4314.7,2057.3 22.3,72.9 74.2,-17.1 -52,55.7 52,55.7 -74.2,-17.1 -22.3,72.9 -22.3,-72.9 -74.2,17.1 52,-55.7 -52,-55.7 74.2,17.1 z"
   id="path20"
   inkscape:connector-curvature="0"
   style="fill:#ffe500;fill-opacity:1" />
	<path
   d="m 2874.6,2148.5 98.7,1456.5 c 40.3,594.9 439.3,1105.2 1006.9,1287.8 C 4547.9,4710.2 4946.8,4200 4987.1,3605 l 98.7,-1456.5 c 27.6,13.1 55.4,25.7 83.4,37.9 l -96.5,1424.5 c -43.4,640 -478.5,1186.3 -1092.6,1371.9 C 3366,4797.3 2930.9,4251 2887.5,3610.9 L 2791,2186.4 c 28.1,-12.2 56,-24.9 83.6,-37.9"
   id="path22"
   inkscape:connector-curvature="0"
   style="fill:#ff0000;fill-opacity:1" />
</g>
</svg>