<?xml version="1.0" encoding="UTF-8" standalone="no"?>
<svg
   width="900"
   height="600"
   viewBox="0 0 75 50"
   fill="none"
   version="1.1"
   id="svg21"
   sodipodi:docname="tk.svg"
   inkscape:version="1.1.1 (3bf5ae0d25, 2021-09-20)"
   xmlns:inkscape="http://www.inkscape.org/namespaces/inkscape"
   xmlns:sodipodi="http://sodipodi.sourceforge.net/DTD/sodipodi-0.dtd"
   xmlns:xlink="http://www.w3.org/1999/xlink"
   xmlns="http://www.w3.org/2000/svg"
   xmlns:svg="http://www.w3.org/2000/svg"
   xmlns:rdf="http://www.w3.org/1999/02/22-rdf-syntax-ns#"
   xmlns:cc="http://creativecommons.org/ns#"
   xmlns:dc="http://purl.org/dc/elements/1.1/">
  <sodipodi:namedview
     id="namedview23"
     pagecolor="#ffffff"
     bordercolor="#666666"
     borderopacity="1.0"
     inkscape:pageshadow="2"
     inkscape:pageopacity="0.0"
     inkscape:pagecheckerboard="0"
     showgrid="false"
     inkscape:zoom="0.66833333"
     inkscape:cx="647.8803"
     inkscape:cy="361.34663"
     inkscape:window-width="1920"
     inkscape:window-height="991"
     inkscape:window-x="-9"
     inkscape:window-y="-9"
     inkscape:window-maximized="1"
     inkscape:current-layer="svg21" />
  <title
     id="title2">Flag of Saint Kitts and Nevis</title>
  <defs
     id="defs7">
    <clipPath
       id="f">
      <path
         d="m0 0h75v50H0z"
         id="path4" />
    </clipPath>
    <g
       id="star">
      <g
         id="arm"
         transform="translate(0,-0.324925)">
        <path
           d="M1,0H0V0.5z"
           id="path1090" />
        <path
           d="M1,0H0V-0.5z"
           transform="rotate(-36,1,0)"
           id="path1092" />
      </g>
      <use
         xlink:href="#arm"
         transform="rotate(72)"
         id="use1095" />
      <use
         xlink:href="#arm"
         transform="rotate(144)"
         id="use1097" />
      <use
         xlink:href="#arm"
         transform="rotate(216)"
         id="use1099" />
      <use
         xlink:href="#arm"
         transform="rotate(288)"
         id="use1101" />
    </g>
  </defs>
  <metadata
     id="metadata952">
    <rdf:RDF>
      <cc:Work
         rdf:about="">
        <dc:title>Flag of Saint Kitts and Nevis</dc:title>
      </cc:Work>
    </rdf:RDF>
  </metadata>
  <rect
     width="75.187027"
     height="50.187031"
     fill="#012169"
     id="rect1106"
     x="0.06234771"
     y="-0.01080389"
     style="stroke-width:0.0482625" />
  <g
     fill="#ffd100"
     id="g1112"
     transform="matrix(0.04177057,0,0,0.05514509,2.1820485,-0.28812547)">
    <path
       d="M 329.37609,777.2654 C 311.44173,777.11556 497.99952,677.83404 654.14523,550.66563 858.78891,383.99945 1299.541,117.15633 1429.1161,73.7954 c 13.5433,-4.53215 -27.7761,23.07308 -33.14,32.01541 -138.3415,163.74043 -27.925,472.72379 144.9726,628.04829 51.99,39.7632 49.3274,41.85082 145.7074,45.7463 v 9 z"
       id="path1108" />
    <path
       d="m 318.12503,795.3246 c 0,0 -13.16343,9.4029 -13.12495,16.4061 0.043,7.7725 14.76557,18.0468 14.76557,18.0468 l 1338.74505,14.7656 24.6093,-16.4062 -34.453,-21.328 z"
       id="path1110" />
  </g>
  <g
     fill="#ffffff"
     id="g1122"
     transform="matrix(0.04946524,0,0,0.04946524,-1.1289249,1.2326367)">
    <use
       xlink:href="#star"
       transform="matrix(45,0,0,45,342.9565,112.5812)"
       id="use1114"
       x="0"
       y="0"
       width="100%"
       height="100%" />
    <use
       xlink:href="#star"
       transform="matrix(37.5,0,0,37.5,521.20459,267.53)"
       id="use1116"
       x="0"
       y="0"
       width="100%"
       height="100%" />
    <use
       xlink:href="#star"
       transform="matrix(45,0,0,45,135,321.8075)"
       id="use1118"
       x="0"
       y="0"
       width="100%"
       height="100%" />
    <use
       xlink:href="#star"
       transform="matrix(52.5,0,0,52.5,342.9565,652.5812)"
       id="use1120"
       x="0"
       y="0"
       width="100%"
       height="100%" />
  </g>
</svg>
