<?xml version="1.0" encoding="UTF-8" standalone="no"?>
<svg
   version="1.1"
   width="900"
   height="600"
   viewBox="0 0 900 600"
   id="svg5"
   sodipodi:docname="um.svg"
   inkscape:version="1.3 (0e150ed6c4, 2023-07-21)"
   xmlns:inkscape="http://www.inkscape.org/namespaces/inkscape"
   xmlns:sodipodi="http://sodipodi.sourceforge.net/DTD/sodipodi-0.dtd"
   xmlns="http://www.w3.org/2000/svg"
   xmlns:svg="http://www.w3.org/2000/svg">
  <defs
     id="defs5" />
  <sodipodi:namedview
     id="namedview5"
     pagecolor="#ffffff"
     bordercolor="#000000"
     borderopacity="0.25"
     inkscape:showpageshadow="2"
     inkscape:pageopacity="0.0"
     inkscape:pagecheckerboard="0"
     inkscape:deskcolor="#d1d1d1"
     showgrid="false"
     inkscape:zoom="0.45291667"
     inkscape:cx="-246.18215"
     inkscape:cy="155.65777"
     inkscape:window-width="1920"
     inkscape:window-height="991"
     inkscape:window-x="-9"
     inkscape:window-y="-9"
     inkscape:window-maximized="1"
     inkscape:current-layer="svg5" />
  <g
     id="Grupo-1"
     transform="matrix(0.375,0,0,0.375,0,28.702852)">
    <path
       id="Rectángulo-1-cop"
       d="M 0,774.667 H 2400 V 884 H 0 Z"
       fill="#ffffff" />
    <path
       id="path1"
       d="M 0,665.333 H 2400 V 774.667 H 0 Z"
       fill="#bf0a30" />
    <path
       id="path2"
       d="M 0,556 H 2400 V 665.333 H 0 Z"
       fill="#ffffff" />
  </g>
  <path
     id="path3"
     d="M 0,360.20285 H 900 V 600 H 0 Z"
     fill="#002868"
     style="stroke-width:0.402161" />
  <path
     id="path4"
     d="M 0,8.0858626e-6 H 900 V 237.20285 H 0 Z"
     fill="#002868"
     style="stroke-width:0.39998" />
  <path
     id="Polígono-1"
     d="m 236.25,140.6621 8.0145,23.83087 24.0435,0.64613 -19.09013,15.37425 6.84488,24.23025 -19.81275,-14.32913 -19.81275,14.32913 6.84487,-24.23025 -19.09012,-15.37425 24.0435,-0.64613 z"
     fill="#ffffff"
     style="stroke-width:0.375" />
  <path
     id="Polígono-1-copia"
     d="m 131.0625,75.787102 8.0145,23.830875 24.0435,0.646123 -19.09013,15.37425 6.84488,24.23025 -19.81275,-14.32912 -19.81275,14.32912 6.84487,-24.23025 L 99.0045,100.2641 123.048,99.617977 Z"
     fill="#ffffff"
     style="stroke-width:0.375" />
  <path
     id="path5"
     d="m 705.5625,442.20298 8.0145,23.83087 24.0435,0.64575 -19.09012,15.37463 6.84487,24.22987 -19.81275,-14.32875 -19.81275,14.32875 6.84487,-24.22987 -19.09012,-15.37463 24.0435,-0.64575 z"
     fill="#ffffff"
     style="stroke-width:0.375" />
</svg>
